<svg width="29" height="29" viewBox="0 0 29 29" fill="none" xmlns="http://www.w3.org/2000/svg">
<rect y="-0.000488281" width="29.0008" height="29.0008" rx="14.5004" fill="#0A66C2"/>
<path d="M19.7223 22.7857H22.4171C22.5147 22.7857 22.6084 22.7469 22.6774 22.6777C22.7465 22.6085 22.7853 22.5147 22.7853 22.4169L22.7867 16.7134C22.7867 13.7323 22.1455 11.4409 18.6679 11.4409C17.3459 11.3917 16.0992 12.0744 15.4265 13.2143C15.4232 13.2198 15.4182 13.2241 15.4122 13.2266C15.4063 13.229 15.3997 13.2294 15.3935 13.2277C15.3873 13.226 15.3818 13.2223 15.3779 13.2172C15.3739 13.2121 15.3718 13.2059 15.3717 13.1994V12.0851C15.3717 11.9872 15.3329 11.8934 15.2639 11.8242C15.1948 11.755 15.1011 11.7161 15.0035 11.7161H12.4461C12.3485 11.7161 12.2548 11.755 12.1857 11.8242C12.1167 11.8934 12.0779 11.9872 12.0779 12.0851V22.4164C12.0779 22.5142 12.1167 22.608 12.1857 22.6772C12.2548 22.7464 12.3485 22.7853 12.4461 22.7853H15.1407C15.2384 22.7853 15.3321 22.7464 15.4011 22.6772C15.4702 22.608 15.509 22.5142 15.509 22.4164V17.3095C15.509 15.8655 15.7824 14.467 17.5695 14.467C19.3312 14.467 19.354 16.1194 19.354 17.403V22.4168C19.354 22.5147 19.3928 22.6085 19.4619 22.6777C19.531 22.7469 19.6246 22.7857 19.7223 22.7857ZM6.21484 8.20856C6.21484 9.30274 7.11405 10.2031 8.20641 10.2031C9.2985 10.203 10.1972 9.3021 10.1972 8.2081C10.197 7.1141 9.29822 6.21387 8.20605 6.21387C7.11359 6.21387 6.21484 7.11437 6.21484 8.20856ZM6.85553 22.7857H9.55371C9.65138 22.7857 9.74504 22.7469 9.81411 22.6777C9.88317 22.6085 9.92197 22.5147 9.92197 22.4168V12.0851C9.92197 11.9872 9.88317 11.8934 9.81411 11.8242C9.74504 11.755 9.65138 11.7161 9.55371 11.7161H6.85553C6.75786 11.7161 6.66419 11.755 6.59513 11.8242C6.52607 11.8934 6.48727 11.9872 6.48727 12.0851V22.4168C6.48727 22.5147 6.52607 22.6085 6.59513 22.6777C6.66419 22.7469 6.75786 22.7857 6.85553 22.7857Z" fill="white"/>
</svg>
