<svg width="29" height="29" viewBox="0 0 29 29" fill="none" xmlns="http://www.w3.org/2000/svg">
<g clip-path="url(#clip0_382_8283)">
<path d="M6.59093 28.8573V13.9952L3.11603 9.77846L0 7.43848V26.2345C0 27.6857 0.886426 28.8573 1.97732 28.8573H6.59093Z" fill="#4285F4"/>
<path d="M22.4082 28.8572H27.0218C28.116 28.8572 28.9991 27.6812 28.9991 26.2344V7.43848L25.4697 10.1186L22.4082 13.995V28.8572Z" fill="#34A853"/>
<path d="M6.59002 13.9951L6.11719 8.18806L6.59002 2.63013L14.4991 10.4983L22.4082 2.63013L22.9371 7.88799L22.4082 13.9951L14.4991 21.8633L6.59002 13.9951Z" fill="#EA4335"/>
<path d="M22.4082 2.63009V13.9951L28.9991 7.43838V3.9414C28.9991 0.698058 26.2079 -1.15088 24.2538 0.794223L22.4082 2.63009Z" fill="#FBBC04"/>
<path d="M0 7.43845L3.03129 10.4541L6.59093 13.9952V2.63016L4.74535 0.794292C2.78785 -1.15096 0 0.698126 0 3.94132V7.43845Z" fill="#C5221F"/>
</g>
<defs>
<clipPath id="clip0_382_8283">
<rect width="29" height="29" fill="white"/>
</clipPath>
</defs>
</svg>
