<svg width="44" height="44" viewBox="0 0 44 44" fill="none" xmlns="http://www.w3.org/2000/svg">
<rect width="44" height="44" rx="10" fill="white" fill-opacity="0.2"/>
<path d="M24.0468 13.304C23.3994 13.1063 22.7121 13 22 13C18.134 13 15 16.134 15 20V23.7224C15 23.9002 14.9294 24.0706 14.8037 24.1963L14.293 24.7071C14.1054 24.8947 14 25.1489 14 25.4141V26C14 26.5523 14.4477 27 15 27H29C29.5523 27 30 26.5523 30 26V25.4142C30 25.149 29.8945 24.8946 29.707 24.707L29.1963 24.1963C29.0706 24.0706 29 23.9002 29 23.7224V20C29 19.8236 28.9936 19.6487 28.9805 19.4762M25 27V28C25 29.6569 23.6569 31 22 31C20.3431 31 19 29.6569 19 28V27H25ZM31 16C31 18.2091 29.2091 20 27 20C24.7909 20 23 18.2091 23 16C23 13.7909 24.7909 12 27 12C29.2091 12 31 13.7909 31 16Z" stroke="white" stroke-width="2" stroke-linecap="round" stroke-linejoin="round"/>
<circle cx="27" cy="16" r="3" fill="#0F54FF"/>
</svg>
