<svg width="390" height="388" viewBox="0 0 390 388" fill="none" xmlns="http://www.w3.org/2000/svg">
<path d="M390 296.742H0V296.936H390V296.742Z" fill="#EBEBEB"/>
<path d="M135.112 301.693H117.031V301.887H135.112V301.693Z" fill="#EBEBEB"/>
<path d="M357.84 305.853H313.638V306.047H357.84V305.853Z" fill="#EBEBEB"/>
<path d="M77.5239 305.853H33.3213V306.047H77.5239V305.853Z" fill="#EBEBEB"/>
<path d="M184.86 262.133H34.2497C33.0698 262.131 31.939 261.663 31.1054 260.832C30.2719 260.002 29.8037 258.876 29.8037 257.702V47.0722C29.814 45.9051 30.2867 44.7892 31.1191 43.9668C31.9516 43.1444 33.0766 42.682 34.2497 42.68H184.86C186.041 42.68 187.174 43.1468 188.009 43.9778C188.844 44.8088 189.314 45.9358 189.314 47.111V257.702C189.314 258.877 188.844 260.004 188.009 260.835C187.174 261.666 186.041 262.133 184.86 262.133ZM34.2497 42.8352C33.1216 42.8373 32.0403 43.2846 31.2433 44.0789C30.4463 44.8733 29.9987 45.9498 29.9987 47.0722V257.702C29.9987 258.824 30.4463 259.901 31.2433 260.695C32.0403 261.489 33.1216 261.937 34.2497 261.939H184.86C185.988 261.935 187.069 261.487 187.867 260.693C188.665 259.9 189.115 258.824 189.119 257.702V47.0722C189.115 45.9497 188.665 44.8744 187.867 44.0807C187.069 43.287 185.988 42.8393 184.86 42.8352H34.2497Z" fill="#EBEBEB"/>
<path d="M353.582 262.133H202.964C201.784 262.129 200.653 261.661 199.819 260.83C198.984 260 198.514 258.876 198.51 257.702V47.0722C198.522 45.9044 198.997 44.7885 199.83 43.9663C200.664 43.1441 201.79 42.682 202.964 42.68H353.582C354.753 42.684 355.876 43.1473 356.707 43.9695C357.538 44.7917 358.01 45.9064 358.02 47.0722V257.702C358.021 258.283 357.907 258.858 357.684 259.395C357.462 259.932 357.135 260.42 356.723 260.832C356.311 261.243 355.821 261.57 355.282 261.793C354.743 262.016 354.165 262.132 353.582 262.133ZM202.964 42.8352C201.835 42.8393 200.754 43.287 199.957 44.0807C199.159 44.8744 198.709 45.9497 198.705 47.0722V257.702C198.709 258.824 199.159 259.9 199.957 260.693C200.754 261.487 201.835 261.935 202.964 261.939H353.582C354.71 261.935 355.791 261.487 356.588 260.693C357.386 259.9 357.836 258.824 357.84 257.702V47.0722C357.836 45.9497 357.386 44.8744 356.588 44.0807C355.791 43.287 354.71 42.8393 353.582 42.8352H202.964Z" fill="#EBEBEB"/>
<path d="M118.389 315.281C118.389 315.281 133.7 306.745 134.722 294.57C135.744 282.394 123.701 279.942 118.389 275.682C113.077 271.422 112.882 267.557 112.671 260.449C112.461 253.341 110.222 245.821 102.266 238.721C94.3101 231.62 93.4833 228.974 94.4661 219.43C95.4489 209.885 88.9515 197.903 80.7849 199.936C72.6183 201.97 72.0099 214.758 73.6401 222.883C75.1298 230.785 73.6266 238.956 69.4203 245.821C65.5203 251.921 63.9057 262.684 69.4203 269.59C74.9349 276.497 78.6087 282.588 75.9489 289.898C73.2891 297.208 65.1303 300.048 74.5215 315.281H118.389Z" fill="#E6E6E6"/>
<path d="M253.305 315.141H279.637C279.637 315.141 282.087 293.615 281.681 276.147C281.275 258.68 280.254 231.062 269.201 231.869C258.148 232.676 245.551 260.914 253.305 315.141Z" fill="#F5F5F5"/>
<path d="M267.282 315.141C267.282 315.141 292.905 258.276 313.528 269.443C334.152 280.609 291.4 315.429 291.4 315.429L267.282 315.141Z" fill="#F0F0F0"/>
<path d="M264.201 315.428C264.201 315.428 265.886 296.921 258.89 277.994C251.893 259.068 243.219 247.73 233.423 251.385C223.626 255.04 224.468 279.624 237.619 315.141L264.201 315.428Z" fill="#E6E6E6"/>
<path d="M279.637 315.141C279.637 315.141 290.791 297.759 296.946 281.331C303.1 264.903 304.504 252.619 298.903 249.593C293.303 246.566 267.001 274.906 264.201 315.428L279.637 315.141Z" fill="#E6E6E6"/>
<path d="M245.599 315.141C245.599 315.141 231.185 259.657 206.56 267.992C181.935 276.326 226.06 315.428 226.06 315.428H246.839" fill="#F0F0F0"/>
<path d="M291.556 300.002C291.556 300.002 294.551 281.766 317.99 259.099C341.429 236.432 348.496 219.624 344.315 196.778C344.315 196.778 365.703 226.654 351.866 263.382C338.029 300.11 316.555 312.418 298.935 317.252C281.315 322.087 291.556 300.002 291.556 300.002Z" fill="#EBEBEB" stroke="#EBEBEB" stroke-miterlimit="10"/>
<path d="M291.853 317.516C296.603 305.193 303.841 297.945 311.961 290.596C314.933 287.904 318.029 285.164 321.165 282.223C323.302 280.198 325.463 278.041 327.608 275.682C329.965 273.105 332.183 270.406 334.253 267.596C336.591 264.414 338.738 261.098 340.681 257.663C341.086 256.957 341.461 256.243 341.882 255.498C342.389 254.544 342.88 253.597 343.333 252.658C355.391 227.826 348.941 206.734 345.454 198.555C344.941 197.308 344.352 196.093 343.691 194.916" stroke="#E0E0E0" stroke-width="2" stroke-miterlimit="10"/>
<path d="M335.774 238.535C339.897 242.197 342.578 247.196 343.34 252.642" stroke="#E0E0E0" stroke-width="2" stroke-miterlimit="10"/>
<path d="M334.261 267.588C334.043 262.234 329.285 254.435 326.508 250.314" stroke="#E0E0E0" stroke-width="2" stroke-miterlimit="10"/>
<path d="M313.404 263.747C315.58 267.169 320.112 274.968 321.165 282.223" stroke="#E0E0E0" stroke-width="2" stroke-miterlimit="10"/>
<path d="M312 290.596C312 290.596 325.502 288.509 336.367 292.055" stroke="#E0E0E0" stroke-width="2" stroke-miterlimit="10"/>
<path d="M348.355 271.841C339.183 270.801 327.935 275.55 327.615 275.674" stroke="#E0E0E0" stroke-width="2" stroke-miterlimit="10"/>
<path d="M355.29 251.191C347.849 252.448 340.938 257.469 340.688 257.648" stroke="#E0E0E0" stroke-width="2" stroke-miterlimit="10"/>
<path d="M195 357.526C278.524 357.526 346.234 353.594 346.234 348.742C346.234 343.891 278.524 339.958 195 339.958C111.475 339.958 43.7656 343.891 43.7656 348.742C43.7656 353.594 111.475 357.526 195 357.526Z" fill="#F5F5F5"/>
<path opacity="0.12" d="M182.224 139.323C180.142 138.757 180.103 136.095 180.103 136.095L182.099 136.491C181.99 137.435 182.032 138.391 182.224 139.323Z" fill="black"/>
<path d="M291.923 66.7748V178.643C291.923 180.302 291.261 181.893 290.082 183.066C288.903 184.239 287.304 184.898 285.637 184.898H115.714C114.054 184.887 112.465 184.224 111.296 183.051C110.127 181.879 109.472 180.294 109.474 178.643V66.7748C109.472 65.1234 110.127 63.5384 111.296 62.3663C112.465 61.1942 114.054 60.5305 115.714 60.5202H285.637C286.462 60.5202 287.28 60.682 288.042 60.9963C288.805 61.3107 289.498 61.7714 290.082 62.3522C290.666 62.9329 291.129 63.6224 291.445 64.3813C291.761 65.1401 291.923 65.9534 291.923 66.7748Z" fill="#407BFF"/>
<path opacity="0.7" d="M291.923 66.7748V178.643C291.923 180.302 291.261 181.893 290.082 183.066C288.903 184.239 287.304 184.898 285.637 184.898H115.714C114.054 184.887 112.465 184.224 111.296 183.051C110.127 181.879 109.472 180.294 109.474 178.643V66.7748C109.472 65.1234 110.127 63.5384 111.296 62.3663C112.465 61.1942 114.054 60.5305 115.714 60.5202H285.637C286.462 60.5202 287.28 60.682 288.042 60.9963C288.805 61.3107 289.498 61.7714 290.082 62.3522C290.666 62.9329 291.129 63.6224 291.445 64.3813C291.761 65.1401 291.923 65.9534 291.923 66.7748Z" fill="white" stroke="white" stroke-miterlimit="10"/>
<path d="M281.346 69.9176C282.281 69.9176 283.039 69.1637 283.039 68.2337C283.039 67.3037 282.281 66.5498 281.346 66.5498C280.411 66.5498 279.653 67.3037 279.653 68.2337C279.653 69.1637 280.411 69.9176 281.346 69.9176Z" fill="#407BFF"/>
<path d="M273.257 68.2337C273.259 68.5686 273.16 68.8964 272.974 69.1756C272.789 69.4548 272.524 69.6729 272.213 69.8021C271.902 69.9313 271.56 69.9659 271.23 69.9016C270.9 69.8372 270.596 69.6767 270.357 69.4404C270.119 69.2041 269.956 68.9027 269.89 68.5743C269.823 68.246 269.857 67.9054 269.985 67.5959C270.114 67.2863 270.332 67.0216 270.611 66.8354C270.891 66.6492 271.22 66.5498 271.557 66.5498C272.006 66.5518 272.436 66.7296 272.754 67.0447C273.072 67.3599 273.253 67.787 273.257 68.2337Z" fill="#407BFF"/>
<path d="M263.468 68.2337C263.47 68.5686 263.371 68.8964 263.185 69.1756C263 69.4548 262.734 69.6729 262.424 69.8021C262.113 69.9313 261.771 69.9659 261.441 69.9016C261.11 69.8372 260.807 69.6767 260.568 69.4404C260.33 69.2041 260.167 68.9027 260.101 68.5743C260.034 68.246 260.068 67.9054 260.196 67.5959C260.325 67.2863 260.542 67.0216 260.822 66.8354C261.102 66.6492 261.431 66.5498 261.768 66.5498C262.217 66.5518 262.647 66.7296 262.965 67.0447C263.283 67.3599 263.464 67.787 263.468 68.2337Z" fill="#407BFF"/>
<path d="M278.554 89.4806V201.349C278.544 202.999 277.878 204.578 276.701 205.741C275.525 206.904 273.934 207.557 272.275 207.557H102.344C100.686 207.557 99.0947 206.904 97.9182 205.741C96.7418 204.578 96.0757 202.999 96.0654 201.349V89.4806C96.0654 87.8231 96.7267 86.2334 97.904 85.0607C99.0813 83.8879 100.678 83.2281 102.344 83.226H272.275C273.941 83.2281 275.538 83.8879 276.716 85.0607C277.893 86.2334 278.554 87.8231 278.554 89.4806Z" fill="#407BFF"/>
<path opacity="0.8" d="M278.554 89.4806V201.349C278.544 202.999 277.878 204.578 276.701 205.741C275.525 206.904 273.934 207.557 272.275 207.557H102.344C100.686 207.557 99.0947 206.904 97.9182 205.741C96.7418 204.578 96.0757 202.999 96.0654 201.349V89.4806C96.0654 87.8231 96.7267 86.2334 97.904 85.0607C99.0813 83.8879 100.678 83.2281 102.344 83.226H272.275C273.941 83.2281 275.538 83.8879 276.716 85.0607C277.893 86.2334 278.554 87.8231 278.554 89.4806Z" fill="white"/>
<path d="M278.562 96.3559H237.854V198.695H278.562V96.3559Z" fill="#407BFF"/>
<path opacity="0.2" d="M278.562 96.3559H237.854V198.695H278.562V96.3559Z" fill="black"/>
<path d="M278.562 127.093H237.854V128.397H278.562V127.093Z" fill="#FAFAFA"/>
<path d="M278.562 159.212H237.854V160.516H278.562V159.212Z" fill="#FAFAFA"/>
<path d="M278.562 190.857H237.854V192.161H278.562V190.857Z" fill="#FAFAFA"/>
<path d="M255.606 136.048V151.336L267.213 143.692L255.606 136.048Z" fill="#FAFAFA"/>
<path d="M255.606 168.035V183.33L267.213 175.686L255.606 168.035Z" fill="#FAFAFA"/>
<path d="M255.606 103.495V118.79L267.213 111.139L255.606 103.495Z" fill="#FAFAFA"/>
<path d="M155.75 159.212C155.75 159.212 145.345 174.647 142.1 177.712C142.1 177.712 124.659 179.264 117.483 174.383L115.666 178.814C115.666 178.814 132.233 188.126 143.457 185.852C154.682 183.578 162.957 162.021 162.957 162.021L155.75 159.212Z" fill="#B55B52"/>
<path d="M206.318 150.032C206.318 150.032 216.263 152.74 222.464 153.26C222.464 153.26 227.144 142.45 227.924 132.634L231.45 132.828C231.45 132.828 234.695 151.949 226.185 159.693C220.304 165.055 200.679 155.122 200.679 155.122L206.318 150.032Z" fill="#B55B52"/>
<path d="M178.332 107.864C178.332 107.864 164.853 106.568 163.457 120.233C162.686 128.714 164.064 137.252 167.466 145.065C167.466 145.065 175.617 161.571 185.5 159.274C195.383 156.977 203.76 151.654 202.013 142.745C200.265 133.837 197.013 134.209 197.13 121.793C197.247 109.377 185.539 102.168 178.332 107.864Z" fill="#263238"/>
<path d="M193.042 127.435C191.63 134.287 188.487 137.018 182.122 136.491C182.013 137.435 182.055 138.391 182.247 139.323C182.405 140.44 182.925 141.474 183.727 142.271C184.529 143.068 185.57 143.583 186.693 143.738C192.153 144.677 189.165 151.669 189.165 151.669L183.705 154.339L176.522 150.218L171.062 144.421H172.973C172.973 144.421 176.67 138.857 172.973 129.491C172.164 129.02 171.483 128.361 170.987 127.57C170.491 126.78 170.195 125.881 170.126 124.952C169.97 121.848 173.191 121.661 174.408 122.825C174.408 122.825 179.954 120.42 179.127 111.123C179.127 111.123 184.587 115.205 191.607 114.018C191.599 114.072 194.446 120.575 193.042 127.435Z" fill="#B55B52"/>
<path d="M188.027 121.731L188.098 126.527C188.485 126.675 188.9 126.74 189.314 126.716C189.728 126.692 190.133 126.58 190.5 126.387L188.027 121.731Z" fill="#A02724"/>
<path d="M180.641 116.338C180.594 116.348 180.546 116.348 180.5 116.338C180.47 116.32 180.445 116.296 180.424 116.267C180.404 116.239 180.389 116.207 180.381 116.173C180.373 116.139 180.372 116.104 180.378 116.07C180.383 116.036 180.396 116.003 180.414 115.973C180.777 115.422 181.32 115.013 181.951 114.814C182.581 114.614 183.262 114.637 183.878 114.879C183.911 114.889 183.942 114.907 183.968 114.929C183.995 114.952 184.016 114.98 184.032 115.011C184.047 115.042 184.056 115.076 184.057 115.111C184.059 115.145 184.054 115.18 184.041 115.213C184.018 115.278 183.97 115.332 183.907 115.363C183.845 115.393 183.772 115.398 183.706 115.376C183.205 115.171 182.648 115.146 182.13 115.305C181.612 115.463 181.166 115.795 180.867 116.245C180.839 116.277 180.805 116.303 180.765 116.319C180.726 116.335 180.683 116.342 180.641 116.338Z" fill="#263238"/>
<path d="M192.715 117.82C192.646 117.82 192.58 117.796 192.528 117.75C191.748 117.044 190.391 117.564 190.375 117.572C190.309 117.595 190.236 117.591 190.172 117.563C190.108 117.534 190.058 117.481 190.032 117.417C190.02 117.384 190.014 117.349 190.015 117.314C190.016 117.279 190.024 117.245 190.038 117.213C190.053 117.182 190.074 117.153 190.099 117.129C190.125 117.106 190.155 117.087 190.188 117.075C190.25 117.075 191.896 116.431 192.895 117.362C192.944 117.412 192.972 117.479 192.972 117.548C192.972 117.618 192.944 117.685 192.895 117.735C192.847 117.784 192.783 117.814 192.715 117.82Z" fill="#263238"/>
<path d="M185.976 128.816C185.068 128.854 184.166 128.653 183.36 128.233C182.555 127.814 181.875 127.19 181.39 126.426C181.376 126.381 181.378 126.333 181.396 126.29C181.414 126.247 181.447 126.211 181.488 126.19C181.53 126.168 181.577 126.161 181.623 126.17C181.669 126.179 181.711 126.204 181.741 126.24C182.194 126.941 182.825 127.511 183.569 127.894C184.314 128.276 185.147 128.458 185.984 128.42C186.035 128.42 186.085 128.441 186.122 128.477C186.158 128.513 186.179 128.563 186.179 128.614C186.179 128.668 186.157 128.719 186.119 128.757C186.081 128.795 186.03 128.816 185.976 128.816Z" fill="#263238"/>
<path d="M184.579 120.909C184.579 121.483 184.291 121.948 183.901 121.964C183.511 121.979 183.183 121.522 183.168 120.947C183.152 120.373 183.448 119.908 183.838 119.892C184.228 119.876 184.564 120.334 184.579 120.909Z" fill="#263238"/>
<path d="M191.514 120.971C191.514 121.537 191.225 122.01 190.835 122.026C190.445 122.042 190.117 121.584 190.094 121.009C190.071 120.435 190.383 119.97 190.773 119.954C191.163 119.939 191.498 120.396 191.514 120.971Z" fill="#263238"/>
<path d="M183.729 119.915L185.5 119.411C185.5 119.411 185.18 120.358 183.729 119.915Z" fill="#263238"/>
<path d="M190.772 119.954L192.075 119.768C192.021 119.887 191.938 119.99 191.833 120.069C191.728 120.147 191.605 120.198 191.475 120.217C191.345 120.235 191.213 120.221 191.09 120.175C190.967 120.129 190.858 120.053 190.772 119.954Z" fill="#263238"/>
<path d="M209.687 149.721L203.58 163.1L200.335 161.928C200.335 161.928 200.663 186.217 197.995 198.695H166.249L164.424 165.544L162.762 169.005L151.062 162.471C151.062 162.471 154.3 149.279 159.354 146.951C161.764 145.841 166.904 144.988 172.193 144.437C177.011 143.894 181.86 143.666 186.708 143.754C186.708 143.754 187.208 143.754 188.089 143.754C195.658 144.036 203.056 146.08 209.687 149.721Z" fill="#407BFF"/>
<path d="M227.924 132.634C226.72 130.931 225.92 128.978 225.584 126.923C225.255 124.71 225.461 122.452 226.185 120.334L232.487 120.117L233.267 125.603C233.576 128.15 232.935 130.72 231.465 132.828L227.924 132.634Z" fill="#B55B52"/>
<path d="M117.484 174.383L114.2 168.555L110.206 167.174L107.367 172.45L109.902 175.911C109.902 175.911 113.248 178.736 115.666 178.814L117.484 174.383Z" fill="#B55B52"/>
<path d="M188.051 143.754C187.996 152.119 182.739 161.284 182.739 161.284C178.059 156.791 173.379 147.153 172.154 144.421C176.973 143.878 181.822 143.65 186.67 143.738C186.67 143.738 187.2 143.723 188.051 143.754Z" fill="#B55B52"/>
<path opacity="0.12" d="M162.755 169.005L164.393 160.027L164.424 165.552L162.755 169.005Z" fill="black"/>
<path opacity="0.12" d="M203.596 163.1L198.354 159.212L200.351 161.928L203.596 163.1Z" fill="black"/>
<path d="M169.065 307.56L176.569 315.638L159.159 332.112L152.95 327.72L169.065 307.56Z" fill="#B55B52"/>
<path d="M160.68 331.725C161.102 334.239 161.718 337.04 165.306 341.96C166.086 343.054 164.011 345.103 161.663 342.938C159.315 340.773 155.946 337.374 154.245 335.814C151.476 333.261 150.345 332.415 148.091 330.429C148.056 330.404 148.025 330.376 147.998 330.343C147.89 330.232 147.806 330.1 147.75 329.957C147.694 329.813 147.667 329.659 147.67 329.505C147.674 329.351 147.708 329.198 147.771 329.057C147.834 328.916 147.924 328.789 148.037 328.683L152.974 324.702C153.088 324.613 153.23 324.57 153.374 324.58C153.518 324.59 153.654 324.653 153.754 324.756L160.049 330.545C160.38 330.861 160.601 331.275 160.68 331.725Z" fill="#263238"/>
<path d="M159.736 331.577C159.716 331.547 159.706 331.512 159.706 331.476C159.706 331.44 159.716 331.405 159.736 331.375C159.76 331.359 159.787 331.349 159.815 331.345C159.843 331.341 159.872 331.343 159.9 331.352C160.258 331.468 163.464 332.454 163.8 333.432C163.833 333.522 163.843 333.619 163.827 333.714C163.812 333.809 163.773 333.899 163.714 333.975C163.628 334.1 163.511 334.201 163.374 334.267C163.238 334.334 163.086 334.364 162.934 334.355C162.305 334.225 161.734 333.899 161.304 333.424C160.727 332.856 160.202 332.238 159.736 331.577ZM160.336 331.81C161.405 333.16 162.372 333.967 162.965 333.967C163.066 333.974 163.167 333.954 163.257 333.909C163.348 333.864 163.425 333.795 163.48 333.711C163.498 333.679 163.508 333.643 163.508 333.606C163.508 333.57 163.498 333.533 163.48 333.502C163.43 333.395 163.359 333.299 163.269 333.222C162.373 332.6 161.383 332.123 160.336 331.81Z" fill="#407BFF"/>
<path d="M159.689 331.507C159.681 331.478 159.682 331.448 159.69 331.419C159.698 331.39 159.714 331.365 159.736 331.344C159.791 331.29 161.203 330.002 162.404 330.103C162.763 330.131 163.096 330.298 163.332 330.568C163.667 330.948 163.613 331.22 163.511 331.344C163.067 332.035 160.735 331.95 159.806 331.616L159.744 331.577C159.722 331.557 159.703 331.533 159.689 331.507ZM162.396 330.452C161.583 330.529 160.816 330.867 160.212 331.414C161.242 331.655 162.942 331.585 163.207 331.174C163.207 331.174 163.293 331.042 163.075 330.793L162.997 330.716C162.832 330.563 162.62 330.47 162.396 330.452Z" fill="#407BFF"/>
<path d="M165.656 322.312L175.882 322.164L174.462 347.733L167.107 347.477L165.656 322.312Z" fill="#B55B52"/>
<path d="M176.194 345.848C178.277 347.477 179.314 349.192 185.149 350.457C186.451 350.744 186.49 353.778 183.409 353.755C180.328 353.732 177.044 353.46 174.829 353.46C171.202 353.46 169.822 353.623 166.951 353.623C166.781 353.62 166.613 353.584 166.458 353.516C166.302 353.449 166.161 353.351 166.043 353.23C165.924 353.108 165.832 352.964 165.769 352.807C165.707 352.649 165.677 352.481 165.68 352.312L166.179 345.84C166.187 345.701 166.25 345.571 166.353 345.478C166.457 345.386 166.593 345.337 166.733 345.343L174.993 345.398C175.431 345.418 175.852 345.575 176.194 345.848Z" fill="#263238"/>
<path d="M171.405 189.522C170.516 205.392 191.482 252.829 193.822 269.45C186.6 286.142 167.7 307.42 167.7 307.42L176.655 317.136C176.655 317.136 208.011 289.332 209.641 269.955C210.998 253.387 199.22 191.113 199.22 191.113L171.405 189.522Z" fill="#407BFF"/>
<path d="M171.405 189.522C170.516 205.392 191.482 252.829 193.822 269.45C186.6 286.142 167.7 307.42 167.7 307.42L176.655 317.136C176.655 317.136 208.011 289.332 209.641 269.955C210.998 253.387 199.22 191.113 199.22 191.113L171.405 189.522Z" fill="#263238"/>
<path d="M167.934 305.154L179.65 316.22L176.491 318.191L165.773 308.6L167.934 305.154Z" fill="#407BFF"/>
<path opacity="0.3" d="M178.152 219.647C183.066 234.748 189.369 251.191 192.317 262.42C192.855 250.206 192.442 228.447 183.854 216.636C179.845 211.072 178.262 213.842 178.152 219.647Z" fill="black"/>
<path d="M166.062 189.709C159.97 206.401 164.713 244.083 165.04 271.088C163.215 291.442 165.657 322.304 165.657 322.304L176.655 322.754C176.655 322.754 179.97 286.329 182.232 263.599C184.15 244.463 190.999 190.655 190.999 190.655L166.062 189.709Z" fill="#407BFF"/>
<path d="M165.719 189.127C159.627 205.811 164.713 244.083 165.04 271.088C163.215 291.442 165.656 322.304 165.656 322.304L176.654 322.754C176.654 322.754 179.969 286.328 182.231 263.599C184.15 244.463 190.999 190.655 190.999 190.655L165.719 189.127Z" fill="#263238"/>
<path d="M164.058 319.619L178.316 320.015L177.435 323.957L164.83 324.314L164.058 319.619Z" fill="#407BFF"/>
<path d="M178.947 346.36C178.292 346.988 176.607 346.686 175.609 346.461C175.575 346.45 175.544 346.431 175.52 346.405C175.495 346.379 175.478 346.348 175.469 346.313C175.463 346.281 175.466 346.248 175.479 346.218C175.491 346.187 175.512 346.161 175.539 346.143C175.773 345.98 177.879 344.591 178.791 344.955C178.892 344.998 178.98 345.067 179.046 345.154C179.111 345.241 179.153 345.344 179.166 345.452C179.2 345.585 179.203 345.723 179.176 345.858C179.149 345.992 179.093 346.118 179.01 346.228C179.004 346.278 178.982 346.324 178.947 346.36ZM176.093 346.174C177.387 346.437 178.347 346.399 178.698 346.08C178.772 345.999 178.823 345.899 178.845 345.791C178.867 345.683 178.859 345.571 178.823 345.467C178.823 345.419 178.808 345.371 178.78 345.331C178.752 345.291 178.713 345.26 178.667 345.242C178.206 345.041 176.958 345.654 176.093 346.197V346.174Z" fill="#407BFF"/>
<path d="M175.734 346.399C175.707 346.41 175.678 346.416 175.648 346.416C175.619 346.416 175.59 346.41 175.562 346.399C175.536 346.382 175.514 346.361 175.496 346.335C175.479 346.31 175.467 346.281 175.461 346.251C175.461 346.158 175.336 344.055 176.077 343.357C176.171 343.264 176.286 343.196 176.412 343.156C176.539 343.117 176.672 343.109 176.803 343.132C176.944 343.137 177.081 343.187 177.192 343.275C177.303 343.363 177.382 343.484 177.419 343.621C177.42 343.987 177.349 344.35 177.208 344.688C177.068 345.026 176.861 345.333 176.6 345.592C176.357 345.905 176.064 346.177 175.734 346.399ZM175.796 345.918C176.467 345.367 177.216 344.187 177.083 343.683C177.068 343.616 177.029 343.558 176.972 343.519C176.916 343.48 176.847 343.464 176.779 343.473C176.697 343.458 176.613 343.463 176.534 343.489C176.455 343.514 176.384 343.56 176.327 343.621L176.257 343.698C175.899 344.381 175.74 345.15 175.796 345.918Z" fill="#407BFF"/>
<path d="M173.028 142.606H170.337V158.374H173.028V142.606Z" fill="#FAFAFA"/>
<path d="M166.725 142.606H164.034V158.374H166.725V142.606Z" fill="#FAFAFA"/>
<path d="M180.541 154.108C182.179 147.237 177.907 140.345 171 138.716C164.093 137.086 157.166 141.336 155.528 148.208C153.89 155.08 158.162 161.971 165.069 163.601C171.976 165.23 178.903 160.98 180.541 154.108Z" stroke="#FAFAFA" stroke-width="0.996895" stroke-miterlimit="10"/>
<path d="M278.554 89.4806V96.3559H96.0342V89.4806C96.0342 87.8231 96.6955 86.2334 97.8728 85.0607C99.0501 83.8879 100.647 83.2281 102.313 83.226H272.275C273.941 83.2281 275.538 83.8879 276.716 85.0607C277.893 86.2334 278.554 87.8231 278.554 89.4806Z" fill="#407BFF"/>
<path d="M278.554 198.695V201.349C278.544 202.999 277.878 204.578 276.701 205.741C275.525 206.904 273.934 207.557 272.275 207.557H102.344C100.686 207.557 99.0947 206.904 97.9182 205.741C96.7418 204.578 96.0757 202.999 96.0654 201.349V198.695H278.554Z" fill="#407BFF"/>
<path d="M132.101 93.1976H105.441C104.675 93.1976 103.94 92.8953 103.397 92.3571C102.855 91.8189 102.549 91.0886 102.547 90.3264C102.547 89.5628 102.852 88.8306 103.394 88.2907C103.937 87.7508 104.673 87.4474 105.441 87.4474H132.101C132.481 87.4474 132.857 87.5219 133.208 87.6666C133.56 87.8113 133.879 88.0233 134.147 88.2907C134.416 88.558 134.629 88.8754 134.775 89.2247C134.92 89.574 134.995 89.9483 134.995 90.3264C134.993 91.0886 134.687 91.8189 134.145 92.3571C133.602 92.8953 132.867 93.1976 132.101 93.1976Z" stroke="white" stroke-width="0.5" stroke-miterlimit="10"/>
<path d="M146.578 93.1976H142.678C141.913 93.1976 141.179 92.8951 140.637 92.3566C140.096 91.8182 139.792 91.0879 139.792 90.3264C139.792 89.5642 140.096 88.8331 140.637 88.2934C141.178 87.7537 141.912 87.4495 142.678 87.4474H146.578C147.345 87.4474 148.082 87.7508 148.624 88.2907C149.167 88.8306 149.472 89.5628 149.472 90.3264C149.47 91.0886 149.164 91.8189 148.621 92.3571C148.079 92.8953 147.344 93.1976 146.578 93.1976Z" stroke="white" stroke-width="0.5" stroke-miterlimit="10"/>
<path d="M222.293 99.8867H112.048C105.569 99.8867 100.316 105.112 100.316 111.558V184.067C100.316 190.513 105.569 195.738 112.048 195.738H222.293C228.772 195.738 234.024 190.513 234.024 184.067V111.558C234.024 105.112 228.772 99.8867 222.293 99.8867Z" stroke="white" stroke-width="0.5" stroke-miterlimit="10"/>
<path d="M141.391 108.159H94.2709C90.717 108.159 87.8359 111.025 87.8359 114.561V131.26C87.8359 134.796 90.717 137.662 94.2709 137.662H141.391C144.945 137.662 147.826 134.796 147.826 131.26V114.561C147.826 111.025 144.945 108.159 141.391 108.159Z" fill="#407BFF"/>
<path d="M150.119 113.195V132.595C150.124 133.257 149.997 133.914 149.747 134.528C149.496 135.141 149.126 135.7 148.658 136.17C148.189 136.641 147.632 137.015 147.018 137.271C146.404 137.528 145.746 137.66 145.08 137.662H127.007C121.547 139.54 124.964 147.06 125.081 147.331C124.041 146.977 123.068 146.453 122.202 145.779C118.302 142.675 118.848 137.67 118.848 137.67H95.1599C93.8173 137.67 92.5297 137.14 91.5803 136.195C90.631 135.251 90.0977 133.97 90.0977 132.634V113.234C90.0977 111.898 90.631 110.617 91.5803 109.673C92.5297 108.728 93.8173 108.198 95.1599 108.198H145.08C146.412 108.202 147.689 108.729 148.633 109.665C149.576 110.601 150.11 111.87 150.119 113.195Z" fill="#407BFF"/>
<path opacity="0.2" d="M147.818 113.195V132.595C147.823 133.261 147.695 133.921 147.442 134.537C147.189 135.153 146.816 135.713 146.343 136.184C145.871 136.656 145.309 137.029 144.691 137.283C144.072 137.536 143.409 137.665 142.74 137.662H124.707C120.713 139.028 121.462 143.405 122.203 145.772C118.303 142.668 118.849 137.662 118.849 137.662H92.8903C92.2259 137.662 91.568 137.532 90.9543 137.279C90.3406 137.026 89.783 136.655 89.3136 136.187C88.8441 135.719 88.472 135.164 88.2184 134.553C87.9649 133.942 87.8349 133.287 87.8359 132.626V113.226C87.8349 112.565 87.9649 111.91 88.2184 111.299C88.472 110.688 88.8441 110.133 89.3136 109.665C89.783 109.198 90.3406 108.827 90.9543 108.573C91.568 108.32 92.2259 108.19 92.8903 108.19H142.74C143.404 108.187 144.062 108.314 144.676 108.564C145.291 108.814 145.85 109.181 146.321 109.646C146.793 110.111 147.167 110.664 147.424 111.273C147.681 111.881 147.815 112.535 147.818 113.195Z" fill="white"/>
<path d="M143.146 112.846H92.1963V115.531H143.146V112.846Z" fill="#407BFF"/>
<path d="M143.146 117.774H92.1963V120.458H143.146V117.774Z" fill="#407BFF"/>
<path d="M143.146 122.709H92.1963V125.394H143.146V122.709Z" fill="#407BFF"/>
<path opacity="0.1" d="M143.146 112.846H92.1963V115.531H143.146V112.846Z" fill="black"/>
<path opacity="0.1" d="M143.146 117.774H92.1963V120.458H143.146V117.774Z" fill="black"/>
<path opacity="0.1" d="M143.146 122.709H92.1963V125.394H143.146V122.709Z" fill="black"/>
</svg>
