<svg width="390" height="388" viewBox="0 0 390 388" fill="none" xmlns="http://www.w3.org/2000/svg">
<path d="M390 296.742H0V296.936H390V296.742Z" fill="#EBEBEB"/>
<path d="M350.921 309.228H325.088V309.422H350.921V309.228Z" fill="#EBEBEB"/>
<path d="M258.351 311.339H251.573V311.533H258.351V311.339Z" fill="#EBEBEB"/>
<path d="M324.308 302.027H309.34V302.221H324.308V302.027Z" fill="#EBEBEB"/>
<path d="M74.6071 303.331H40.9189V303.525H74.6071V303.331Z" fill="#EBEBEB"/>
<path d="M86.494 303.331H81.5566V303.525H86.494V303.331Z" fill="#EBEBEB"/>
<path d="M175.617 306.605H102.547V306.799H175.617V306.605Z" fill="#EBEBEB"/>
<path d="M184.86 262.133H34.2497C33.0698 262.131 31.939 261.663 31.1054 260.832C30.2719 260.002 29.8037 258.876 29.8037 257.702V47.0722C29.814 45.9051 30.2867 44.7892 31.1191 43.9668C31.9516 43.1444 33.0766 42.682 34.2497 42.68H184.86C186.041 42.68 187.174 43.1468 188.009 43.9778C188.844 44.8088 189.314 45.9358 189.314 47.111V257.702C189.314 258.877 188.844 260.004 188.009 260.835C187.174 261.666 186.041 262.133 184.86 262.133ZM34.2497 42.8352C33.1216 42.8373 32.0403 43.2846 31.2433 44.0789C30.4463 44.8733 29.9987 45.9498 29.9987 47.0722V257.702C29.9987 258.824 30.4463 259.901 31.2433 260.695C32.0403 261.489 33.1216 261.937 34.2497 261.939H184.86C185.989 261.937 187.071 261.49 187.869 260.696C188.667 259.901 189.117 258.825 189.119 257.702V47.0722C189.117 45.9491 188.667 44.8726 187.869 44.0784C187.071 43.2843 185.989 42.8373 184.86 42.8352H34.2497Z" fill="#EBEBEB"/>
<path d="M353.582 262.133H202.964C201.783 262.131 200.651 261.663 199.817 260.833C198.982 260.002 198.512 258.876 198.51 257.702V47.0722C198.522 45.9044 198.997 44.7885 199.83 43.9663C200.664 43.1441 201.79 42.682 202.964 42.68H353.582C354.753 42.684 355.876 43.1473 356.707 43.9695C357.538 44.7917 358.01 45.9064 358.02 47.0722V257.702C358.02 258.874 357.553 259.999 356.721 260.83C355.889 261.66 354.76 262.129 353.582 262.133ZM202.964 42.8352C201.835 42.8373 200.753 43.2843 199.954 44.0784C199.156 44.8726 198.707 45.9491 198.705 47.0722V257.702C198.707 258.825 199.156 259.901 199.954 260.696C200.753 261.49 201.835 261.937 202.964 261.939H353.582C354.71 261.937 355.792 261.49 356.591 260.696C357.389 259.901 357.838 258.825 357.84 257.702V47.0722C357.838 45.9491 357.389 44.8726 356.591 44.0784C355.792 43.2843 354.71 42.8373 353.582 42.8352H202.964Z" fill="#EBEBEB"/>
<path d="M47.4706 152.787H104.66L104.66 58.7122H47.4706L47.4706 152.787Z" fill="#F5F5F5"/>
<path d="M47.463 58.7044H46.332V152.779H47.463V58.7044Z" fill="#E0E0E0"/>
<path d="M53.2742 148.643H98.8652L98.8652 62.8482H53.2742L53.2742 148.643Z" fill="#FAFAFA"/>
<path d="M118.154 185.805H175.344V91.731H118.154L118.154 185.805Z" fill="#F5F5F5"/>
<path d="M118.154 91.7387H117.023V185.813H118.154V91.7387Z" fill="#E0E0E0"/>
<path d="M123.958 181.669H169.549V95.8748H123.958V181.669Z" fill="#FAFAFA"/>
<path d="M81.276 272.43C82.6956 246.822 78.936 205.694 74.8722 191.424C74.334 189.538 73.7256 187.35 72.7974 187.063C70.1454 186.224 68.952 190.361 69.2796 191.788C70.8396 198.664 72.2982 215.728 73.7256 245.41C74.4354 260.154 73.7256 270.304 75.6288 272.438L81.276 272.43Z" fill="#E6E6E6"/>
<path d="M77.0487 215.356C80.7771 203.366 128.529 191.051 114.762 203.948C111.337 207.161 95.3943 215.627 88.8501 224.528C83.7645 231.442 78.6243 243.074 77.2671 249.523C76.6743 235.958 74.5683 223.348 77.0487 215.356Z" fill="#E6E6E6"/>
<path d="M82.4848 230.557C90.7996 212.314 117.39 209.039 110.245 218.669C107.437 222.448 97.141 226.763 90.589 235.663C85.5034 242.578 80.3632 254.202 79.0138 260.658C78.4132 247.086 79.0138 238.178 82.4848 230.557Z" fill="#E6E6E6"/>
<path d="M72.0329 229.005C62.1893 205.539 26.6291 203.669 36.0905 214.572C39.6863 218.723 52.2521 226.32 61.7447 236.114C69.1235 243.718 77.4383 256.29 80.2697 263.274C78.4367 248.879 76.0031 238.473 72.0329 229.005Z" fill="#E6E6E6"/>
<path d="M76.1667 202.746C84.9807 186.675 111.657 184.952 104.036 193.744C101.049 197.205 91.3299 201.589 84.9807 210.226C80.0433 216.931 74.1153 225.684 72.7971 231.954C72.2199 218.778 72.2589 209.877 76.1667 202.746Z" fill="#E6E6E6"/>
<path d="M68.492 203.064C61.5422 193.069 30.4202 182.081 38.501 191.129C47.0108 200.619 53.0558 198.99 61.121 207.277C67.361 213.718 74.381 224.396 76.799 230.247C75.2312 218.056 73.4684 210.203 68.492 203.064Z" fill="#E6E6E6"/>
<path d="M76.7517 191.556C81.1665 183.656 99.3717 177.844 94.6215 183.904C91.3065 188.11 87.3285 190.997 83.1087 196.724C79.8405 201.178 75.3945 206.773 74.5287 210.925C74.1387 202.195 74.0997 196.266 76.7517 191.556Z" fill="#E6E6E6"/>
<path d="M69.568 193.946C65.122 189.041 41.3398 177.401 46.7998 184.874C48.9292 187.815 58.0006 194.962 64.108 201.279C68.8582 206.168 74.0686 210.156 75.886 214.603C74.6848 205.361 74.0218 198.842 69.568 193.946Z" fill="#E6E6E6"/>
<path d="M75.66 211.157C69.1626 204.003 21.7932 194.784 33.969 202.683C38.1342 205.384 56.4486 210.024 65.3796 219.235C72.3138 226.382 74.8098 238.24 77.4696 244.735C84.474 233.32 82.1652 218.32 75.66 211.157Z" fill="#E6E6E6"/>
<path d="M67.5484 271.39L68.1568 292.8C68.2192 296.867 69.1708 296.742 70.3252 296.742H85.6366C86.7832 296.742 87.7348 296.867 87.805 292.8L88.4134 271.39C88.4836 266.983 87.493 263.266 86.245 263.266H69.7168C68.4688 263.266 67.4782 266.983 67.5484 271.39Z" fill="#F5F5F5"/>
<path d="M66.6351 267.169H89.3253C89.4741 267.178 89.6212 267.134 89.7399 267.044C89.8587 266.954 89.9412 266.825 89.9727 266.68L90.5109 262.583C90.5146 262.499 90.5001 262.415 90.4684 262.337C90.4368 262.258 90.3887 262.188 90.3273 262.13C90.266 262.072 90.1928 262.027 90.1128 262C90.0328 261.972 89.9478 261.962 89.8635 261.97H66.0891C66.005 261.963 65.9205 261.974 65.8411 262.002C65.7616 262.031 65.689 262.075 65.6279 262.133C65.5669 262.191 65.5187 262.261 65.4866 262.338C65.4545 262.416 65.4392 262.499 65.4417 262.583L65.9799 266.68C66.0129 266.826 66.097 266.955 66.2171 267.045C66.3371 267.134 66.4853 267.178 66.6351 267.169Z" fill="#F5F5F5"/>
<path d="M226.879 176.587H209.703V291.559H226.879V176.587Z" fill="#F0F0F0"/>
<path d="M343.2 291.559H213.002V296.742H343.2V291.559Z" fill="#F0F0F0"/>
<path d="M226.878 291.559H346.499V176.587H226.878V291.559Z" fill="#F5F5F5"/>
<path d="M225.1 172.062H207.542V176.587H225.1V172.062Z" fill="#F0F0F0"/>
<path d="M225.1 176.587L348.66 176.587V172.062L225.1 172.062V176.587Z" fill="#FAFAFA"/>
<path d="M340.236 230.868H233.142V186.162H340.236V230.868ZM234.156 229.89H339.253V187.14H234.124L234.156 229.89Z" fill="#E0E0E0"/>
<path d="M340.236 281.983H233.142V237.898H340.236V281.983ZM234.156 281.005H339.253V238.876H234.124L234.156 281.005Z" fill="#E0E0E0"/>
<path d="M307.539 194.954H265.84C265.35 194.952 264.881 194.758 264.535 194.414C264.189 194.069 263.993 193.602 263.991 193.115C263.993 192.628 264.189 192.162 264.535 191.817C264.881 191.473 265.35 191.278 265.84 191.276H307.539C308.028 191.278 308.497 191.473 308.843 191.817C309.19 192.162 309.385 192.628 309.387 193.115C309.385 193.602 309.19 194.069 308.843 194.414C308.497 194.758 308.028 194.952 307.539 194.954Z" fill="#E0E0E0"/>
<path d="M307.546 243.012H265.84C264.819 243.012 263.991 243.836 263.991 244.851C263.991 245.867 264.819 246.69 265.84 246.69H307.546C308.567 246.69 309.395 245.867 309.395 244.851C309.395 243.836 308.567 243.012 307.546 243.012Z" fill="#E0E0E0"/>
<path d="M281.12 172.016H330.728L334.753 128.009H285.145L281.12 172.016Z" fill="#E6E6E6"/>
<path d="M279.435 172.016H329.043L333.067 128.009H283.459L279.435 172.016Z" fill="#F0F0F0"/>
<path d="M324.59 167.143L327.725 132.882H287.914L284.778 167.143H324.59Z" fill="white"/>
<path d="M269.63 139.882L266.689 172.016H290.464L293.404 139.882H269.63Z" fill="#E6E6E6"/>
<path d="M268.398 139.882L265.457 172.016H289.231L292.172 139.882H268.398Z" fill="#F0F0F0"/>
<path d="M271.651 143.436L269.357 168.462H285.987L288.272 143.436H271.651Z" fill="white"/>
<path d="M195 331.787C278.524 331.787 346.234 327.854 346.234 323.002C346.234 318.151 278.524 314.218 195 314.218C111.475 314.218 43.7656 318.151 43.7656 323.002C43.7656 327.854 111.475 331.787 195 331.787Z" fill="#F5F5F5"/>
<path d="M231.13 88.2467C230.412 86.4375 229.334 84.7912 227.961 83.4068C226.588 82.0224 224.947 80.9285 223.139 80.1906C221.33 79.4528 219.389 79.0863 217.435 79.1132C215.48 79.1401 213.55 79.5598 211.763 80.347C205.117 83.2648 201.513 91.7465 204.017 98.521C205.268 101.941 207.777 104.762 211.037 106.413C212.393 107.059 213.544 108.067 214.36 109.323L216.419 112.598C217.095 113.669 218.125 114.473 219.333 114.87C220.541 115.266 221.849 115.231 223.034 114.77L228.228 112.73C229.41 112.261 230.39 111.397 231 110.286C231.609 109.175 231.81 107.888 231.567 106.646L230.787 102.719C230.537 101.329 230.68 99.897 231.2 98.583C232.468 95.2485 232.443 91.564 231.13 88.2467Z" fill="#407BFF"/>
<path d="M223.719 121.304C223.386 121.303 223.057 121.235 222.752 121.103C222.458 120.979 222.192 120.798 221.97 120.57C221.747 120.342 221.573 120.072 221.457 119.776C221.229 119.184 221.245 118.526 221.5 117.945C221.756 117.364 222.231 116.907 222.822 116.672L229.71 113.963C230.305 113.735 230.966 113.749 231.551 114.003C232.135 114.258 232.595 114.731 232.83 115.321C232.953 115.614 233.017 115.928 233.017 116.245C233.017 116.562 232.953 116.876 232.83 117.168C232.573 117.756 232.094 118.219 231.496 118.456L224.64 121.134C224.348 121.252 224.035 121.31 223.719 121.304ZM230.599 114.545C230.393 114.544 230.189 114.584 229.998 114.662L223.08 117.37C222.776 117.487 222.514 117.691 222.327 117.956C222.14 118.222 222.037 118.537 222.032 118.861C222.026 119.185 222.117 119.504 222.294 119.776C222.471 120.048 222.726 120.261 223.025 120.389C223.225 120.473 223.44 120.517 223.657 120.517C223.874 120.517 224.089 120.473 224.289 120.389L231.176 117.688C231.377 117.608 231.559 117.49 231.713 117.339C231.867 117.189 231.989 117.009 232.073 116.811C232.16 116.614 232.205 116.402 232.205 116.187C232.205 115.972 232.16 115.759 232.073 115.562C231.949 115.252 231.733 114.987 231.455 114.802C231.176 114.616 230.848 114.519 230.513 114.522L230.599 114.545Z" fill="#263238"/>
<path d="M227.23 125.479C227.021 125.477 226.815 125.435 226.622 125.355C226.265 125.186 225.987 124.89 225.842 124.525L225.725 124.222C225.651 124.039 225.615 123.843 225.618 123.645C225.621 123.448 225.664 123.253 225.743 123.072C225.822 122.891 225.936 122.728 226.079 122.591C226.222 122.454 226.39 122.346 226.575 122.274L230.873 120.583C231.247 120.447 231.659 120.46 232.024 120.617C232.39 120.774 232.681 121.065 232.838 121.428L232.955 121.731C233.099 122.102 233.09 122.514 232.931 122.878C232.772 123.243 232.475 123.53 232.105 123.679L227.76 125.371C227.592 125.439 227.412 125.476 227.23 125.479ZM231.403 121.25C231.312 121.253 231.222 121.271 231.138 121.304L226.84 122.996C226.751 123.03 226.669 123.082 226.6 123.148C226.53 123.214 226.475 123.292 226.437 123.38C226.398 123.467 226.378 123.561 226.376 123.656C226.374 123.752 226.391 123.846 226.427 123.935L226.544 124.238C226.579 124.327 226.632 124.408 226.698 124.477C226.765 124.546 226.845 124.601 226.934 124.639C227.022 124.678 227.117 124.698 227.214 124.7C227.31 124.701 227.406 124.684 227.495 124.649L231.793 122.957C231.883 122.922 231.965 122.87 232.035 122.803C232.104 122.737 232.16 122.657 232.199 122.569C232.235 122.482 232.254 122.388 232.254 122.294C232.254 122.199 232.235 122.106 232.199 122.018L232.082 121.716C232.023 121.583 231.929 121.469 231.809 121.386C231.689 121.304 231.549 121.257 231.403 121.25Z" fill="#263238"/>
<path d="M214.429 102.013C213.897 102.014 213.375 101.871 212.919 101.598C212.463 101.326 212.09 100.935 211.841 100.468C211.591 100.001 211.475 99.4746 211.503 98.9462C211.532 98.4179 211.705 97.9073 212.003 97.4694C212.302 97.0315 212.715 96.6828 213.198 96.461C213.681 96.2392 214.215 96.1526 214.744 96.2104C215.273 96.2683 215.775 96.4685 216.198 96.7895C216.621 97.1105 216.948 97.5401 217.144 98.0321L218.22 100.74L215.498 101.803C215.159 101.941 214.796 102.012 214.429 102.013ZM214.429 96.969C214.112 96.9656 213.798 97.0323 213.51 97.1643C213.222 97.2963 212.966 97.4903 212.763 97.7322C212.559 97.9742 212.411 98.2581 212.331 98.5636C212.251 98.869 212.24 99.1883 212.299 99.4985C212.358 99.8087 212.485 100.102 212.671 100.357C212.858 100.613 213.099 100.824 213.378 100.975C213.656 101.127 213.965 101.215 214.281 101.233C214.598 101.252 214.915 101.2 215.209 101.082L217.206 100.306L216.426 98.327C216.265 97.931 215.987 97.5926 215.63 97.3559C215.272 97.1192 214.851 96.9952 214.422 97L214.429 96.969Z" fill="white"/>
<path d="M223.057 115.034L217.215 100.298L222.589 98.1873L228.431 112.924L227.706 113.211L222.144 99.1961L218.221 100.74L223.782 114.747L223.057 115.034Z" fill="white"/>
<path d="M222.144 99.1961L221.075 96.4878C220.862 95.9524 220.814 95.3662 220.936 94.8034C221.058 94.2406 221.345 93.7265 221.761 93.3261C222.177 92.9257 222.703 92.657 223.272 92.5541C223.842 92.4512 224.429 92.5187 224.96 92.748C225.491 92.9773 225.941 93.3581 226.255 93.8423C226.568 94.3264 226.73 94.8921 226.72 95.4678C226.71 96.0435 226.528 96.6033 226.198 97.0763C225.868 97.5494 225.405 97.9144 224.866 98.1252L222.144 99.1961ZM223.79 93.283C223.522 93.2866 223.258 93.3392 223.01 93.4382C222.747 93.5408 222.508 93.6941 222.306 93.8891C222.103 94.0842 221.941 94.3171 221.83 94.5746C221.718 94.8321 221.659 95.1091 221.655 95.3895C221.651 95.6699 221.704 95.9482 221.808 96.2085L222.588 98.1873L224.577 97.4113C225.042 97.2298 225.429 96.8926 225.671 96.4579C225.913 96.0231 225.994 95.5181 225.902 95.0298C225.81 94.5415 225.549 94.1006 225.165 93.7831C224.78 93.4657 224.297 93.2915 223.797 93.2907L223.79 93.283Z" fill="white"/>
<path d="M234.257 136.18C231.328 136.184 228.404 135.948 225.514 135.474L225.646 134.698C228.482 135.164 231.352 135.397 234.226 135.396L234.257 136.18Z" fill="#407BFF"/>
<path d="M250.38 144.22L250.793 143.382C252.232 140.195 252.521 136.613 251.612 133.239C248.578 134.321 245.442 135.101 242.252 135.567L242.135 134.791C245.405 134.305 248.615 133.483 251.714 132.339L252.104 132.199L252.221 132.587C253.211 135.955 253.082 139.55 251.854 142.838C261.44 139.044 271.448 125.572 271.448 109.525C271.448 95.2773 254.748 83.6838 234.218 83.6838C213.689 83.6838 196.997 95.2773 196.997 109.525C196.997 119.884 205.865 129.22 219.617 133.301L219.391 134.077C205.351 129.895 196.24 120.272 196.24 109.556C196.24 94.8815 213.291 82.9389 234.242 82.9389C255.193 82.9389 272.251 94.8815 272.251 109.556C272.251 126.426 261.331 140.526 251.269 143.917L250.38 144.22Z" fill="#407BFF"/>
<path d="M272.034 89.4915L246.05 94.1101C244.184 94.4418 242.942 96.2155 243.276 98.0718L246.041 113.472C246.375 115.328 248.157 116.564 250.023 116.233L276.007 111.614C277.873 111.282 279.115 109.509 278.782 107.652L276.016 92.2521C275.683 90.3958 273.9 89.1598 272.034 89.4915Z" fill="#407BFF"/>
<path d="M265.793 102.036L256.589 98.7305L258.313 108.306L265.793 102.036Z" fill="white"/>
<path d="M167.903 230.216H101.635C100.26 230.216 99.1465 231.324 99.1465 232.691V236.207C99.1465 237.574 100.26 238.682 101.635 238.682H167.903C169.278 238.682 170.392 237.574 170.392 236.207V232.691C170.392 231.324 169.278 230.216 167.903 230.216Z" fill="#407BFF"/>
<path d="M167.154 318.346H169.128L166.858 238.682H164.12L167.154 318.346Z" fill="#407BFF"/>
<path opacity="0.3" d="M167.154 318.346H169.128L166.858 238.682H164.12L167.154 318.346Z" fill="white"/>
<path d="M148.957 318.346H146.983L149.261 238.682H151.991L148.957 318.346Z" fill="#407BFF"/>
<path opacity="0.3" d="M148.957 318.346H146.983L149.261 238.682H151.991L148.957 318.346Z" fill="white"/>
<path d="M120.58 318.346H122.561L120.284 238.682H117.546L120.58 318.346Z" fill="#407BFF"/>
<path opacity="0.3" d="M120.58 318.346H122.561L120.284 238.682H117.546L120.58 318.346Z" fill="white"/>
<path d="M102.39 318.346H100.409L102.687 238.682H105.417L102.39 318.346Z" fill="#407BFF"/>
<path opacity="0.3" d="M102.39 318.346H100.409L102.687 238.682H105.417L102.39 318.346Z" fill="white"/>
<path d="M188.222 298.1L195.258 295.734L189.47 279.391L182.442 281.758L188.222 298.1Z" fill="#FFA8A7"/>
<path d="M194.735 293.033L187.029 296.432C186.965 296.454 186.907 296.49 186.858 296.537C186.81 296.583 186.772 296.64 186.748 296.703C186.723 296.766 186.713 296.833 186.717 296.9C186.721 296.967 186.74 297.032 186.771 297.092L189.696 303.005C189.88 303.315 190.169 303.549 190.511 303.664C190.853 303.78 191.226 303.769 191.561 303.633C194.22 302.415 195.414 301.709 198.807 300.227C200.897 299.319 205.102 297.697 207.707 296.028C210.312 294.36 208.268 291.954 206.989 292.436C203.955 293.584 198.908 293.538 196.147 292.948C195.679 292.831 195.186 292.86 194.735 293.033Z" fill="#263238"/>
<path opacity="0.2" d="M182.442 281.766L189.478 279.391L192.777 288.742L185.625 290.775L182.442 281.766Z" fill="black"/>
<path d="M138.388 208.115C138.388 208.115 173.488 214.417 176.319 225.886C181.88 248.561 194.423 284.024 194.423 284.024L181.069 287.904C181.069 287.904 161.975 247.234 159.572 233.545C139.877 233.545 115.892 235.097 112.772 226.809C110.035 219.453 111.01 208.146 111.01 208.146L138.388 208.115Z" fill="#263238"/>
<path d="M180.336 290.224L195.936 285.102L194.603 278.095L177.591 284.055L180.336 290.224Z" fill="#407BFF"/>
<path d="M157.646 300.584L165.415 301.173L160.852 282.099L153.605 283.729L157.646 300.584Z" fill="#FFA8A7"/>
<path d="M165.219 299.311L156.85 298.388C156.783 298.375 156.713 298.377 156.647 298.394C156.581 298.411 156.519 298.442 156.465 298.484C156.412 298.527 156.369 298.581 156.338 298.642C156.308 298.703 156.291 298.77 156.288 298.838L155.852 305.418C155.866 305.774 156.004 306.114 156.241 306.381C156.478 306.648 156.801 306.826 157.154 306.885C160.064 307.156 161.46 307.133 165.141 307.537C167.403 307.785 171.865 308.476 174.962 308.313C178.058 308.15 177.497 305.053 176.139 304.844C172.934 304.324 168.597 301.779 166.499 299.893C166.144 299.57 165.697 299.366 165.219 299.311Z" fill="#263238"/>
<path opacity="0.2" d="M153.605 283.737L160.852 282.107L163.153 291.745L155.828 293.025L153.605 283.737Z" fill="black"/>
<path d="M120.12 208.115C120.12 208.115 162.794 214.471 160.836 230.542C158.02 253.713 165.251 287.229 165.251 287.229L151.562 289.665C151.562 289.665 141.5 248.01 141.422 234.111C127.538 234.111 103.28 235.097 100.176 226.778C97.4378 219.422 98.4129 208.115 98.4129 208.115H120.12Z" fill="#263238"/>
<path d="M150.619 291.931L166.679 288.455L166.086 281.354L148.536 285.506L150.619 291.931Z" fill="#407BFF"/>
<path d="M142.631 163.457C143.769 167.895 144.885 172.373 145.977 176.835C147.069 181.297 148.137 185.767 149.268 190.174L150.119 193.457L150.555 195.071L150.782 195.847V195.948V195.994C150.782 195.994 150.782 195.924 150.743 195.893C150.684 195.735 150.611 195.581 150.524 195.436L150.407 195.257L150.321 195.141L150.165 194.97C150.002 194.815 149.978 194.838 150.017 194.877C150.101 194.963 150.196 195.039 150.298 195.102C150.641 195.332 151.001 195.537 151.374 195.715C152.217 196.126 153.2 196.491 154.206 196.894C158.262 198.392 162.739 199.665 167.091 201.038L166.405 205.989C164.01 206.017 161.615 205.924 159.229 205.71C156.801 205.511 154.387 205.174 151.998 204.701C150.716 204.453 149.45 204.127 148.208 203.723C147.491 203.495 146.79 203.221 146.109 202.901C145.691 202.707 145.287 202.484 144.9 202.233C144.363 201.892 143.868 201.488 143.426 201.031C143.286 200.875 143.153 200.728 142.997 200.526L142.779 200.231L142.56 199.867C142.4 199.594 142.261 199.308 142.147 199.013L142.022 198.656L141.718 197.802L141.133 196.111C140.751 194.986 140.353 193.86 140.033 192.743C138.621 188.258 137.334 183.796 136.133 179.303C134.932 174.81 133.793 170.324 132.748 165.777L142.631 163.457Z" fill="#FFA8A7"/>
<path d="M131.665 158.087C135.947 153.338 142.733 156.659 145.595 167.29C146.984 172.458 146.547 175.159 146.547 175.159L131.774 179.691C128.599 172.707 125.838 164.559 131.665 158.087Z" fill="#407BFF"/>
<g opacity="0.2">
<path d="M131.665 158.087C135.947 153.338 142.733 156.659 145.595 167.29C146.984 172.458 146.547 175.159 146.547 175.159L131.774 179.691C128.599 172.707 125.838 164.559 131.665 158.087Z" fill="black"/>
</g>
<path d="M174.837 199.044L173.511 198.64C172.708 198.399 171.864 198.322 171.031 198.415L168.184 198.749C167.266 198.966 166.405 199.373 165.656 199.944C164.907 200.515 164.288 201.237 163.839 202.063L162.872 203.941C163.356 207.402 170.407 206.269 170.407 206.269H177.06L176.842 201.566C176.808 200.992 176.598 200.442 176.239 199.99C175.881 199.539 175.391 199.209 174.837 199.044Z" fill="#FFA8A7"/>
<path d="M179.4 191.47C179.211 192.745 178.671 193.943 177.84 194.931C177.13 195.963 176.397 196.988 175.656 198.035C174.166 200.061 172.645 202.055 170.976 203.956C170.903 204.038 170.802 204.091 170.693 204.105C170.583 204.118 170.473 204.091 170.382 204.029C170.29 203.967 170.225 203.875 170.198 203.768C170.171 203.662 170.184 203.549 170.235 203.452C171.389 201.201 172.692 199.06 174.026 196.933C174.696 195.873 175.383 194.82 176.085 193.775C176.691 192.632 177.6 191.677 178.713 191.012C178.796 190.962 178.891 190.936 178.987 190.937C179.084 190.938 179.178 190.966 179.26 191.018C179.341 191.07 179.406 191.143 179.447 191.23C179.489 191.317 179.505 191.414 179.493 191.509L179.4 191.47Z" fill="#263238"/>
<path d="M132.655 153.485L124.333 151.157L113.623 150.66C111.999 150.585 110.395 151.042 109.058 151.961C107.72 152.881 106.723 154.213 106.221 155.751C104.177 161.959 102.321 170.898 100.933 178.635C99.2852 188.379 98.4478 198.242 98.4287 208.123H138.388C139.207 186.046 141.82 175.26 143.365 167.445C143.818 165.13 143.485 162.731 142.419 160.624C141.353 158.517 139.614 156.822 137.476 155.805L132.655 153.485Z" fill="#407BFF"/>
<path d="M121.493 155.037C122.507 157.629 126.431 163.17 130.994 165.335C133.529 163.511 134.075 159.53 134.457 157.668L121.493 155.037Z" fill="white"/>
<path d="M134.457 157.668C134.753 156.643 134.629 155.544 134.113 154.61C133.466 153.601 133.63 152.445 134.277 151.258C134.791 150.312 135.434 149.443 136.188 148.674L130.954 142.582L126.688 137.662C126.321 142.264 125.962 147.968 122.312 151.537C121.025 152.802 120.752 153.182 121.493 155.037C122.507 157.629 126.173 161.245 130.697 163.41C131.677 162.751 132.514 161.903 133.16 160.917C133.806 159.931 134.247 158.826 134.457 157.668Z" fill="#FFA8A7"/>
<path opacity="0.2" d="M134.581 147.626L131.625 142.854C131.57 142.978 131.5 143.11 131.43 143.25C131.164 143.84 130.95 144.453 130.79 145.081C130.252 147.199 132.062 150.226 134.043 151.669C134.129 151.537 134.199 151.398 134.277 151.258C134.782 150.362 135.38 149.522 136.063 148.751C136.102 148.722 136.144 148.696 136.188 148.674L134.581 147.626Z" fill="black"/>
<path d="M144.909 136.219C145.595 140.619 151.929 129.297 148.388 126.814C144.066 123.772 143.614 127.846 144.909 136.219Z" fill="#263238"/>
<path d="M126.882 130.477C126.477 137.624 125.861 141.775 129.16 145.904C134.121 152.112 143.645 150.063 146.273 143.226C148.613 137.065 148.902 126.418 141.999 122.647C135.096 118.875 127.288 123.337 126.882 130.477Z" fill="#FFA8A7"/>
<path d="M141.04 126.185C141.04 126.185 145.634 130.671 148.91 128.816C152.186 126.961 152.849 122.158 148.91 117.952C147.014 115.927 144.144 113.948 138.512 114.072C138.957 114.503 139.489 114.833 140.072 115.042C140.072 115.042 132.928 113.855 127.951 115.896C128.35 116.492 128.884 116.987 129.511 117.339C124.667 116.974 119.956 118.891 123.271 123.415C118.88 123.842 117.897 129.429 120.237 133.115C122.577 136.801 122.99 139.564 126.118 141.24C126.118 136.219 127.28 135.032 127.28 135.032C129.535 134.077 132.132 129.297 131.609 126.884C136.43 128.816 141.57 129.452 141.04 126.185Z" fill="#263238"/>
<path d="M124.426 123.252C122.897 122.168 121.71 120.675 121.001 118.945C120.44 121.444 123.037 124.292 123.037 124.292L124.426 123.252Z" fill="#263238"/>
<path d="M123.294 134.38C123.348 136.016 123.993 137.579 125.112 138.78C126.602 140.332 128.63 139.013 129.012 137.018C129.324 135.226 128.559 132.486 126.672 131.679C124.784 130.872 123.24 132.378 123.294 134.38Z" fill="#FFA8A7"/>
<path d="M138.646 134.163C138.529 134.752 138.739 135.303 139.121 135.396C139.504 135.49 139.901 135.086 140.034 134.496C140.167 133.907 139.94 133.356 139.558 133.262C139.176 133.169 138.763 133.581 138.646 134.163Z" fill="#263238"/>
<path d="M145.275 135.738C145.151 136.328 145.369 136.871 145.751 136.964C146.133 137.057 146.531 136.654 146.664 136.064C146.796 135.474 146.562 134.923 146.18 134.838C145.798 134.752 145.392 135.148 145.275 135.738Z" fill="#263238"/>
<path d="M143.068 135.691C143.241 137.382 143.639 139.041 144.254 140.627C143.162 141.178 141.789 140.347 141.789 140.347L143.068 135.691Z" fill="#ED847E"/>
<path d="M140.564 143.645C139.877 143.502 139.226 143.222 138.651 142.822C138.076 142.422 137.588 141.91 137.218 141.317C137.203 141.297 137.192 141.273 137.187 141.249C137.182 141.224 137.182 141.198 137.188 141.174C137.194 141.149 137.204 141.126 137.22 141.106C137.235 141.085 137.254 141.069 137.277 141.056C137.299 141.044 137.323 141.037 137.349 141.035C137.374 141.033 137.4 141.036 137.424 141.045C137.447 141.053 137.469 141.067 137.488 141.084C137.506 141.102 137.52 141.123 137.53 141.147C137.943 141.78 138.497 142.311 139.149 142.698C139.8 143.086 140.533 143.32 141.289 143.382C141.312 143.382 141.335 143.388 141.355 143.398C141.376 143.408 141.394 143.422 141.409 143.44C141.424 143.458 141.434 143.478 141.441 143.5C141.447 143.522 141.449 143.545 141.445 143.568C141.444 143.591 141.439 143.614 141.429 143.634C141.418 143.655 141.404 143.674 141.387 143.689C141.369 143.704 141.349 143.716 141.327 143.723C141.305 143.73 141.281 143.733 141.258 143.731C141.025 143.716 140.793 143.687 140.564 143.645Z" fill="#263238"/>
<path d="M137.772 131.788C137.718 131.766 137.669 131.732 137.632 131.687C137.573 131.615 137.545 131.522 137.553 131.429C137.562 131.337 137.607 131.251 137.678 131.191C138.101 130.828 138.606 130.575 139.151 130.453C139.695 130.331 140.261 130.344 140.798 130.492C140.887 130.522 140.961 130.586 141.002 130.669C141.044 130.753 141.051 130.85 141.021 130.938C140.991 131.027 140.927 131.1 140.842 131.141C140.758 131.183 140.661 131.189 140.572 131.16C140.149 131.053 139.706 131.049 139.281 131.149C138.856 131.249 138.461 131.45 138.131 131.734C138.082 131.774 138.022 131.801 137.959 131.811C137.896 131.82 137.831 131.812 137.772 131.788Z" fill="#263238"/>
<path d="M146.095 131.92C146.083 131.864 146.083 131.806 146.095 131.749C146.122 131.66 146.182 131.585 146.263 131.539C146.345 131.493 146.44 131.479 146.531 131.501C147.069 131.643 147.563 131.914 147.971 132.29C148.379 132.666 148.688 133.136 148.871 133.658C148.884 133.703 148.889 133.749 148.884 133.795C148.878 133.841 148.864 133.885 148.842 133.926C148.819 133.966 148.789 134.002 148.752 134.03C148.716 134.059 148.674 134.08 148.63 134.093C148.585 134.106 148.538 134.11 148.492 134.105C148.446 134.1 148.401 134.086 148.361 134.063C148.32 134.041 148.284 134.011 148.256 133.974C148.227 133.938 148.205 133.897 148.193 133.852C148.043 133.444 147.794 133.078 147.469 132.787C147.144 132.496 146.753 132.289 146.329 132.184C146.271 132.162 146.219 132.127 146.178 132.081C146.137 132.035 146.109 131.98 146.095 131.92Z" fill="#263238"/>
<path d="M115.292 161.315C113.794 165.567 112.296 169.998 110.963 174.344C110.284 176.517 109.668 178.697 109.114 180.847C108.577 182.911 108.161 185.005 107.866 187.117C107.866 187.35 107.804 187.606 107.796 187.831V188.172C107.796 188.281 107.796 188.444 107.796 188.39C107.796 188.335 107.733 188.436 107.796 188.599C107.994 189.192 108.315 189.737 108.74 190.198C110.079 191.673 111.599 192.977 113.264 194.078C117.02 196.597 120.942 198.863 125.003 200.86L123.333 205.64C120.916 205.115 118.533 204.447 116.196 203.638C113.816 202.826 111.492 201.859 109.239 200.743C106.768 199.545 104.483 198 102.453 196.157C101.163 194.975 100.123 193.547 99.3952 191.959C98.941 190.939 98.6767 189.845 98.6152 188.731C98.6152 188.382 98.6152 188.258 98.6152 188.071V187.528C98.6152 187.163 98.6152 186.83 98.6152 186.481C98.7495 183.897 99.0754 181.326 99.5902 178.79C100.058 176.338 100.643 173.964 101.275 171.605C102.541 166.919 104.053 162.303 105.807 157.776L115.292 161.315Z" fill="#FFA8A7"/>
<path d="M113.1 150.614C120.729 150.544 122.172 156.449 118.022 165.808C116.434 169.19 114.495 172.397 112.235 175.376L99.6221 168.71C101.307 161.237 104.388 150.691 113.1 150.614Z" fill="#407BFF"/>
<path d="M134.16 200.115L131.368 198.563C130.911 198.314 130.387 198.216 129.87 198.284L126.516 198.749C124.262 198.982 122.616 200.697 121.392 202.187L119.964 203.925C119.894 207.433 128.802 206.61 128.802 206.61L136.602 206.509L136.36 203.452C136.298 202.758 136.065 202.091 135.681 201.508C135.298 200.926 134.775 200.447 134.16 200.115Z" fill="#FFA8A7"/>
<path d="M300.565 204.779H89.4268V214.611H300.565V204.779Z" fill="#407BFF"/>
<path opacity="0.3" d="M157.911 204.779H89.4268V214.611H157.911V204.779Z" fill="white"/>
<path d="M95.0817 214.611H91.8525V323.002H95.0817V214.611Z" fill="#407BFF"/>
<path opacity="0.7" d="M95.0817 214.611H91.8525V323.002H95.0817V214.611Z" fill="white"/>
<path d="M155.493 214.611H152.264V323.002H155.493V214.611Z" fill="#407BFF"/>
<path opacity="0.7" d="M155.493 214.611H152.264V323.002H155.493V214.611Z" fill="white"/>
<path d="M237.736 214.611H234.507V323.002H237.736V214.611Z" fill="#407BFF"/>
<path opacity="0.7" d="M237.736 214.611H234.507V323.002H237.736V214.611Z" fill="white"/>
<path d="M298.147 214.611H294.918V323.002H298.147V214.611Z" fill="#407BFF"/>
<path opacity="0.7" d="M298.147 214.611H294.918V323.002H298.147V214.611Z" fill="white"/>
<path d="M277.68 161.323H219.96C218.97 161.358 218.022 161.727 217.271 162.368C216.52 163.01 216.01 163.886 215.826 164.853L209.804 201.24C209.712 201.674 209.72 202.123 209.827 202.553C209.934 202.983 210.138 203.384 210.424 203.724C210.709 204.065 211.068 204.337 211.474 204.519C211.88 204.702 212.322 204.791 212.768 204.779H270.488C271.48 204.745 272.43 204.376 273.183 203.732C273.936 203.089 274.446 202.21 274.63 201.24L280.651 164.853C280.744 164.419 280.736 163.97 280.628 163.54C280.52 163.109 280.316 162.709 280.029 162.368C279.743 162.028 279.383 161.757 278.976 161.576C278.568 161.395 278.125 161.308 277.68 161.323Z" fill="#263238"/>
<path d="M241.027 202.404H186.685C186.327 202.404 186.037 202.692 186.037 203.048V204.135C186.037 204.49 186.327 204.779 186.685 204.779H241.027C241.385 204.779 241.675 204.49 241.675 204.135V203.048C241.675 202.692 241.385 202.404 241.027 202.404Z" fill="#263238"/>
<path opacity="0.2" d="M277.68 161.323H221.223C220.234 161.358 219.286 161.727 218.535 162.368C217.784 163.01 217.274 163.886 217.089 164.853L211.068 201.24C210.974 201.674 210.981 202.123 211.087 202.554C211.194 202.985 211.398 203.386 211.684 203.727C211.969 204.068 212.329 204.34 212.736 204.522C213.143 204.704 213.586 204.792 214.032 204.779H270.449C271.441 204.745 272.391 204.376 273.144 203.732C273.897 203.089 274.407 202.21 274.591 201.24L280.612 164.853C280.704 164.423 280.697 163.977 280.591 163.549C280.485 163.122 280.284 162.723 280.002 162.384C279.72 162.045 279.365 161.773 278.963 161.589C278.561 161.405 278.122 161.314 277.68 161.323Z" fill="white"/>
<path d="M128.278 202.404C128.278 202.404 146.866 205.159 155.836 201.519C160.032 203.529 174.977 204.523 180.18 202.404C178.573 204.259 174.798 204.779 174.798 204.779H135.587C131.82 204.779 128.941 203.141 128.278 202.404Z" fill="#407BFF"/>
<path opacity="0.7" d="M128.278 202.404C128.278 202.404 146.866 205.159 155.836 201.519C160.032 203.529 174.977 204.523 180.18 202.404C178.573 204.259 174.798 204.779 174.798 204.779H135.587C131.82 204.779 128.941 203.141 128.278 202.404Z" fill="white"/>
</svg>
