<svg width="388" height="388" viewBox="0 0 388 388" fill="none" xmlns="http://www.w3.org/2000/svg">
<path d="M75.8622 325.873C141.108 359.963 246.893 359.963 312.139 325.873C377.385 291.784 377.393 236.525 312.139 202.435C246.885 168.345 141.108 168.353 75.8545 202.435C10.6006 236.517 10.6084 291.776 75.8622 325.873Z" fill="#F5F5F5"/>
<path d="M158.304 296.269C175.889 304.65 204.391 304.65 221.936 296.269C239.482 287.888 239.521 274.308 221.936 265.927C204.352 257.547 175.857 257.547 158.304 265.927C140.751 274.308 140.689 287.896 158.304 296.269Z" fill="#EBEBEB"/>
<path d="M310.524 275.527L247.668 311.805C247.148 312.068 246.572 312.206 245.988 312.206C245.404 312.206 244.829 312.068 244.308 311.805L165.738 266.424C165.535 266.355 165.359 266.225 165.235 266.051C165.11 265.877 165.043 265.668 165.043 265.454C165.043 265.24 165.11 265.031 165.235 264.857C165.359 264.683 165.535 264.553 165.738 264.484L228.594 228.206C229.115 227.942 229.69 227.805 230.274 227.805C230.858 227.805 231.434 227.942 231.954 228.206L310.548 273.587C310.749 273.658 310.924 273.79 311.047 273.966C311.169 274.141 311.234 274.351 311.231 274.565C311.229 274.779 311.159 274.987 311.032 275.159C310.905 275.332 310.728 275.46 310.524 275.527Z" fill="#EBEBEB"/>
<path d="M328.015 76.1023V92.7631C328.015 92.7631 321.171 95.9679 308.615 95.9679C296.059 95.9679 289.215 92.7553 289.215 92.7553V76.4593L302.314 39.3898C302.135 40.5538 302.818 41.7178 304.355 42.6334C305.479 43.3272 306.756 43.7333 308.074 43.8158C309.393 43.8984 310.711 43.6549 311.913 43.1068C312.25 42.9741 312.577 42.8159 312.891 42.6334C314.52 41.6945 315.219 40.4063 314.9 39.1802L328.015 76.1023Z" fill="#F5F5F5"/>
<path opacity="0.5" d="M328.015 76.1023V92.7631C328.015 92.7631 321.171 95.9679 308.615 95.9679C296.059 95.9679 289.215 92.7553 289.215 92.7553V76.4593L302.314 39.3898C302.135 40.5538 302.818 41.7178 304.355 42.6334C305.479 43.3272 306.756 43.7333 308.074 43.8158C309.393 43.8984 310.711 43.6549 311.913 43.1068C312.25 42.9741 312.577 42.8159 312.891 42.6334C314.52 41.6945 315.219 40.4063 314.9 39.1802L328.015 76.1023Z" fill="white"/>
<path d="M326.509 192.89C325.384 194.372 323.959 195.599 322.326 196.491C314.737 200.875 302.438 200.875 294.856 196.491C293.221 195.6 291.793 194.373 290.666 192.89C289.79 191.726 289.272 190.332 289.176 188.878V197.531C289.315 200.293 291.201 203.033 294.856 205.143C302.438 209.52 314.737 209.52 322.326 205.143C326.113 202.955 328.015 200.084 328.015 197.213V188.568C327.986 190.132 327.458 191.647 326.509 192.89Z" fill="#F5F5F5"/>
<path d="M326.509 184.238C325.384 185.72 323.959 186.947 322.326 187.839C321.876 188.095 321.419 188.335 320.945 188.56C313.783 191.975 303.392 191.975 296.237 188.56C295.764 188.335 295.298 188.095 294.856 187.839C293.221 186.948 291.793 185.72 290.666 184.238C289.79 183.076 289.273 181.685 289.176 180.234V188.878C289.272 190.332 289.79 191.726 290.666 192.89C291.793 194.373 293.221 195.6 294.856 196.491C302.438 200.875 314.737 200.875 322.326 196.491C323.959 195.599 325.384 194.372 326.509 192.89C327.458 191.647 327.986 190.132 328.015 188.568V179.916C327.986 181.48 327.459 182.994 326.509 184.238Z" fill="#EBEBEB"/>
<path d="M326.509 175.586C325.383 177.068 323.958 178.297 322.326 179.194C321.876 179.45 321.419 179.683 320.945 179.916C313.783 183.33 303.392 183.33 296.237 179.916C295.764 179.683 295.298 179.45 294.856 179.194C293.222 178.297 291.795 177.068 290.666 175.586C289.79 174.424 289.273 173.033 289.176 171.581V180.234C289.273 181.685 289.79 183.076 290.666 184.238C291.793 185.72 293.221 186.948 294.856 187.839C295.298 188.095 295.764 188.335 296.237 188.56C303.392 191.975 313.783 191.975 320.945 188.56C321.419 188.335 321.876 188.095 322.326 187.839C323.959 186.947 325.384 185.72 326.509 184.238C327.459 182.994 327.986 181.48 328.015 179.916V171.263C327.987 172.828 327.46 174.343 326.509 175.586Z" fill="#F5F5F5"/>
<path d="M289.176 76.4282V171.581C289.273 173.033 289.79 174.424 290.666 175.586C291.795 177.068 293.222 178.297 294.856 179.194C295.298 179.45 295.764 179.683 296.237 179.916C298.113 180.79 300.089 181.433 302.119 181.832L298.604 81.5498L289.176 76.4282Z" fill="#F5F5F5"/>
<path d="M318.579 81.5498L315.056 181.832C317.087 181.433 319.062 180.79 320.938 179.916C321.411 179.683 321.869 179.45 322.319 179.194C323.951 178.297 325.376 177.068 326.502 175.586C327.452 174.343 327.98 172.828 328.007 171.263V76.1023L318.579 81.5498Z" fill="#F5F5F5"/>
<path d="M289.176 76.4282V171.581C289.273 173.033 289.79 174.424 290.666 175.586C291.795 177.068 293.222 178.297 294.856 179.194C295.298 179.45 295.764 179.683 296.237 179.916C298.113 180.79 300.089 181.433 302.119 181.832L298.604 81.5498L289.176 76.4282Z" fill="#E0E0E0"/>
<path d="M318.579 81.5498L315.056 181.832C317.087 181.433 319.062 180.79 320.938 179.916C321.411 179.683 321.869 179.45 322.319 179.194C323.951 178.297 325.376 177.068 326.502 175.586C327.452 174.343 327.98 172.828 328.007 171.263V76.1023L318.579 81.5498Z" fill="#E0E0E0"/>
<path d="M298.604 81.5498V180.878C299.754 181.275 300.928 181.597 302.12 181.84C304.25 182.271 306.418 182.486 308.592 182.484C310.765 182.482 312.933 182.267 315.063 181.84C316.255 181.597 317.429 181.275 318.579 180.878V81.5498H298.604Z" fill="#EBEBEB"/>
<path d="M312.86 42.5946C312.547 42.7771 312.22 42.9353 311.882 43.068C310.68 43.6161 309.362 43.8596 308.044 43.777C306.726 43.6945 305.448 43.2884 304.324 42.5946C302.772 41.71 302.105 40.515 302.283 39.351L306.753 26.8341C306.9 26.4681 307.154 26.1551 307.483 25.9363C307.811 25.7175 308.198 25.603 308.592 25.608C308.987 25.6025 309.375 25.7166 309.705 25.9354C310.035 26.1542 310.29 26.4674 310.439 26.8341L314.862 39.1259C315.165 40.352 314.49 41.6557 312.86 42.5946Z" fill="#E0E0E0"/>
<path d="M322.327 205.143C315.808 208.907 305.814 209.427 298.317 206.695C297.898 206.551 297.487 206.388 297.084 206.206L296.525 205.974C295.943 205.71 295.384 205.423 294.856 205.12C291.202 203.009 289.316 200.27 289.176 197.508V221.082C289.036 224.062 290.922 227.065 294.856 229.331C295.322 229.603 295.811 229.859 296.315 230.107C296.502 230.2 296.703 230.27 296.89 230.356C297.216 230.495 297.534 230.643 297.867 230.767C298.201 230.891 298.387 230.953 298.643 231.038C298.899 231.124 299.194 231.24 299.481 231.326C299.769 231.411 300.118 231.504 300.436 231.589C300.754 231.675 300.925 231.729 301.173 231.783C301.421 231.838 301.91 231.946 302.283 232.016C302.492 232.016 302.702 232.109 302.911 232.14C303.33 232.218 303.757 232.272 304.184 232.334L304.688 232.404C305.162 232.459 305.635 232.497 306.108 232.528H306.481C307.001 232.567 307.521 232.583 308.033 232.59H308.281C308.84 232.59 309.399 232.59 309.957 232.59H310.082C310.671 232.59 311.261 232.521 311.851 232.466C315.307 232.173 318.673 231.208 321.76 229.626C321.931 229.533 322.11 229.455 322.28 229.355C326.067 227.166 327.968 224.295 327.968 221.424V197.213C328.015 200.084 326.114 202.955 322.327 205.143Z" fill="#E0E0E0"/>
<path d="M88.0605 218.894C85.8179 218.328 73.8442 211.514 72.6259 210.684C71.4076 209.854 69.002 208.139 69.002 205.182C69.002 202.567 69.2736 177.906 71.4153 165.994C72.1189 162.289 73.5731 158.766 75.6882 155.644C77.8034 152.521 80.5349 149.864 83.7149 147.836C91.1645 143.219 98.6529 139.874 104.962 142.497C111.271 145.12 117.029 149.939 119.512 155.759C121.995 161.579 123.694 173.234 123.873 177.743C124.051 182.251 123.873 197.709 123.873 199.083C123.873 200.456 123.625 202.241 116.229 206.843C108.834 211.444 98.6219 216.931 95.4636 218.351C93.1144 219.306 90.5239 219.496 88.0605 218.894Z" fill="#37474F"/>
<path d="M86.2136 151.041C85.5307 151.429 83.5597 150.459 83.2648 149.97C82.9699 149.481 82.8923 145.252 84.3667 142.916C85.8411 140.58 95.0367 136.273 97.3104 136.592C98.162 136.73 98.9763 137.041 99.7035 137.506C100.431 137.97 101.056 138.578 101.54 139.292C101.819 139.89 102.129 143.824 101.54 144.631C100.95 145.438 98.8469 144.196 98.6607 143.855C98.4744 143.513 99.3513 140.634 97.8847 140.037C96.5344 139.494 90.1247 142.218 87.5173 144.406C86.3843 145.36 86.4387 147.727 86.493 148.899C86.5473 150.071 86.5551 150.839 86.2136 151.041Z" fill="#455A64"/>
<path d="M84.3669 178.806C85.6861 165.994 88.0606 158.514 100.593 152.934C113.125 147.355 117.991 152.104 119.768 156.38C122.096 162.37 123.702 173.389 123.873 177.743C124.052 182.251 123.873 197.709 123.873 199.083C123.873 200.456 123.625 202.241 116.229 206.843C108.834 211.444 98.622 216.931 95.4637 218.351C93.117 219.314 90.5265 219.512 88.0606 218.917C87.5654 218.767 87.0828 218.577 86.6173 218.351C82.714 213.338 83.1563 190.508 84.3669 178.806Z" fill="#455A64"/>
<path d="M113.583 147.929C110.308 146.012 104.938 144.747 97.054 148.263C82.9619 154.54 79.3845 162.401 77.9644 176.199C77.7083 178.728 77.3281 181.739 77.1884 184.975L76.0244 184.269C76.1874 180.777 76.5288 177.789 76.8004 175.089C78.3524 161.191 82.5195 153.508 95.9831 147.51C103.44 144.189 108.337 144.623 111.581 146.26C112.277 146.781 112.946 147.338 113.583 147.929Z" fill="#263238"/>
<path d="M114.072 148.286C110.805 146.369 105.427 145.104 97.551 148.62C83.4511 154.897 79.8738 162.758 78.4537 176.556C78.1976 179.085 77.8174 182.096 77.6777 185.332L76.5137 184.626C76.6766 181.134 77.0181 178.146 77.2897 175.446C78.8417 161.548 83.0088 153.858 96.4724 147.867C103.93 144.546 108.958 145.096 112.202 146.726C112.854 147.21 113.478 147.731 114.072 148.286Z" fill="#455A64"/>
<path d="M109.509 160.469L105.249 158.032C105.038 157.914 104.79 157.884 104.558 157.948C104.325 158.012 104.127 158.165 104.007 158.374L99.638 165.971C99.5163 166.18 99.4823 166.429 99.5433 166.663C99.6044 166.897 99.7556 167.097 99.964 167.22L104.17 169.672C104.379 169.794 104.628 169.828 104.862 169.767C105.096 169.706 105.296 169.555 105.419 169.346L109.842 161.703C109.903 161.6 109.943 161.487 109.959 161.369C109.975 161.251 109.967 161.131 109.936 161.016C109.905 160.901 109.851 160.793 109.778 160.699C109.704 160.605 109.613 160.527 109.509 160.469Z" fill="#263238"/>
<path d="M104.938 168.803L109.137 161.563C109.167 161.511 109.186 161.454 109.194 161.395C109.202 161.335 109.198 161.275 109.182 161.217C109.166 161.159 109.139 161.105 109.102 161.058C109.064 161.011 109.018 160.971 108.966 160.942L105.086 158.739C104.981 158.68 104.857 158.664 104.74 158.696C104.624 158.728 104.525 158.805 104.465 158.909L100.313 166.118C100.254 166.223 100.239 166.348 100.271 166.464C100.303 166.58 100.38 166.679 100.484 166.739L104.294 168.966C104.347 168.999 104.406 169.022 104.467 169.031C104.528 169.041 104.591 169.038 104.651 169.023C104.712 169.008 104.768 168.981 104.818 168.943C104.867 168.905 104.908 168.857 104.938 168.803Z" fill="#455A64"/>
<path d="M105.839 165.342C105.951 165.275 106.046 165.182 106.116 165.072C106.186 164.961 106.229 164.836 106.243 164.706V161.237C106.243 161.012 106.064 160.942 105.839 161.067C105.727 161.134 105.633 161.227 105.563 161.337C105.493 161.448 105.449 161.573 105.436 161.703V165.172C105.436 165.397 105.614 165.466 105.839 165.342Z" fill="#37474F"/>
<path d="M103.588 166.646C103.7 166.576 103.794 166.482 103.864 166.37C103.934 166.259 103.978 166.133 103.992 166.002V162.541C103.992 162.316 103.805 162.238 103.588 162.37C103.475 162.437 103.38 162.529 103.31 162.64C103.24 162.751 103.197 162.876 103.185 163.007V166.475C103.208 166.693 103.363 166.77 103.588 166.646Z" fill="#37474F"/>
<path d="M90.1708 189.639C90.1708 189.639 92.2816 191.377 93.8025 197.927C95.3235 204.476 96.2392 212.725 94.5785 213.718C92.9179 214.711 90.52 212.632 89.9225 211.918C88.6964 210.451 88.9991 194.885 90.1708 189.639Z" fill="#263238"/>
<path d="M90.1709 189.639C90.1709 189.639 92.2816 191.377 93.8026 197.927C95.3235 204.476 96.2392 212.725 94.5786 213.718L120.187 198.617C121.863 197.624 122.274 188.956 120.761 182.407C119.76 178.1 117.921 176.051 116.788 175.151C116.528 174.95 116.214 174.832 115.886 174.811C115.558 174.79 115.232 174.868 114.949 175.035L90.1709 189.639Z" fill="#37474F"/>
<path d="M116.26 176.152C117.486 176.757 119.566 178.426 120.505 182.857C120.663 183.46 120.649 184.095 120.464 184.691C120.278 185.286 119.93 185.818 119.457 186.224C118.604 186.83 100.274 197.251 97.8456 198.703C95.7504 199.952 94.664 198.291 94.2062 197.251C93.4302 195.405 92.7628 193.969 92.1886 192.867C91.7501 191.665 91.0655 190.568 90.1787 189.647L114.599 176.222C114.849 176.075 115.131 175.992 115.421 175.98C115.711 175.968 115.999 176.027 116.26 176.152Z" fill="#263238"/>
<path d="M77.9804 186.054C78.3351 187.388 78.5663 188.751 78.6711 190.128C78.6711 190.407 78.2908 190.555 78.1822 190.555C77.2947 190.376 76.4734 189.957 75.8076 189.344C75.932 188.171 76.1447 187.009 76.4439 185.868L77.9804 186.054Z" fill="#263238"/>
<path d="M78.7719 184.96C78.7719 184.666 78.685 184.38 78.5222 184.136C78.3593 183.892 78.1278 183.702 77.857 183.59C77.5861 183.478 77.2881 183.449 77.0006 183.506C76.7131 183.563 76.449 183.704 76.2417 183.912C76.0345 184.119 75.8933 184.383 75.8361 184.67C75.7789 184.958 75.8083 185.256 75.9204 185.527C76.0326 185.798 76.2226 186.029 76.4663 186.192C76.7101 186.355 76.9966 186.442 77.2898 186.442C77.6829 186.442 78.0599 186.286 78.3378 186.008C78.6158 185.73 78.7719 185.353 78.7719 184.96Z" fill="#263238"/>
<path d="M97.3105 139.967C98.9324 139.812 100.461 139.967 100.849 141.589C101.237 143.211 101.097 144.693 100.849 144.895C100.027 144.791 99.2605 144.426 98.6608 143.855C98.4745 143.506 99.3514 140.634 97.8848 140.037C97.7049 139.977 97.5151 139.953 97.3261 139.967H97.3105Z" fill="#263238"/>
<path d="M115.104 174.949C115.355 174.801 115.638 174.717 115.929 174.705C116.22 174.693 116.51 174.753 116.772 174.879C117.998 175.485 120.078 177.153 121.017 181.584C121.174 182.187 121.16 182.822 120.974 183.418C120.789 184.013 120.441 184.544 119.969 184.952C119.116 185.557 100.794 195.979 98.3655 197.43C96.2703 198.679 95.1761 197.019 94.7183 195.979C92.1807 190.671 90.1709 189.639 90.1709 189.639L115.104 174.949Z" fill="#37474F"/>
<path d="M110.712 265.229L90.1633 253.372C89.6267 253.021 89.1801 252.548 88.8593 251.993C88.5385 251.438 88.3526 250.815 88.3164 250.175V250.407C88.3514 249.767 88.5368 249.144 88.8577 248.588C89.1786 248.033 89.6259 247.561 90.1633 247.21L131.485 223.356C132.056 223.065 132.688 222.914 133.328 222.914C133.969 222.914 134.601 223.065 135.171 223.356L155.72 235.221C156.258 235.569 156.706 236.039 157.027 236.594C157.348 237.148 157.533 237.771 157.567 238.411V238.178C157.533 238.818 157.348 239.44 157.029 239.996C156.709 240.551 156.264 241.024 155.728 241.375L114.406 265.229C113.833 265.52 113.201 265.672 112.559 265.672C111.917 265.672 111.284 265.52 110.712 265.229Z" fill="#407BFF"/>
<path opacity="0.7" d="M110.712 265.229L90.1633 253.372C89.6267 253.021 89.1801 252.548 88.8593 251.993C88.5385 251.438 88.3526 250.815 88.3164 250.175V250.407C88.3514 249.767 88.5368 249.144 88.8577 248.588C89.1786 248.033 89.6259 247.561 90.1633 247.21L131.485 223.356C132.056 223.065 132.688 222.914 133.328 222.914C133.969 222.914 134.601 223.065 135.171 223.356L155.72 235.221C156.258 235.569 156.706 236.039 157.027 236.594C157.348 237.148 157.533 237.771 157.567 238.411V238.178C157.533 238.818 157.348 239.44 157.029 239.996C156.709 240.551 156.264 241.024 155.728 241.375L114.406 265.229C113.833 265.52 113.201 265.672 112.559 265.672C111.917 265.672 111.284 265.52 110.712 265.229Z" fill="black"/>
<path d="M112.521 234.282L90.133 247.21C89.5956 247.561 89.1483 248.033 88.8274 248.588C88.5065 249.144 88.3211 249.767 88.2861 250.407V250.175C88.3223 250.815 88.5083 251.438 88.829 251.993C89.1498 252.548 89.5965 253.021 90.133 253.372L110.681 265.229C111.249 265.531 111.885 265.684 112.528 265.671L112.521 234.282Z" fill="#407BFF"/>
<path opacity="0.7" d="M112.521 234.282L90.133 247.21C89.5956 247.561 89.1483 248.033 88.8274 248.588C88.5065 249.144 88.3211 249.767 88.2861 250.407V250.175C88.3223 250.815 88.5083 251.438 88.829 251.993C89.1498 252.548 89.5965 253.021 90.133 253.372L110.681 265.229C111.249 265.531 111.885 265.684 112.528 265.671L112.521 234.282Z" fill="black"/>
<path d="M90.1559 249.344L110.697 261.209C111.27 261.496 111.902 261.646 112.544 261.646C113.185 261.646 113.817 261.496 114.39 261.209L155.712 237.347C156.737 236.758 156.737 235.795 155.712 235.221L135.164 223.356C134.593 223.065 133.962 222.914 133.321 222.914C132.68 222.914 132.049 223.065 131.478 223.356L90.1559 247.21C89.1316 247.8 89.1316 248.755 90.1559 249.344Z" fill="#407BFF"/>
<path opacity="0.5" d="M90.1559 249.344L110.697 261.209C111.27 261.496 111.902 261.646 112.544 261.646C113.185 261.646 113.817 261.496 114.39 261.209L155.712 237.347C156.737 236.758 156.737 235.795 155.712 235.221L135.164 223.356C134.593 223.065 133.962 222.914 133.321 222.914C132.68 222.914 132.049 223.065 131.478 223.356L90.1559 247.21C89.1316 247.8 89.1316 248.755 90.1559 249.344Z" fill="black"/>
<path d="M90.1562 245.441V247.412L111.481 259.727C111.805 259.914 112.173 260.012 112.548 260.012C112.922 260.012 113.29 259.914 113.615 259.727L155.713 235.415V233.382L112.544 254.334L90.1562 245.441Z" fill="#407BFF"/>
<path d="M110.705 257.306L90.1564 245.441C89.6182 245.092 89.1702 244.62 88.8492 244.064C88.5282 243.509 88.3433 242.885 88.3096 242.244V238.449C88.3433 237.808 88.5282 237.185 88.8492 236.629C89.1702 236.073 89.6182 235.602 90.1564 235.252L131.478 211.39C132.049 211.099 132.681 210.948 133.321 210.948C133.962 210.948 134.594 211.099 135.164 211.39L155.713 223.255C156.251 223.605 156.699 224.076 157.02 224.632C157.341 225.188 157.526 225.812 157.56 226.452V230.255C157.521 230.882 157.333 231.49 157.012 232.03C156.691 232.57 156.245 233.025 155.713 233.359L114.391 257.283C113.822 257.577 113.191 257.733 112.551 257.737C111.91 257.741 111.278 257.593 110.705 257.306Z" fill="#407BFF"/>
<path opacity="0.6" d="M110.705 257.306L90.1564 245.441C89.6182 245.092 89.1702 244.62 88.8492 244.064C88.5282 243.509 88.3433 242.885 88.3096 242.244V238.449C88.3433 237.808 88.5282 237.185 88.8492 236.629C89.1702 236.073 89.6182 235.602 90.1564 235.252L131.478 211.39C132.049 211.099 132.681 210.948 133.321 210.948C133.962 210.948 134.594 211.099 135.164 211.39L155.713 223.255C156.251 223.605 156.699 224.076 157.02 224.632C157.341 225.188 157.526 225.812 157.56 226.452V230.255C157.521 230.882 157.333 231.49 157.012 232.03C156.691 232.57 156.245 233.025 155.713 233.359L114.391 257.283C113.822 257.577 113.191 257.733 112.551 257.737C111.91 257.741 111.278 257.593 110.705 257.306Z" fill="black"/>
<path d="M112.521 222.324L90.133 235.252C89.5947 235.602 89.1468 236.073 88.8258 236.629C88.5048 237.185 88.3199 237.808 88.2861 238.449V242.244C88.3199 242.885 88.5048 243.509 88.8258 244.064C89.1468 244.62 89.5947 245.092 90.133 245.441L110.681 257.306C111.246 257.609 111.88 257.762 112.521 257.748V222.324Z" fill="#407BFF"/>
<path opacity="0.7" d="M112.521 222.324L90.133 235.252C89.5947 235.602 89.1468 236.073 88.8258 236.629C88.5048 237.185 88.3199 237.808 88.2861 238.449V242.244C88.3199 242.885 88.5048 243.509 88.8258 244.064C89.1468 244.62 89.5947 245.092 90.133 245.441L110.681 257.306C111.246 257.609 111.88 257.762 112.521 257.748V222.324Z" fill="black"/>
<path d="M90.1559 237.378L110.697 249.243C111.269 249.534 111.902 249.686 112.544 249.686C113.185 249.686 113.818 249.534 114.39 249.243L155.712 225.389C156.737 224.799 156.737 223.837 155.712 223.255L135.164 211.39C134.593 211.099 133.962 210.948 133.321 210.948C132.68 210.948 132.049 211.099 131.478 211.39L90.1559 235.252C89.1316 235.842 89.1316 236.796 90.1559 237.378Z" fill="#407BFF"/>
<path opacity="0.5" d="M90.1559 237.378L110.697 249.243C111.269 249.534 111.902 249.686 112.544 249.686C113.185 249.686 113.818 249.534 114.39 249.243L155.712 225.389C156.737 224.799 156.737 223.837 155.712 223.255L135.164 211.39C134.593 211.099 133.962 210.948 133.321 210.948C132.68 210.948 132.049 211.099 131.478 211.39L90.1559 235.252C89.1316 235.842 89.1316 236.796 90.1559 237.378Z" fill="black"/>
<path d="M118.814 227.95C116.54 229.269 116.54 231.388 118.814 232.691C120.092 233.334 121.503 233.669 122.934 233.669C124.365 233.669 125.776 233.334 127.055 232.691C129.328 231.388 129.328 229.269 127.055 227.95C125.777 227.304 124.366 226.967 122.934 226.967C121.503 226.967 120.091 227.304 118.814 227.95Z" fill="#407BFF"/>
<path d="M152.368 229.339C152.157 229.477 151.982 229.663 151.857 229.881C151.731 230.1 151.659 230.345 151.646 230.596C151.646 231.062 151.972 231.256 152.368 231.031C152.579 230.893 152.754 230.707 152.88 230.489C153.005 230.27 153.077 230.025 153.09 229.774C153.09 229.308 152.764 229.114 152.368 229.339Z" fill="#407BFF"/>
<path d="M152.368 232.125C152.157 232.263 151.982 232.448 151.857 232.667C151.731 232.885 151.659 233.13 151.646 233.382C151.646 233.848 151.972 234.042 152.368 233.817C152.582 233.682 152.759 233.497 152.885 233.277C153.011 233.058 153.081 232.812 153.09 232.559C153.09 232.094 152.764 231.9 152.368 232.125Z" fill="#407BFF"/>
<path d="M102.099 280.912C102.004 280.912 101.91 280.888 101.827 280.842L81.9149 269.272C81.3993 268.973 80.9714 268.544 80.6739 268.028C80.3763 267.512 80.2197 266.927 80.2197 266.331C80.2197 265.735 80.3763 265.15 80.6739 264.634C80.9714 264.118 81.3993 263.689 81.9149 263.39L96.5114 254.963C96.6353 254.9 96.7786 254.887 96.9117 254.926C97.0449 254.966 97.1579 255.055 97.2274 255.175C97.297 255.295 97.3178 255.438 97.2857 255.573C97.2536 255.708 97.1709 255.825 97.0546 255.902L82.4658 264.306C82.1185 264.512 81.8307 264.805 81.6308 265.156C81.4309 265.507 81.3258 265.904 81.3258 266.308C81.3258 266.712 81.4309 267.109 81.6308 267.46C81.8307 267.811 82.1185 268.104 82.4658 268.31L102.378 279.864C102.445 279.899 102.504 279.948 102.55 280.008C102.597 280.067 102.631 280.136 102.649 280.209C102.667 280.282 102.67 280.359 102.657 280.433C102.643 280.507 102.615 280.578 102.572 280.64C102.525 280.725 102.457 280.794 102.373 280.842C102.29 280.89 102.195 280.914 102.099 280.912Z" fill="#407BFF"/>
<path d="M127.04 269.738L122.725 252.417C122.664 252.178 122.583 251.945 122.485 251.719L123.742 251.54L121.002 249.988C120.428 249.676 119.779 249.526 119.125 249.555C118.472 249.584 117.838 249.79 117.293 250.151L99.3288 260.55C98.0954 261.357 97.0698 262.444 96.335 263.723C95.6002 265.001 95.177 266.434 95.0996 267.906V288.734C95.0996 290.395 95.5031 291.535 96.3334 291.931L98.9098 293.421L98.289 291.776L98.4286 291.722C101.385 290.309 102.456 287.733 103.341 285.18L106.763 275.286C107.648 272.733 109.867 269.807 111.683 268.744C113.499 267.681 116.09 268.744 117.425 271.072L119.148 274.083C119.674 275.039 120.466 275.821 121.429 276.334L124.052 277.886L123.385 276.846C123.93 276.847 124.466 276.702 124.937 276.427C126.729 275.356 127.692 272.376 127.04 269.738Z" fill="#407BFF"/>
<path opacity="0.7" d="M127.04 269.738L122.725 252.417C122.664 252.178 122.583 251.945 122.485 251.719L123.742 251.54L121.002 249.988C120.428 249.676 119.779 249.526 119.125 249.555C118.472 249.584 117.838 249.79 117.293 250.151L99.3288 260.55C98.0954 261.357 97.0698 262.444 96.335 263.723C95.6002 265.001 95.177 266.434 95.0996 267.906V288.734C95.0996 290.395 95.5031 291.535 96.3334 291.931L98.9098 293.421L98.289 291.776L98.4286 291.722C101.385 290.309 102.456 287.733 103.341 285.18L106.763 275.286C107.648 272.733 109.867 269.807 111.683 268.744C113.499 267.681 116.09 268.744 117.425 271.072L119.148 274.083C119.674 275.039 120.466 275.821 121.429 276.334L124.052 277.886L123.385 276.846C123.93 276.847 124.466 276.702 124.937 276.427C126.729 275.356 127.692 272.376 127.04 269.738Z" fill="black"/>
<path d="M122.485 251.719L123.742 251.54L121.002 249.988C120.428 249.676 119.779 249.526 119.125 249.555C118.472 249.584 117.838 249.79 117.293 250.151L99.3287 260.55C98.3253 261.175 97.4678 262.009 96.8145 262.994L101.09 265.602L122.958 253.248L122.748 252.417C122.679 252.178 122.591 251.944 122.485 251.719Z" fill="#407BFF"/>
<path opacity="0.5" d="M122.485 251.719L123.742 251.54L121.002 249.988C120.428 249.676 119.779 249.526 119.125 249.555C118.472 249.584 117.838 249.79 117.293 250.151L99.3287 260.55C98.3253 261.175 97.4678 262.009 96.8145 262.994L101.09 265.602L122.958 253.248L122.748 252.417C122.679 252.178 122.591 251.944 122.485 251.719Z" fill="black"/>
<path d="M127.675 278.041C125.836 279.104 123.252 278.041 121.91 275.713L120.195 272.702C118.852 270.374 116.315 269.311 114.445 270.374C112.574 271.437 110.409 274.355 109.525 276.916L106.11 286.802C105.226 289.355 104.147 291.931 101.19 293.344C98.9556 294.414 97.877 293.064 97.877 290.364V269.52C97.957 268.049 98.3822 266.617 99.1183 265.34C99.8543 264.064 100.881 262.978 102.114 262.172L120.109 251.734C120.594 251.395 121.157 251.185 121.746 251.124C122.335 251.063 122.929 251.153 123.473 251.386C124.017 251.62 124.493 251.988 124.855 252.456C125.217 252.924 125.453 253.477 125.541 254.062L129.856 271.391C130.492 273.982 129.522 276.978 127.675 278.041Z" fill="#407BFF"/>
<path opacity="0.6" d="M127.675 278.041C125.836 279.104 123.252 278.041 121.91 275.713L120.195 272.702C118.852 270.374 116.315 269.311 114.445 270.374C112.574 271.437 110.409 274.355 109.525 276.916L106.11 286.802C105.226 289.355 104.147 291.931 101.19 293.344C98.9556 294.414 97.877 293.064 97.877 290.364V269.52C97.957 268.049 98.3822 266.617 99.1183 265.34C99.8543 264.064 100.881 262.978 102.114 262.172L120.109 251.734C120.594 251.395 121.157 251.185 121.746 251.124C122.335 251.063 122.929 251.153 123.473 251.386C124.017 251.62 124.493 251.988 124.855 252.456C125.217 252.924 125.453 253.477 125.541 254.062L129.856 271.391C130.492 273.982 129.522 276.978 127.675 278.041Z" fill="black"/>
<path d="M120.7 257.733L121.15 260.286L123.144 259.013L123.587 261.566L121.6 262.847L122.05 265.4L120.063 266.672L119.613 264.119L117.627 265.4L117.177 262.839L119.163 261.566L118.713 259.013L120.7 257.733Z" fill="#263238"/>
<path d="M121.274 258.036L121.724 260.589L123.711 259.316L124.161 261.869L122.174 263.149L122.624 265.702L120.638 266.975L120.188 264.422L118.201 265.695L117.751 263.142L119.738 261.869L119.287 259.316L121.274 258.036Z" fill="#407BFF"/>
<path d="M105.645 266.773C105.698 267.133 105.654 267.5 105.518 267.837C105.381 268.174 105.157 268.469 104.869 268.69C104.318 269.039 103.775 268.752 103.651 268.046C103.595 267.686 103.638 267.318 103.774 266.981C103.911 266.643 104.136 266.349 104.427 266.129C104.97 265.78 105.536 266.067 105.645 266.773Z" fill="#263238"/>
<path d="M106.545 271.879C106.601 272.239 106.558 272.607 106.421 272.945C106.285 273.282 106.059 273.576 105.769 273.796C105.218 274.145 104.675 273.858 104.551 273.16C104.494 272.8 104.537 272.432 104.673 272.094C104.81 271.756 105.036 271.462 105.327 271.243C105.87 270.886 106.421 271.173 106.545 271.879Z" fill="#263238"/>
<path d="M108.081 268.046C108.138 268.406 108.095 268.774 107.959 269.112C107.822 269.449 107.596 269.743 107.305 269.963C106.754 270.32 106.211 270.033 106.087 269.326C106.03 268.967 106.073 268.598 106.209 268.261C106.346 267.923 106.572 267.629 106.863 267.41C107.414 267.06 107.957 267.34 108.081 268.046Z" fill="#263238"/>
<path d="M104.109 270.599C104.165 270.959 104.123 271.327 103.986 271.665C103.85 272.002 103.624 272.297 103.333 272.516C102.782 272.873 102.239 272.586 102.114 271.879C102.059 271.52 102.102 271.151 102.238 270.814C102.375 270.477 102.6 270.182 102.89 269.963C103.441 269.613 103.985 269.893 104.109 270.599Z" fill="#263238"/>
<path d="M105.684 266.797C105.739 267.156 105.696 267.524 105.56 267.862C105.423 268.199 105.198 268.494 104.908 268.713C104.357 269.062 103.813 268.783 103.689 268.077C103.633 267.717 103.675 267.349 103.812 267.011C103.949 266.674 104.174 266.379 104.465 266.16C105.016 265.803 105.536 266.09 105.684 266.797Z" fill="#263238"/>
<path d="M106.584 271.903C106.641 272.262 106.598 272.631 106.461 272.968C106.325 273.306 106.099 273.6 105.808 273.819C105.257 274.176 104.714 273.889 104.59 273.183C104.533 272.823 104.576 272.455 104.712 272.117C104.849 271.78 105.075 271.486 105.366 271.266C105.917 270.917 106.46 271.197 106.584 271.903Z" fill="#263238"/>
<path d="M108.12 268.077C108.175 268.436 108.132 268.802 107.996 269.138C107.859 269.475 107.634 269.767 107.344 269.986C106.801 270.343 106.25 270.056 106.126 269.35C106.072 268.99 106.116 268.622 106.252 268.285C106.389 267.948 106.613 267.654 106.902 267.433C107.453 267.084 107.996 267.371 108.12 268.077Z" fill="#263238"/>
<path d="M104.147 270.63C104.203 270.99 104.16 271.358 104.023 271.695C103.887 272.033 103.661 272.327 103.371 272.547C102.828 272.896 102.277 272.609 102.153 271.903C102.1 271.543 102.144 271.176 102.28 270.839C102.416 270.502 102.64 270.207 102.929 269.986C103.48 269.637 104.023 269.924 104.147 270.63Z" fill="#263238"/>
<path d="M105.723 266.82C105.779 267.18 105.737 267.548 105.6 267.886C105.464 268.223 105.238 268.517 104.947 268.737C104.404 269.094 103.853 268.806 103.729 268.1C103.675 267.741 103.718 267.373 103.855 267.036C103.991 266.699 104.216 266.404 104.505 266.184C105.055 265.834 105.599 266.114 105.723 266.82Z" fill="#263238"/>
<path d="M106.622 271.934C106.677 272.292 106.634 272.659 106.498 272.995C106.361 273.331 106.136 273.624 105.846 273.843C105.303 274.2 104.752 273.912 104.628 273.206C104.574 272.847 104.618 272.479 104.754 272.142C104.891 271.805 105.115 271.51 105.404 271.29C105.955 270.94 106.498 271.228 106.622 271.934Z" fill="#263238"/>
<path d="M108.167 268.1C108.221 268.46 108.177 268.828 108.041 269.165C107.904 269.502 107.68 269.796 107.391 270.017C106.84 270.366 106.297 270.079 106.173 269.381C106.116 269.021 106.159 268.652 106.295 268.315C106.432 267.977 106.658 267.683 106.949 267.464C107.492 267.107 108.043 267.394 108.167 268.1Z" fill="#263238"/>
<path d="M104.193 270.653C104.247 271.013 104.204 271.381 104.067 271.718C103.931 272.055 103.706 272.349 103.417 272.57C102.866 272.919 102.323 272.64 102.199 271.934C102.143 271.574 102.185 271.205 102.322 270.868C102.458 270.53 102.684 270.236 102.975 270.017C103.518 269.66 104.069 269.947 104.193 270.653Z" fill="#263238"/>
<path d="M105.769 266.851C105.823 267.211 105.78 267.578 105.643 267.915C105.507 268.252 105.282 268.547 104.993 268.768C104.443 269.117 103.899 268.83 103.775 268.124C103.72 267.765 103.763 267.398 103.9 267.062C104.037 266.726 104.262 266.433 104.551 266.215C105.094 265.858 105.645 266.168 105.769 266.851Z" fill="#263238"/>
<path d="M106.669 271.957C106.723 272.317 106.679 272.684 106.543 273.021C106.406 273.358 106.182 273.653 105.893 273.874C105.342 274.223 104.799 273.944 104.675 273.237C104.618 272.878 104.661 272.509 104.797 272.172C104.934 271.834 105.16 271.54 105.451 271.321C105.994 270.964 106.545 271.251 106.669 271.957Z" fill="#263238"/>
<path d="M108.206 268.124C108.262 268.483 108.22 268.852 108.083 269.189C107.946 269.527 107.72 269.821 107.43 270.04C106.879 270.397 106.335 270.11 106.211 269.404C106.156 269.044 106.198 268.676 106.335 268.339C106.472 268.001 106.697 267.707 106.987 267.487C107.538 267.138 108.081 267.417 108.206 268.124Z" fill="#263238"/>
<path d="M104.233 270.677C104.289 271.036 104.247 271.405 104.11 271.742C103.974 272.08 103.748 272.374 103.457 272.593C102.906 272.95 102.363 272.663 102.239 271.957C102.183 271.597 102.226 271.229 102.362 270.892C102.499 270.554 102.724 270.26 103.015 270.04C103.565 269.691 104.109 269.97 104.233 270.677Z" fill="#263238"/>
<path d="M105.808 266.874C105.863 267.234 105.821 267.602 105.684 267.939C105.547 268.277 105.322 268.571 105.032 268.791C104.481 269.14 103.938 268.861 103.813 268.155C103.757 267.795 103.799 267.426 103.936 267.089C104.073 266.751 104.298 266.457 104.589 266.238C105.14 265.881 105.684 266.168 105.808 266.874Z" fill="#263238"/>
<path d="M106.708 271.98C106.765 272.34 106.723 272.708 106.586 273.046C106.449 273.384 106.223 273.678 105.932 273.897C105.381 274.254 104.838 273.967 104.714 273.261C104.659 272.901 104.701 272.533 104.838 272.195C104.974 271.858 105.2 271.564 105.49 271.344C106.041 270.995 106.584 271.274 106.708 271.98Z" fill="#263238"/>
<path d="M108.245 268.155C108.299 268.514 108.256 268.882 108.12 269.219C107.983 269.557 107.758 269.851 107.469 270.071C106.918 270.42 106.374 270.133 106.25 269.427C106.195 269.067 106.237 268.699 106.374 268.362C106.511 268.024 106.736 267.73 107.026 267.511C107.577 267.161 108.12 267.448 108.245 268.155Z" fill="#263238"/>
<path d="M104.271 270.708C104.327 271.067 104.284 271.436 104.147 271.773C104.011 272.11 103.785 272.405 103.495 272.624C102.952 272.974 102.401 272.686 102.277 271.98C102.224 271.622 102.267 271.255 102.404 270.92C102.54 270.584 102.765 270.291 103.053 270.071C103.604 269.714 104.147 270.001 104.271 270.708Z" fill="#263238"/>
<path d="M105.847 266.897C105.903 267.257 105.861 267.626 105.724 267.963C105.588 268.301 105.362 268.595 105.071 268.814C104.528 269.171 103.977 268.884 103.853 268.178C103.799 267.818 103.842 267.451 103.979 267.113C104.115 266.776 104.34 266.482 104.629 266.261C105.18 265.912 105.723 266.168 105.847 266.897Z" fill="#263238"/>
<path d="M106.747 272.011C106.802 272.371 106.759 272.739 106.622 273.076C106.486 273.413 106.261 273.708 105.971 273.928C105.428 274.277 104.877 273.99 104.753 273.284C104.699 272.924 104.743 272.557 104.879 272.22C105.016 271.882 105.24 271.588 105.529 271.367C106.08 271.018 106.623 271.305 106.747 272.011Z" fill="#263238"/>
<path d="M108.283 268.178C108.339 268.538 108.296 268.906 108.159 269.243C108.023 269.581 107.797 269.875 107.507 270.095C106.964 270.444 106.413 270.164 106.289 269.458C106.234 269.099 106.277 268.731 106.414 268.393C106.55 268.056 106.775 267.762 107.065 267.542C107.616 267.185 108.159 267.472 108.283 268.178Z" fill="#263238"/>
<path d="M104.318 270.731C104.372 271.091 104.329 271.458 104.192 271.795C104.056 272.132 103.831 272.427 103.542 272.648C102.991 272.997 102.448 272.717 102.324 272.011C102.268 271.651 102.31 271.283 102.447 270.945C102.583 270.608 102.809 270.314 103.1 270.095C103.643 269.738 104.194 270.048 104.318 270.731Z" fill="#263238"/>
<path d="M105.894 266.944C105.948 267.304 105.904 267.671 105.767 268.008C105.631 268.346 105.407 268.64 105.118 268.861C104.567 269.21 104.023 268.923 103.899 268.224C103.843 267.865 103.885 267.496 104.022 267.159C104.159 266.821 104.384 266.527 104.675 266.308C105.218 265.935 105.769 266.222 105.894 266.944Z" fill="#263238"/>
<path d="M106.793 272.035C106.847 272.394 106.803 272.762 106.667 273.099C106.53 273.436 106.306 273.73 106.017 273.951C105.466 274.3 104.923 274.021 104.799 273.315C104.742 272.955 104.785 272.587 104.921 272.249C105.058 271.912 105.284 271.617 105.575 271.398C106.118 271.041 106.669 271.328 106.793 272.035Z" fill="#263238"/>
<path d="M108.33 268.201C108.384 268.561 108.341 268.929 108.205 269.266C108.068 269.603 107.843 269.898 107.554 270.118C107.003 270.475 106.459 270.188 106.335 269.482C106.28 269.122 106.322 268.754 106.459 268.416C106.596 268.079 106.821 267.785 107.111 267.565C107.654 267.216 108.205 267.495 108.33 268.201Z" fill="#263238"/>
<path d="M104.357 270.754C104.413 271.114 104.371 271.482 104.234 271.82C104.098 272.158 103.872 272.452 103.581 272.671C103.03 273.028 102.487 272.741 102.363 272.035C102.307 271.675 102.35 271.307 102.486 270.969C102.623 270.632 102.848 270.338 103.139 270.118C103.69 269.769 104.233 270.048 104.357 270.754Z" fill="#263238"/>
<path d="M105.932 266.944C105.988 267.304 105.946 267.672 105.809 268.01C105.672 268.347 105.447 268.642 105.156 268.861C104.605 269.218 104.062 268.931 103.937 268.224C103.881 267.865 103.923 267.496 104.06 267.159C104.197 266.821 104.423 266.527 104.713 266.308C105.264 265.958 105.808 266.246 105.932 266.944Z" fill="#263238"/>
<path d="M106.832 272.058C106.889 272.418 106.847 272.786 106.71 273.124C106.573 273.461 106.347 273.755 106.056 273.975C105.505 274.332 104.962 274.044 104.838 273.338C104.783 272.978 104.825 272.61 104.962 272.273C105.099 271.935 105.324 271.641 105.614 271.422C106.165 271.072 106.708 271.352 106.832 272.058Z" fill="#263238"/>
<path d="M108.369 268.232C108.425 268.592 108.382 268.96 108.245 269.297C108.109 269.635 107.883 269.929 107.593 270.149C107.042 270.498 106.499 270.211 106.375 269.505C106.32 269.146 106.363 268.779 106.5 268.443C106.636 268.107 106.861 267.814 107.151 267.596C107.702 267.239 108.245 267.526 108.369 268.232Z" fill="#263238"/>
<path d="M104.396 270.824C104.451 271.184 104.408 271.552 104.272 271.889C104.135 272.227 103.91 272.521 103.62 272.741C103.076 273.09 102.525 272.803 102.401 272.104C102.345 271.745 102.387 271.376 102.524 271.039C102.661 270.701 102.886 270.407 103.177 270.188C103.728 269.792 104.271 270.048 104.396 270.824Z" fill="#263238"/>
<path d="M105.971 266.983C106.026 267.341 105.983 267.708 105.846 268.044C105.71 268.38 105.485 268.673 105.195 268.892C104.644 269.249 104.101 268.962 103.977 268.255C103.921 267.896 103.964 267.528 104.101 267.19C104.237 266.853 104.463 266.559 104.753 266.339C105.304 265.99 105.847 266.277 105.971 266.983Z" fill="#263238"/>
<path d="M106.871 272.089C106.927 272.449 106.884 272.817 106.747 273.154C106.611 273.492 106.385 273.786 106.095 274.006C105.552 274.355 105.001 274.068 104.877 273.362C104.822 273.003 104.865 272.636 105.001 272.3C105.138 271.964 105.363 271.671 105.653 271.453C106.204 271.096 106.747 271.383 106.871 272.089Z" fill="#263238"/>
<path d="M108.408 268.255C108.464 268.615 108.421 268.983 108.284 269.321C108.148 269.658 107.922 269.952 107.632 270.172C107.089 270.521 106.538 270.242 106.414 269.536C106.359 269.176 106.402 268.808 106.539 268.471C106.675 268.134 106.9 267.839 107.19 267.619C107.741 267.262 108.284 267.549 108.408 268.255Z" fill="#263238"/>
<path d="M104.434 270.824C104.491 271.184 104.448 271.552 104.312 271.89C104.175 272.227 103.949 272.522 103.658 272.741C103.115 273.098 102.572 272.811 102.44 272.104C102.385 271.745 102.428 271.377 102.565 271.04C102.702 270.702 102.926 270.408 103.216 270.188C103.767 269.815 104.31 270.102 104.434 270.824Z" fill="#263238"/>
<path d="M106.01 267.006C106.065 267.366 106.022 267.734 105.886 268.071C105.749 268.409 105.524 268.703 105.234 268.923C104.69 269.272 104.139 268.985 104.015 268.287C103.96 267.927 104.004 267.559 104.14 267.222C104.277 266.884 104.502 266.59 104.791 266.37C105.342 266.013 105.885 266.3 106.01 267.006Z" fill="#263238"/>
<path d="M106.91 272.112C106.966 272.472 106.923 272.84 106.786 273.177C106.65 273.515 106.425 273.809 106.134 274.029C105.591 274.378 105.048 274.099 104.924 273.393C104.867 273.033 104.91 272.664 105.046 272.327C105.183 271.989 105.409 271.695 105.7 271.476C106.243 271.119 106.786 271.406 106.91 272.112Z" fill="#263238"/>
<path d="M108.455 268.279C108.509 268.638 108.466 269.006 108.33 269.344C108.193 269.681 107.968 269.975 107.679 270.195C107.128 270.552 106.584 270.265 106.46 269.559C106.405 269.199 106.447 268.831 106.584 268.494C106.721 268.156 106.946 267.862 107.236 267.642C107.779 267.293 108.33 267.58 108.455 268.279Z" fill="#263238"/>
<path d="M104.481 270.824C104.534 271.183 104.49 271.549 104.354 271.885C104.217 272.22 103.993 272.513 103.705 272.733C103.154 273.09 102.611 272.803 102.487 272.097C102.431 271.737 102.474 271.369 102.61 271.031C102.747 270.694 102.972 270.4 103.263 270.18C103.806 269.846 104.357 270.133 104.481 270.824Z" fill="#263238"/>
<path d="M106.056 267.029C106.111 267.389 106.068 267.757 105.931 268.094C105.795 268.432 105.57 268.726 105.28 268.946C104.729 269.303 104.186 269.016 104.062 268.31C104.006 267.95 104.049 267.582 104.186 267.244C104.322 266.907 104.548 266.613 104.838 266.393C105.381 266.044 105.932 266.323 106.056 267.029Z" fill="#263238"/>
<path d="M106.956 272.135C107.011 272.495 106.968 272.863 106.832 273.2C106.695 273.538 106.47 273.832 106.18 274.052C105.63 274.409 105.086 274.122 104.962 273.416C104.907 273.056 104.949 272.688 105.086 272.351C105.223 272.013 105.448 271.719 105.738 271.499C106.312 271.15 106.832 271.437 106.956 272.135Z" fill="#263238"/>
<path d="M108.493 268.31C108.549 268.67 108.506 269.038 108.369 269.375C108.233 269.713 108.007 270.007 107.717 270.226C107.166 270.576 106.623 270.289 106.499 269.59C106.442 269.23 106.485 268.862 106.621 268.524C106.758 268.187 106.984 267.893 107.275 267.673C107.865 267.316 108.369 267.604 108.493 268.31Z" fill="#263238"/>
<path d="M104.52 270.863C104.575 271.223 104.532 271.591 104.396 271.928C104.259 272.266 104.034 272.56 103.744 272.78C103.193 273.129 102.649 272.842 102.525 272.143C102.469 271.783 102.511 271.415 102.648 271.077C102.785 270.74 103.01 270.446 103.301 270.226C103.852 269.87 104.395 270.157 104.52 270.863Z" fill="#263238"/>
<path d="M106.095 267.06C106.15 267.42 106.107 267.788 105.97 268.125C105.834 268.463 105.609 268.757 105.319 268.977C104.768 269.326 104.225 269.039 104.101 268.333C104.045 267.973 104.088 267.605 104.225 267.268C104.361 266.93 104.587 266.636 104.877 266.416C105.428 266.067 105.971 266.354 106.095 267.06Z" fill="#263238"/>
<path d="M106.995 272.166C107.051 272.526 107.008 272.894 106.871 273.232C106.735 273.569 106.509 273.863 106.219 274.083C105.668 274.432 105.125 274.145 105.001 273.447C104.944 273.087 104.987 272.719 105.123 272.381C105.26 272.043 105.486 271.749 105.777 271.53C106.312 271.173 106.871 271.46 106.995 272.166Z" fill="#263238"/>
<path d="M108.532 268.333C108.589 268.693 108.546 269.061 108.409 269.399C108.273 269.736 108.047 270.031 107.756 270.25C107.213 270.607 106.662 270.32 106.538 269.613C106.483 269.254 106.526 268.886 106.663 268.549C106.799 268.211 107.024 267.917 107.314 267.697C107.865 267.34 108.408 267.627 108.532 268.333Z" fill="#263238"/>
<path d="M104.559 270.886C104.615 271.246 104.573 271.614 104.436 271.952C104.3 272.29 104.074 272.584 103.783 272.803C103.24 273.16 102.689 272.873 102.564 272.167C102.511 271.807 102.554 271.439 102.691 271.102C102.827 270.765 103.051 270.471 103.34 270.25C103.891 269.901 104.435 270.18 104.559 270.886Z" fill="#263238"/>
<path d="M120.699 257.733L121.274 258.036L119.287 259.316L118.713 259.013L120.699 257.733Z" fill="#263238"/>
<path d="M119.163 261.566L119.738 261.869L117.751 263.142L117.177 262.839L119.163 261.566Z" fill="#263238"/>
<path d="M121.724 260.589L121.615 259.991L123.144 259.013L123.71 259.316L121.724 260.589Z" fill="#263238"/>
<path d="M117.177 262.839L117.751 263.142L118.201 265.695L117.627 265.4L117.177 262.839Z" fill="#263238"/>
<path d="M120.063 266.672L120.637 266.975L120.187 264.422L119.722 264.725L120.063 266.672Z" fill="#263238"/>
<path d="M106.095 267.06C106.15 267.42 106.107 267.788 105.97 268.125C105.834 268.463 105.609 268.757 105.319 268.977C104.768 269.326 104.225 269.039 104.101 268.333C104.045 267.973 104.088 267.605 104.225 267.268C104.361 266.93 104.587 266.636 104.877 266.416C105.428 266.067 105.971 266.354 106.095 267.06Z" fill="#407BFF"/>
<path d="M106.995 272.166C107.051 272.526 107.008 272.894 106.871 273.232C106.735 273.569 106.509 273.863 106.219 274.083C105.668 274.432 105.125 274.145 105.001 273.447C104.944 273.087 104.987 272.719 105.123 272.381C105.26 272.043 105.486 271.749 105.777 271.53C106.312 271.173 106.871 271.46 106.995 272.166Z" fill="#407BFF"/>
<path d="M108.532 268.333C108.589 268.693 108.546 269.061 108.409 269.399C108.273 269.736 108.047 270.031 107.756 270.25C107.213 270.607 106.662 270.32 106.538 269.613C106.483 269.254 106.526 268.886 106.663 268.549C106.799 268.211 107.024 267.917 107.314 267.697C107.865 267.34 108.408 267.627 108.532 268.333Z" fill="#407BFF"/>
<path d="M104.559 270.886C104.615 271.246 104.573 271.614 104.436 271.952C104.3 272.29 104.074 272.584 103.783 272.803C103.24 273.16 102.689 272.873 102.564 272.167C102.511 271.807 102.554 271.439 102.691 271.102C102.827 270.765 103.051 270.471 103.34 270.25C103.891 269.901 104.435 270.18 104.559 270.886Z" fill="#407BFF"/>
<path d="M125.185 50.1994L116.843 55.0106C116.889 54.6452 116.912 54.2771 116.912 53.9087V51.4954C116.912 47.1963 113.894 45.4503 110.177 47.6154C108.57 48.5999 107.198 49.9242 106.157 51.4954C105.544 46.0634 101.307 44.0768 96.1544 47.0489C90.5827 50.2693 86.0664 58.0914 86.0664 64.5166V68.1328C86.0309 69.5761 86.3227 71.0088 86.92 72.3232L79.9903 76.3196C78.902 77.0303 77.9964 77.9872 77.3466 79.1129C76.6968 80.2385 76.3211 81.5014 76.25 82.7992C76.25 85.1815 77.9262 86.1515 79.9903 84.9565L125.185 58.8674C126.273 58.1567 127.179 57.1998 127.828 56.0741C128.478 54.9484 128.854 53.6856 128.925 52.3878C128.925 49.9744 127.264 49.0044 125.185 50.1994Z" fill="#F0F0F0"/>
<path d="M298.504 267.029L296.952 266.152L298.054 265.656C298.054 265.656 298.915 265.889 298.939 265.927C298.932 266.128 298.911 266.327 298.877 266.525L298.504 267.029Z" fill="#E0E0E0"/>
<path d="M298.504 267.029L296.952 266.152L298.054 265.656C298.054 265.656 298.915 265.889 298.939 265.927C298.932 266.128 298.911 266.327 298.877 266.525L298.504 267.029Z" fill="#407BFF"/>
<path opacity="0.1" d="M298.504 267.029L296.952 266.152L298.054 265.656C298.054 265.656 298.915 265.889 298.939 265.927C298.932 266.128 298.911 266.327 298.877 266.525L298.504 267.029Z" fill="white"/>
<path d="M240.754 296.122C241.442 296.47 242.202 296.652 242.974 296.652C243.745 296.652 244.505 296.47 245.193 296.122L294.966 267.41L220.47 224.388L218.731 223.387L168.959 252.099C167.74 252.805 167.74 253.962 168.959 254.66L240.754 296.122Z" fill="#407BFF"/>
<path opacity="0.8" d="M240.754 296.122C241.442 296.47 242.202 296.652 242.974 296.652C243.745 296.652 244.505 296.47 245.193 296.122L294.966 267.41L220.47 224.388L218.731 223.387L168.959 252.099C167.74 252.805 167.74 253.962 168.959 254.66L240.754 296.122Z" fill="white"/>
<path d="M259.448 241.833L276.807 251.82L288.044 245.332L301.088 252.891V262.288C301.088 263.429 299.808 265.051 299.342 264.787C298.481 264.995 297.644 265.291 296.843 265.671C295.538 266.414 294.327 267.31 293.235 268.341L253.349 245.317L259.448 241.833Z" fill="#E0E0E0"/>
<path d="M259.448 241.833L276.807 251.82L288.044 245.332L301.088 252.891V262.288C301.088 263.429 299.808 265.051 299.342 264.787C298.481 264.995 297.644 265.291 296.843 265.671C295.538 266.414 294.327 267.31 293.235 268.341L253.349 245.317L259.448 241.833Z" fill="#407BFF"/>
<path opacity="0.1" d="M259.448 241.833L276.807 251.82L288.044 245.332L301.088 252.891V262.288C301.088 263.429 299.808 265.051 299.342 264.787C298.481 264.995 297.644 265.291 296.843 265.671C295.538 266.414 294.327 267.31 293.235 268.341L253.349 245.317L259.448 241.833Z" fill="white"/>
<path d="M245.216 296.114L248.22 294.376L293.282 268.364C293.316 267.776 293.53 267.212 293.895 266.75C294.427 266.043 295.098 265.451 295.866 265.012C296.509 264.618 297.24 264.391 297.992 264.352C298.496 264.345 298.987 264.506 299.389 264.81C299.976 263.658 300.261 262.377 300.219 261.085H301.927C301.927 263.413 301.151 265.803 300.196 266.346L299.335 266.851C298.846 267.13 298.458 267.146 298.458 266.851V266.393C298.458 265.881 297.682 265.904 296.72 266.463C295.757 267.022 294.989 267.875 294.989 268.387V268.853C294.989 269.117 294.322 269.707 293.515 270.172L249.935 295.338L245.216 298.054C244.534 298.407 243.774 298.586 243.005 298.574V296.603C243.772 296.634 244.534 296.466 245.216 296.114Z" fill="#407BFF"/>
<path opacity="0.6" d="M245.216 296.114L248.22 294.376L293.282 268.364C293.316 267.776 293.53 267.212 293.895 266.75C294.427 266.043 295.098 265.451 295.866 265.012C296.509 264.618 297.24 264.391 297.992 264.352C298.496 264.345 298.987 264.506 299.389 264.81C299.976 263.658 300.261 262.377 300.219 261.085H301.927C301.927 263.413 301.151 265.803 300.196 266.346L299.335 266.851C298.846 267.13 298.458 267.146 298.458 266.851V266.393C298.458 265.881 297.682 265.904 296.72 266.463C295.757 267.022 294.989 267.875 294.989 268.387V268.853C294.989 269.117 294.322 269.707 293.515 270.172L249.935 295.338L245.216 298.054C244.534 298.407 243.774 298.586 243.005 298.574V296.603C243.772 296.634 244.534 296.466 245.216 296.114Z" fill="white"/>
<path d="M168.027 253.341V255.351C168.053 255.619 168.148 255.876 168.303 256.096C168.458 256.317 168.668 256.493 168.912 256.608L236.013 295.346L240.723 298.062C241.406 298.415 242.166 298.593 242.935 298.581V296.61C242.161 296.629 241.396 296.444 240.715 296.075L237.72 294.345L168.912 254.606C168.667 254.49 168.456 254.313 168.301 254.091C168.146 253.869 168.052 253.61 168.027 253.341Z" fill="#407BFF"/>
<path opacity="0.1" d="M168.027 253.341V255.351C168.053 255.619 168.148 255.876 168.303 256.096C168.458 256.317 168.668 256.493 168.912 256.608L236.013 295.346L240.723 298.062C241.406 298.415 242.166 298.593 242.935 298.581V296.61C242.161 296.629 241.396 296.444 240.715 296.075L237.72 294.345L168.912 254.606C168.667 254.49 168.456 254.313 168.301 254.091C168.146 253.869 168.052 253.61 168.027 253.341Z" fill="white"/>
<path d="M242.974 283.364V294.88C243.487 294.895 243.996 294.775 244.448 294.531L249.88 291.38L291.466 267.371V255.358L242.974 283.364Z" fill="white"/>
<path d="M170.192 242.779V251.634C170.22 252.146 170.367 252.645 170.624 253.09C170.88 253.535 171.237 253.913 171.667 254.194L236.075 291.365L241.507 294.515C241.959 294.758 242.468 294.879 242.981 294.864V284.583L170.192 242.779Z" fill="#F0F0F0"/>
<path d="M291.497 267.355C291.538 266.766 291.758 266.203 292.126 265.741C292.66 265.038 293.33 264.45 294.097 264.011C294.734 263.611 295.464 263.382 296.215 263.343C296.721 263.339 297.214 263.5 297.62 263.801V251.812L291.513 255.343L291.497 267.355Z" fill="#455A64"/>
<path d="M293.941 264.112C293.234 264.529 292.617 265.083 292.126 265.741C291.758 266.203 291.538 266.766 291.497 267.355V255.901H293.934L293.941 264.112Z" fill="#F5F5F5"/>
<path d="M220.454 210.296L294.95 253.317V254.318C294.95 254.869 295.726 255.094 296.681 254.52C297.635 253.946 298.419 253.279 298.419 252.324L298.512 251.377L222.596 207.549L222.293 207.37C222.214 207.511 222.169 207.667 222.161 207.828V208.294C222.177 208.868 221.409 209.761 220.454 210.296Z" fill="#407BFF"/>
<path opacity="0.6" d="M220.454 210.296L294.95 253.317V254.318C294.95 254.869 295.726 255.094 296.681 254.52C297.635 253.946 298.419 253.279 298.419 252.324L298.512 251.377L222.596 207.549L222.293 207.37C222.214 207.511 222.169 207.667 222.161 207.828V208.294C222.177 208.868 221.409 209.761 220.454 210.296Z" fill="white"/>
<path d="M245.216 282.084L293.887 253.977C294.5 253.659 295.067 253.395 295.307 253.519L294.989 253.341L220.493 210.319L219.624 209.815C219.234 209.704 218.824 209.677 218.422 209.738C218.021 209.798 217.637 209.943 217.296 210.164L169.006 238.054C167.787 238.76 167.787 239.908 169.006 240.614L240.817 282.084C241.499 282.426 242.253 282.604 243.017 282.604C243.78 282.604 244.534 282.426 245.216 282.084Z" fill="#407BFF"/>
<path opacity="0.8" d="M245.216 282.084L293.887 253.977C294.5 253.659 295.067 253.395 295.307 253.519L294.989 253.341L220.493 210.319L219.624 209.815C219.234 209.704 218.824 209.677 218.422 209.738C218.021 209.798 217.637 209.943 217.296 210.164L169.006 238.054C167.787 238.76 167.787 239.908 169.006 240.614L240.817 282.084C241.499 282.426 242.253 282.604 243.017 282.604C243.78 282.604 244.534 282.426 245.216 282.084Z" fill="white"/>
<path d="M222.309 207.394L222.611 207.572L298.527 251.424C298.566 251.343 298.621 251.272 298.69 251.215L298.946 251.067L299.497 250.757L300.172 250.361C300.303 250.274 300.46 250.234 300.617 250.248C300.773 250.262 300.92 250.329 301.034 250.439C301.066 250.46 301.095 250.486 301.119 250.516C301.211 250.609 301.287 250.717 301.344 250.834C301.427 250.969 301.494 251.112 301.546 251.261C301.605 251.421 301.655 251.584 301.693 251.75C301.74 251.944 301.771 252.13 301.81 252.332C301.831 252.447 301.844 252.564 301.849 252.681C301.849 252.774 301.849 252.86 301.849 252.968C301.849 253.077 301.849 253.403 301.849 253.628V251.494C301.768 250.793 301.526 250.12 301.141 249.529C300.756 248.937 300.238 248.444 299.629 248.087L227.81 206.618C227.219 206.269 226.554 206.061 225.869 206.011C225.184 205.961 224.497 206.071 223.861 206.331L222.953 206.858L222.565 207.076C222.452 207.157 222.364 207.267 222.309 207.394Z" fill="#407BFF"/>
<path opacity="0.8" d="M222.309 207.394L222.611 207.572L298.527 251.424C298.566 251.343 298.621 251.272 298.69 251.215L298.946 251.067L299.497 250.757L300.172 250.361C300.303 250.274 300.46 250.234 300.617 250.248C300.773 250.262 300.92 250.329 301.034 250.439C301.066 250.46 301.095 250.486 301.119 250.516C301.211 250.609 301.287 250.717 301.344 250.834C301.427 250.969 301.494 251.112 301.546 251.261C301.605 251.421 301.655 251.584 301.693 251.75C301.74 251.944 301.771 252.13 301.81 252.332C301.831 252.447 301.844 252.564 301.849 252.681C301.849 252.774 301.849 252.86 301.849 252.968C301.849 253.077 301.849 253.403 301.849 253.628V251.494C301.768 250.793 301.526 250.12 301.141 249.529C300.756 248.937 300.238 248.444 299.629 248.087L227.81 206.618C227.219 206.269 226.554 206.061 225.869 206.011C225.184 205.961 224.497 206.071 223.861 206.331L222.953 206.858L222.565 207.076C222.452 207.157 222.364 207.267 222.309 207.394Z" fill="white"/>
<path d="M245.216 282.091L248.227 280.345L282.844 260.371L293.894 253.993C294.67 253.527 295.322 253.364 295.361 253.605V254.101C295.361 254.66 296.137 254.66 297.091 254.101C297.445 253.947 297.755 253.708 297.994 253.404C298.232 253.101 298.391 252.743 298.457 252.363V251.82C298.446 251.699 298.463 251.577 298.507 251.463C298.552 251.35 298.622 251.249 298.713 251.168L298.969 251.02L299.52 250.71L300.195 250.314C300.326 250.227 300.483 250.187 300.64 250.202C300.796 250.216 300.943 250.283 301.057 250.392C301.089 250.413 301.118 250.44 301.142 250.469C301.2 250.53 301.249 250.598 301.29 250.671C301.322 250.705 301.349 250.744 301.367 250.788C301.45 250.922 301.517 251.065 301.569 251.214C301.628 251.374 301.678 251.537 301.716 251.703C301.763 251.897 301.794 252.084 301.833 252.285C301.854 252.401 301.867 252.517 301.872 252.635C301.872 252.728 301.872 252.813 301.872 252.922C301.872 253.03 301.872 253.356 301.872 253.581V261.062H300.164V253.581C300.164 253.403 300.164 253.224 300.164 253.054L300.118 252.627C300.121 252.614 300.121 252.601 300.118 252.588C299.963 253.946 298.667 255.157 297.541 255.793C296.917 256.187 296.2 256.412 295.462 256.445C294.893 256.452 294.34 256.25 293.91 255.878L293.755 255.964L293.46 256.142L249.88 281.308L245.216 284.055C244.544 284.399 243.798 284.572 243.043 284.559V282.588C243.797 282.604 244.543 282.433 245.216 282.091Z" fill="#407BFF"/>
<path opacity="0.6" d="M245.216 282.091L248.227 280.345L282.844 260.371L293.894 253.993C294.67 253.527 295.322 253.364 295.361 253.605V254.101C295.361 254.66 296.137 254.66 297.091 254.101C297.445 253.947 297.755 253.708 297.994 253.404C298.232 253.101 298.391 252.743 298.457 252.363V251.82C298.446 251.699 298.463 251.577 298.507 251.463C298.552 251.35 298.622 251.249 298.713 251.168L298.969 251.02L299.52 250.71L300.195 250.314C300.326 250.227 300.483 250.187 300.64 250.202C300.796 250.216 300.943 250.283 301.057 250.392C301.089 250.413 301.118 250.44 301.142 250.469C301.2 250.53 301.249 250.598 301.29 250.671C301.322 250.705 301.349 250.744 301.367 250.788C301.45 250.922 301.517 251.065 301.569 251.214C301.628 251.374 301.678 251.537 301.716 251.703C301.763 251.897 301.794 252.084 301.833 252.285C301.854 252.401 301.867 252.517 301.872 252.635C301.872 252.728 301.872 252.813 301.872 252.922C301.872 253.03 301.872 253.356 301.872 253.581V261.062H300.164V253.581C300.164 253.403 300.164 253.224 300.164 253.054L300.118 252.627C300.121 252.614 300.121 252.601 300.118 252.588C299.963 253.946 298.667 255.157 297.541 255.793C296.917 256.187 296.2 256.412 295.462 256.445C294.893 256.452 294.34 256.25 293.91 255.878L293.755 255.964L293.46 256.142L249.88 281.308L245.216 284.055C244.544 284.399 243.798 284.572 243.043 284.559V282.588C243.797 282.604 244.543 282.433 245.216 282.091Z" fill="white"/>
<path d="M168.027 239.311V241.336C168.052 241.606 168.146 241.864 168.301 242.086C168.456 242.308 168.667 242.486 168.912 242.601L236.013 281.339L240.723 284.063C241.406 284.416 242.166 284.594 242.935 284.583V282.611C242.162 282.628 241.398 282.447 240.715 282.084L237.72 280.353L168.912 240.614C168.662 240.496 168.447 240.312 168.292 240.083C168.136 239.854 168.045 239.587 168.027 239.311Z" fill="#407BFF"/>
<path opacity="0.1" d="M168.027 239.311V241.336C168.052 241.606 168.146 241.864 168.301 242.086C168.456 242.308 168.667 242.486 168.912 242.601L236.013 281.339L240.723 284.063C241.406 284.416 242.166 284.594 242.935 284.583V282.611C242.162 282.628 241.398 282.447 240.715 282.084L237.72 280.353L168.912 240.614C168.662 240.496 168.447 240.312 168.292 240.083C168.136 239.854 168.045 239.587 168.027 239.311Z" fill="white"/>
<path d="M217.233 210.164C217.574 209.943 217.958 209.798 218.36 209.738C218.761 209.677 219.171 209.704 219.561 209.815L220.43 210.319C221.385 209.761 222.153 208.868 222.153 208.317V207.852C222.161 207.691 222.206 207.534 222.285 207.394C222.346 207.268 222.44 207.16 222.557 207.083L222.945 206.866L223.853 206.338C224.489 206.078 225.176 205.969 225.861 206.019C226.546 206.069 227.211 206.276 227.802 206.626L299.621 248.095L299.699 248.142L249.018 277.404C248.561 277.638 248.054 277.76 247.54 277.76C247.026 277.76 246.519 277.638 246.062 277.404L173.777 235.26L217.233 210.164Z" fill="#263238"/>
<path d="M253.077 273.152L251.16 272.05C251.676 271.871 252.23 271.83 252.766 271.934C253.279 272.198 253.077 273.152 253.077 273.152Z" fill="#407BFF"/>
<path opacity="0.7" d="M253.077 273.152L251.16 272.05C251.676 271.871 252.23 271.83 252.766 271.934C253.279 272.198 253.077 273.152 253.077 273.152Z" fill="black"/>
<path d="M254.396 271.965C254.178 271.728 253.914 271.54 253.619 271.411C253.325 271.282 253.007 271.215 252.685 271.215C252.364 271.215 252.046 271.282 251.751 271.411C251.457 271.54 251.192 271.728 250.974 271.965C249.104 273.68 249.011 275.379 248.235 275.356C247.459 275.333 247.459 261.659 247.459 261.659L254.839 268.496L254.396 271.965Z" fill="#407BFF"/>
<path opacity="0.7" d="M254.396 271.965C254.178 271.728 253.914 271.54 253.619 271.411C253.325 271.282 253.007 271.215 252.685 271.215C252.364 271.215 252.046 271.282 251.751 271.411C251.457 271.54 251.192 271.728 250.974 271.965C249.104 273.68 249.011 275.379 248.235 275.356C247.459 275.333 247.459 261.659 247.459 261.659L254.839 268.496L254.396 271.965Z" fill="black"/>
<path d="M177.246 222.262L177.122 222.192L178.302 221.509L229.114 192.176L303.152 240.087C304.371 240.793 304.588 241.817 303.633 242.36L301.903 243.361L254.412 270.824L254.07 270.576L177.246 222.262Z" fill="#407BFF"/>
<path opacity="0.5" d="M177.246 222.262L177.122 222.192L178.302 221.509L229.114 192.176L303.152 240.087C304.371 240.793 304.588 241.817 303.633 242.36L301.903 243.361L254.412 270.824L254.07 270.576L177.246 222.262Z" fill="black"/>
<path d="M248.072 255.188L251.75 254.412V269.156C249.531 270.102 248.118 270.987 247.87 272.842L248.072 255.188Z" fill="#455A64"/>
<path d="M253.372 269.35L300.421 242.19C300.852 241.909 301.211 241.532 301.469 241.087C301.726 240.642 301.875 240.142 301.903 239.629V225.11L254.397 252.774C254.397 252.774 253.83 254.831 252.146 255.475C250.462 256.119 251.75 256.778 251.75 256.778V269.194C253.202 268.985 253.372 269.35 253.372 269.35Z" fill="#F0F0F0"/>
<path d="M249.034 254.683C249.523 254.404 249.911 254.388 249.911 254.683V255.141C249.911 255.653 250.687 255.63 251.649 255.071C252.611 254.512 253.387 253.659 253.387 253.147V252.681C253.387 252.417 254.047 251.828 254.854 251.362L178.309 207.502L177.122 208.185C176.957 208.36 176.854 208.583 176.827 208.822V209.287C176.827 209.799 176.051 210.661 175.097 211.212C174.142 211.763 173.358 211.794 173.358 211.281V210.816C173.358 210.552 172.97 210.575 172.489 210.855L249.034 254.683Z" fill="#407BFF"/>
<path opacity="0.6" d="M249.034 254.683C249.523 254.404 249.911 254.388 249.911 254.683V255.141C249.911 255.653 250.687 255.63 251.649 255.071C252.611 254.512 253.387 253.659 253.387 253.147V252.681C253.387 252.417 254.047 251.828 254.854 251.362L178.309 207.502L177.122 208.185C176.957 208.36 176.854 208.583 176.827 208.822V209.287C176.827 209.799 176.051 210.661 175.097 211.212C174.142 211.763 173.358 211.794 173.358 211.281V210.816C173.358 210.552 172.97 210.575 172.489 210.855L249.034 254.683Z" fill="black"/>
<path d="M177.246 208.224L177.122 208.154L178.302 207.471L229.114 178.139L303.152 220.896C304.371 221.602 304.588 222.619 303.633 223.17L301.903 224.163L254.396 252.774L177.246 208.224Z" fill="#407BFF"/>
<path opacity="0.5" d="M177.246 208.224L177.122 208.154L178.302 207.471L229.114 178.139L303.152 220.896C304.371 221.602 304.588 222.619 303.633 223.17L301.903 224.163L254.396 252.774L177.246 208.224Z" fill="black"/>
<path d="M173.343 210.343L249.872 254.528L247.195 256.623L170.953 212.608C171.139 212.042 171.494 211.547 171.97 211.188L173.343 210.343Z" fill="#407BFF"/>
<path opacity="0.5" d="M173.343 210.343L249.872 254.528L247.195 256.623L170.953 212.608C171.139 212.042 171.494 211.547 171.97 211.188L173.343 210.343Z" fill="black"/>
<path d="M171.209 232.358C171.162 232.328 171.118 232.295 171.077 232.257C171.042 232.239 171.012 232.213 170.992 232.179C170.929 232.118 170.877 232.047 170.836 231.97C170.802 231.94 170.776 231.903 170.759 231.861C170.676 231.728 170.611 231.584 170.565 231.434C170.5 231.273 170.449 231.107 170.41 230.938C170.363 230.751 170.332 230.565 170.301 230.363C170.274 230.249 170.259 230.132 170.254 230.014V229.727C170.254 229.518 170.254 229.292 170.254 229.067V216.426C170.241 215.099 170.483 213.782 170.968 212.546L247.21 256.561L247.529 276.365L171.294 232.334L171.209 232.358Z" fill="#407BFF"/>
<path opacity="0.7" d="M171.209 232.358C171.162 232.328 171.118 232.295 171.077 232.257C171.042 232.239 171.012 232.213 170.992 232.179C170.929 232.118 170.877 232.047 170.836 231.97C170.802 231.94 170.776 231.903 170.759 231.861C170.676 231.728 170.611 231.584 170.565 231.434C170.5 231.273 170.449 231.107 170.41 230.938C170.363 230.751 170.332 230.565 170.301 230.363C170.274 230.249 170.259 230.132 170.254 230.014V229.727C170.254 229.518 170.254 229.292 170.254 229.067V216.426C170.241 215.099 170.483 213.782 170.968 212.546L247.21 256.561L247.529 276.365L171.294 232.334L171.209 232.358Z" fill="black"/>
<path opacity="0.79" d="M247.156 256.592C247.156 256.592 187.109 228.493 181.646 225.917C178.038 224.217 176.269 227.787 177.122 231.481C177.898 234.709 181.057 238.038 181.057 238.038L171.24 232.365C171.193 232.336 171.149 232.302 171.108 232.265C171.073 232.247 171.044 232.22 171.023 232.187C170.96 232.126 170.908 232.055 170.868 231.977C170.833 231.948 170.807 231.911 170.79 231.869C170.707 231.736 170.642 231.592 170.596 231.442C170.532 231.281 170.48 231.115 170.441 230.945C170.394 230.759 170.363 230.573 170.332 230.371C170.305 230.257 170.29 230.14 170.286 230.022V229.735C170.286 229.525 170.286 229.3 170.286 229.075V216.426C170.272 215.099 170.514 213.782 171 212.546L247.156 256.592Z" fill="#263238"/>
<path d="M246.45 260.449H248.157C248.117 259.158 248.4 257.878 248.98 256.724C249.386 257.025 249.879 257.186 250.385 257.182C251.136 257.144 251.865 256.914 252.503 256.515C253.271 256.078 253.942 255.489 254.474 254.784C254.515 254.736 254.551 254.684 254.583 254.629C254.884 254.199 255.059 253.694 255.087 253.17L300.149 227.158L301.701 226.266L303.657 225.141C303.827 225.063 303.973 224.94 304.078 224.786C304.183 224.631 304.244 224.451 304.254 224.264V222.27C304.246 222.46 304.186 222.644 304.081 222.803C303.975 222.961 303.829 223.088 303.657 223.17L298.481 226.15L254.909 251.315C254.094 251.781 253.434 252.371 253.434 252.635V253.1C253.386 253.395 253.244 253.667 253.031 253.876C252.657 254.326 252.205 254.705 251.696 254.994C250.734 255.552 249.958 255.576 249.958 255.063V254.606C249.958 254.334 249.577 254.357 249.089 254.606L248.227 255.11C247.226 255.731 246.45 258.098 246.45 260.449Z" fill="#407BFF"/>
<path d="M248.157 260.449V273.09C248.157 273.268 248.157 273.447 248.157 273.618L248.196 274.044C248.192 274.057 248.192 274.071 248.196 274.083C248.351 272.725 249.647 271.515 250.772 270.878C251.399 270.483 252.119 270.258 252.859 270.226C253.429 270.219 253.981 270.421 254.411 270.793L254.559 270.708L254.862 270.529L298.434 245.363L300.94 243.92L301.654 243.501L303.765 242.283C303.904 242.196 304.019 242.076 304.1 241.934C304.181 241.792 304.226 241.632 304.231 241.468V243.462C304.225 243.617 304.182 243.768 304.107 243.903C304.031 244.037 303.925 244.152 303.796 244.238C303.548 244.386 303.284 244.525 303.02 244.688L302.531 244.975L301.693 245.457C301.507 245.573 301.336 245.674 301.173 245.759C301.01 245.845 300.917 245.914 300.809 245.969L300.164 246.349L265.547 266.323L254.497 272.702C253.721 273.168 253.077 273.33 253.03 273.09C253.028 273.062 253.028 273.033 253.03 273.005V272.562C253.03 272.004 252.254 272.004 251.3 272.562C250.946 272.716 250.636 272.955 250.397 273.259C250.159 273.562 250 273.92 249.934 274.3V274.844C249.945 274.965 249.928 275.087 249.884 275.2C249.839 275.313 249.769 275.415 249.678 275.496L249.422 275.643L248.879 275.953L248.203 276.349C248.073 276.436 247.916 276.476 247.759 276.462C247.602 276.448 247.455 276.381 247.342 276.272C247.307 276.254 247.277 276.227 247.257 276.194C247.194 276.136 247.142 276.067 247.102 275.992C247.071 275.959 247.045 275.923 247.024 275.884C246.941 275.75 246.876 275.607 246.83 275.457C246.764 275.298 246.712 275.135 246.675 274.968C246.628 274.774 246.597 274.588 246.566 274.386C246.539 274.271 246.523 274.154 246.52 274.037C246.52 273.944 246.52 273.858 246.52 273.75C246.52 273.641 246.52 273.315 246.52 273.09V260.449H248.157Z" fill="#407BFF"/>
<g opacity="0.6">
<path d="M246.45 260.449H248.157C248.117 259.158 248.4 257.878 248.98 256.724C249.386 257.025 249.879 257.186 250.385 257.182C251.136 257.144 251.865 256.914 252.503 256.515C253.271 256.078 253.942 255.489 254.474 254.784C254.515 254.736 254.551 254.684 254.583 254.629C254.884 254.199 255.059 253.694 255.087 253.17L300.149 227.158L301.701 226.266L303.657 225.141C303.827 225.063 303.973 224.94 304.078 224.786C304.183 224.631 304.244 224.451 304.254 224.264V222.27C304.246 222.46 304.186 222.644 304.081 222.803C303.975 222.961 303.829 223.088 303.657 223.17L298.481 226.15L254.909 251.315C254.094 251.781 253.434 252.371 253.434 252.635V253.1C253.386 253.395 253.244 253.667 253.031 253.876C252.657 254.326 252.205 254.705 251.696 254.994C250.734 255.552 249.958 255.576 249.958 255.063V254.606C249.958 254.334 249.577 254.357 249.089 254.606L248.227 255.11C247.226 255.731 246.45 258.098 246.45 260.449Z" fill="black"/>
<path d="M248.158 260.449V273.09C248.158 273.268 248.158 273.447 248.158 273.618L248.197 274.044C248.193 274.057 248.193 274.071 248.197 274.083C248.352 272.725 249.648 271.515 250.773 270.878C251.4 270.483 252.12 270.258 252.86 270.226C253.43 270.219 253.982 270.421 254.412 270.793L254.56 270.708L254.863 270.529L298.435 245.363L300.941 243.92L301.655 243.501L303.766 242.283C303.905 242.196 304.02 242.076 304.101 241.934C304.182 241.792 304.227 241.632 304.232 241.468V243.462C304.226 243.617 304.183 243.768 304.108 243.903C304.032 244.037 303.926 244.152 303.797 244.238C303.549 244.386 303.285 244.525 303.021 244.688L302.532 244.975L301.694 245.457C301.508 245.573 301.337 245.674 301.174 245.759C301.011 245.845 300.918 245.914 300.809 245.969L300.165 246.349L265.548 266.323L254.498 272.702C253.722 273.168 253.078 273.33 253.031 273.09C253.029 273.062 253.029 273.033 253.031 273.005V272.562C253.031 272.004 252.255 272.004 251.301 272.562C250.947 272.716 250.637 272.955 250.398 273.259C250.16 273.562 250.001 273.92 249.935 274.3V274.844C249.946 274.965 249.929 275.087 249.885 275.2C249.84 275.313 249.77 275.415 249.679 275.496L249.423 275.643L248.88 275.953L248.204 276.349C248.073 276.436 247.917 276.476 247.76 276.462C247.603 276.448 247.456 276.381 247.343 276.272C247.308 276.254 247.278 276.227 247.258 276.194C247.195 276.136 247.143 276.067 247.103 275.992C247.072 275.959 247.046 275.923 247.025 275.884C246.942 275.75 246.877 275.607 246.831 275.457C246.765 275.298 246.713 275.135 246.676 274.968C246.629 274.774 246.598 274.588 246.567 274.386C246.54 274.271 246.524 274.154 246.521 274.037C246.521 273.944 246.521 273.858 246.521 273.75C246.521 273.641 246.521 273.315 246.521 273.09V260.449H248.158Z" fill="black"/>
</g>
<path d="M170.914 212.57L243.377 254.412L298.147 222.79C298.326 222.73 298.482 222.615 298.592 222.462C298.702 222.309 298.761 222.125 298.761 221.936C298.761 221.747 298.702 221.563 298.592 221.41C298.482 221.257 298.326 221.142 298.147 221.082L226.445 179.675L178.333 207.471L177.145 208.162C176.985 208.335 176.884 208.556 176.858 208.791V209.256C176.858 209.768 176.082 210.63 175.128 211.181C175.079 211.213 175.027 211.239 174.973 211.258L173.374 210.335L172.598 210.769L172.489 210.824L171.931 211.15C171.455 211.509 171.101 212.004 170.914 212.57Z" fill="#263238"/>
<path d="M294.104 223.1L291.924 221.936L293.91 221.463C294.101 221.686 294.222 221.96 294.256 222.252C294.291 222.543 294.238 222.839 294.104 223.1Z" fill="#E0E0E0"/>
<g style="mix-blend-mode:multiply" opacity="0.5">
<path d="M294.104 223.1L291.924 221.936L293.91 221.463C294.101 221.686 294.222 221.96 294.256 222.252C294.291 222.543 294.238 222.839 294.104 223.1Z" fill="#E0E0E0"/>
</g>
<path d="M236.316 252.2C237.002 252.548 237.761 252.73 238.531 252.73C239.301 252.73 240.06 252.548 240.747 252.2L290.519 223.488L216.023 176.393L214.277 175.384L164.512 208.162C163.294 208.868 163.294 210.017 164.512 210.723L236.316 252.2Z" fill="#407BFF"/>
<path d="M255.002 193.822L292.607 219.305L272.361 203.785L283.597 197.298L296.665 204.864V218.359C296.665 219.507 295.385 221.129 294.919 220.865C294.058 221.073 293.221 221.37 292.421 221.75C291.115 222.492 289.904 223.388 288.812 224.419L248.934 197.314L255.002 193.822Z" fill="#407BFF"/>
<path opacity="0.2" d="M255.002 193.822L292.607 219.305L272.361 203.785L283.597 197.298L296.665 204.864V218.359C296.665 219.507 295.385 221.129 294.919 220.865C294.058 221.073 293.221 221.37 292.421 221.75C291.115 222.492 289.904 223.388 288.812 224.419L248.934 197.314L255.002 193.822Z" fill="black"/>
<path d="M238.527 235.353V250.935C239.043 250.947 239.553 250.826 240.01 250.586L245.442 247.435L287.035 223.426V207.332L238.527 235.353Z" fill="white"/>
<path d="M165.746 194.776V207.712C165.775 208.224 165.923 208.723 166.179 209.168C166.435 209.612 166.792 209.991 167.221 210.273L231.628 247.443L237.06 250.594C237.514 250.833 238.022 250.953 238.535 250.943V236.571L165.746 194.776Z" fill="#F0F0F0"/>
<path d="M287.059 223.426C287.097 222.837 287.313 222.274 287.679 221.812C288.21 221.105 288.881 220.516 289.65 220.081C290.291 219.682 291.023 219.452 291.777 219.414C292.266 219.364 292.757 219.479 293.173 219.74V203.801L287.066 207.332L287.059 223.426Z" fill="#455A64"/>
<path d="M289.495 220.175C288.792 220.6 288.175 221.156 287.679 221.812C287.313 222.274 287.097 222.837 287.059 223.426V207.906H289.487L289.495 220.175Z" fill="#F5F5F5"/>
<path d="M216.016 162.308L290.512 205.337V206.331C290.512 206.889 291.288 207.107 292.242 206.54C293.197 205.974 293.988 205.291 293.988 204.336L294.081 203.39L218.165 159.561L217.855 159.383C217.777 159.526 217.734 159.685 217.731 159.848V160.306C217.738 160.857 216.97 161.749 216.016 162.308Z" fill="#407BFF"/>
<path opacity="0.2" d="M216.016 162.308L290.512 205.337V206.331C290.512 206.889 291.288 207.107 292.242 206.54C293.197 205.974 293.988 205.291 293.988 204.336L294.081 203.39L218.165 159.561L217.855 159.383C217.777 159.526 217.734 159.685 217.731 159.848V160.306C217.738 160.857 216.97 161.749 216.016 162.308Z" fill="black"/>
<path d="M240.747 234.073L289.448 205.974C290.069 205.648 290.636 205.384 290.868 205.508L290.55 205.337L216.054 162.308L215.177 161.812C214.787 161.696 214.377 161.667 213.975 161.727C213.572 161.788 213.188 161.936 212.849 162.161L164.512 190.042C163.294 190.749 163.294 191.905 164.512 192.603L236.331 234.073C237.016 234.418 237.772 234.599 238.539 234.599C239.306 234.599 240.062 234.418 240.747 234.073Z" fill="#407BFF"/>
<path d="M217.862 159.383L218.173 159.561L294.104 203.39C294.143 203.309 294.198 203.237 294.267 203.18L294.523 203.04L295.067 202.722L295.742 202.326C295.873 202.241 296.03 202.202 296.186 202.216C296.342 202.23 296.489 202.296 296.603 202.404C296.635 202.426 296.664 202.452 296.688 202.482C296.778 202.578 296.856 202.685 296.921 202.8C297.001 202.935 297.066 203.078 297.115 203.227C297.176 203.389 297.228 203.555 297.27 203.723C297.309 203.91 297.348 204.096 297.379 204.298C297.403 204.415 297.418 204.535 297.426 204.654V204.934C297.426 205.143 297.426 205.368 297.426 205.601V203.467C297.348 202.764 297.106 202.09 296.721 201.497C296.336 200.904 295.817 200.409 295.206 200.053L223.387 158.583C222.795 158.235 222.131 158.028 221.445 157.98C220.76 157.931 220.073 158.042 219.438 158.304L218.53 158.832L218.149 159.057C218.025 159.136 217.925 159.249 217.862 159.383Z" fill="#407BFF"/>
<path d="M240.747 252.2L243.75 250.462L288.812 224.442C288.852 223.854 289.068 223.292 289.433 222.828C289.966 222.124 290.636 221.535 291.404 221.098C292.044 220.704 292.772 220.478 293.523 220.438C294.029 220.428 294.524 220.589 294.927 220.896C295.506 219.739 295.789 218.457 295.75 217.164H297.457C297.457 219.492 296.681 221.882 295.726 222.433L294.865 222.937C294.376 223.216 293.996 223.232 293.996 222.937V222.479C293.996 221.967 293.22 221.99 292.25 222.541C291.28 223.092 290.519 223.961 290.519 224.474V224.931C290.519 225.195 289.86 225.785 289.045 226.258L245.465 251.424L240.747 254.148C240.064 254.501 239.304 254.68 238.535 254.668V252.697C239.303 252.723 240.064 252.552 240.747 252.2Z" fill="#407BFF"/>
<path opacity="0.4" d="M240.747 252.2L243.75 250.462L288.812 224.442C288.852 223.854 289.068 223.292 289.433 222.828C289.966 222.124 290.636 221.535 291.404 221.098C292.044 220.704 292.772 220.478 293.523 220.438C294.029 220.428 294.524 220.589 294.927 220.896C295.506 219.739 295.789 218.457 295.75 217.164H297.457C297.457 219.492 296.681 221.882 295.726 222.433L294.865 222.937C294.376 223.216 293.996 223.232 293.996 222.937V222.479C293.996 221.967 293.22 221.99 292.25 222.541C291.28 223.092 290.519 223.961 290.519 224.474V224.931C290.519 225.195 289.86 225.785 289.045 226.258L245.465 251.424L240.747 254.148C240.064 254.501 239.304 254.68 238.535 254.668V252.697C239.303 252.723 240.064 252.552 240.747 252.2Z" fill="black"/>
<path d="M240.731 234.08L243.734 232.342L278.352 212.368L289.449 205.974C290.225 205.516 290.876 205.353 290.923 205.593V206.098C290.923 206.649 291.699 206.649 292.653 206.098C293.008 205.943 293.319 205.703 293.557 205.398C293.796 205.093 293.955 204.733 294.019 204.352V203.809C294.008 203.688 294.025 203.565 294.07 203.452C294.114 203.339 294.185 203.238 294.275 203.157L294.531 203.017L295.075 202.699L295.75 202.303C295.881 202.218 296.038 202.179 296.194 202.193C296.35 202.207 296.497 202.273 296.611 202.381C296.643 202.402 296.672 202.429 296.696 202.458C296.757 202.521 296.809 202.592 296.852 202.668C296.881 202.701 296.907 202.738 296.929 202.777C297.009 202.911 297.074 203.054 297.123 203.203C297.184 203.366 297.236 203.532 297.278 203.7C297.317 203.886 297.356 204.072 297.387 204.274C297.411 204.392 297.426 204.511 297.434 204.631V204.911C297.434 205.12 297.434 205.345 297.434 205.578V217.125H295.726V205.64C295.726 205.462 295.726 205.275 295.726 205.105L295.688 204.678C295.532 206.036 294.236 207.246 293.104 207.883C292.48 208.279 291.762 208.504 291.024 208.534C290.455 208.542 289.903 208.34 289.472 207.968L289.324 208.053L289.022 208.232L245.442 233.398L240.724 236.121C240.049 236.466 239.3 236.639 238.543 236.626V234.655C239.309 234.649 240.061 234.452 240.731 234.08Z" fill="#407BFF"/>
<path opacity="0.4" d="M240.731 234.08L243.734 232.342L278.352 212.368L289.449 205.974C290.225 205.516 290.876 205.353 290.923 205.593V206.098C290.923 206.649 291.699 206.649 292.653 206.098C293.008 205.943 293.319 205.703 293.557 205.398C293.796 205.093 293.955 204.733 294.019 204.352V203.809C294.008 203.688 294.025 203.565 294.07 203.452C294.114 203.339 294.185 203.238 294.275 203.157L294.531 203.017L295.075 202.699L295.75 202.303C295.881 202.218 296.038 202.179 296.194 202.193C296.35 202.207 296.497 202.273 296.611 202.381C296.643 202.402 296.672 202.429 296.696 202.458C296.757 202.521 296.809 202.592 296.852 202.668C296.881 202.701 296.907 202.738 296.929 202.777C297.009 202.911 297.074 203.054 297.123 203.203C297.184 203.366 297.236 203.532 297.278 203.7C297.317 203.886 297.356 204.072 297.387 204.274C297.411 204.392 297.426 204.511 297.434 204.631V204.911C297.434 205.12 297.434 205.345 297.434 205.578V217.125H295.726V205.64C295.726 205.462 295.726 205.275 295.726 205.105L295.688 204.678C295.532 206.036 294.236 207.246 293.104 207.883C292.48 208.279 291.762 208.504 291.024 208.534C290.455 208.542 289.903 208.34 289.472 207.968L289.324 208.053L289.022 208.232L245.442 233.398L240.724 236.121C240.049 236.466 239.3 236.639 238.543 236.626V234.655C239.309 234.649 240.061 234.452 240.731 234.08Z" fill="black"/>
<path d="M163.589 191.3V193.302C163.612 193.57 163.706 193.829 163.859 194.05C164.013 194.272 164.222 194.45 164.466 194.566L231.574 233.304L236.285 236.028C236.965 236.38 237.722 236.559 238.488 236.548V234.577C237.718 234.594 236.956 234.412 236.277 234.049L233.281 232.319L164.512 192.603C164.252 192.494 164.027 192.315 163.863 192.084C163.7 191.853 163.605 191.582 163.589 191.3Z" fill="#407BFF"/>
<path opacity="0.2" d="M163.589 191.3V193.302C163.612 193.57 163.706 193.829 163.859 194.05C164.013 194.272 164.222 194.45 164.466 194.566L231.574 233.304L236.285 236.028C236.965 236.38 237.722 236.559 238.488 236.548V234.577C237.718 234.594 236.956 234.412 236.277 234.049L233.281 232.319L164.512 192.603C164.252 192.494 164.027 192.315 163.863 192.084C163.7 191.853 163.605 191.582 163.589 191.3Z" fill="black"/>
<path d="M163.589 209.411V211.413C163.612 211.682 163.706 211.94 163.859 212.162C164.013 212.384 164.222 212.562 164.466 212.678L231.605 251.424L236.316 254.148C236.996 254.5 237.753 254.678 238.519 254.668V252.697C237.749 252.714 236.987 252.532 236.308 252.169L233.312 250.438L164.512 210.715C164.252 210.606 164.027 210.426 163.863 210.196C163.7 209.965 163.605 209.693 163.589 209.411Z" fill="#407BFF"/>
<path opacity="0.2" d="M163.589 209.411V211.413C163.612 211.682 163.706 211.94 163.859 212.162C164.013 212.384 164.222 212.562 164.466 212.678L231.605 251.424L236.316 254.148C236.996 254.5 237.753 254.678 238.519 254.668V252.697C237.749 252.714 236.987 252.532 236.308 252.169L233.312 250.438L164.512 210.715C164.252 210.606 164.027 210.426 163.863 210.196C163.7 209.965 163.605 209.693 163.589 209.411Z" fill="black"/>
<path d="M194.583 139.005L187.459 151.7L197.842 157.225L205.4 145.973L194.583 139.005Z" fill="#FFA8A7"/>
<path d="M219.856 110.409C215.899 109.734 209.908 109.556 206.013 116.237C202.117 122.918 193.721 139.408 193.721 139.408C193.721 139.408 198.625 145.756 205.725 146.912L217.327 128.506L219.856 110.409Z" fill="#407BFF"/>
<path d="M210.505 265.889H201.644V281.059H210.505V265.889Z" fill="#FFA8A7"/>
<path d="M184.851 262.195L175.989 262.498L175.547 246.442L184.401 246.139L184.851 262.195Z" fill="#FFA8A7"/>
<path d="M201.644 276.683V275.418C200.798 275.783 198.827 283.302 195.312 286.507C192.518 289.06 188.708 292.001 187.738 294.841C186.729 297.798 193.046 299.435 195.653 298.969C198.687 298.434 203.949 296.3 205.268 294.313C206.587 292.327 207.208 289.417 208.279 287.966C209.35 286.515 211.825 284.862 212.407 283.209C212.725 282.285 212.345 280.268 211.903 278.553C211.491 277.001 211.041 275.263 210.506 275.41V276.372C209.862 277.086 208.085 277.792 206.075 277.87C204.779 277.932 201.636 277.676 201.644 276.683Z" fill="#263238"/>
<path d="M175.896 259.766C175.438 259.766 175.066 260.433 174.049 261.528C172.533 263.06 170.77 264.327 168.834 265.276C165.513 266.944 159.08 269.497 156.147 270.824C154.323 271.647 154.409 273.85 156.294 275.108C158.18 276.365 162.727 277.265 168.198 276.039C171.17 275.371 175.05 272.624 177.51 272.772C179.97 272.919 184.556 272.888 186.364 271.639C188.172 270.389 187.451 267.759 186.938 265.431C186.38 262.932 185.58 259.106 184.75 259.277V260.053C183.687 261.667 178.263 262.327 175.919 261.14L175.896 259.766Z" fill="#263238"/>
<path d="M246.202 173.63C248.142 187.326 245.527 189.926 232.513 203.071C225.529 210.125 214.239 220.469 214.239 220.469C214.239 220.469 214.402 224.846 214.487 234.655C214.572 243.292 210.964 271.398 210.964 271.398C210.964 271.398 205.082 273.874 201.047 271.305C201.047 271.305 199.223 250.392 198.238 239.489C196.903 224.745 196.204 217.311 196.957 214.137C197.625 211.336 210.871 194.605 213.928 189.918L185.775 206.276C186.321 210.421 186.596 214.597 186.598 218.778C186.287 230.503 184.844 253.923 184.844 253.923C184.844 253.923 178.403 256.802 175.206 254.318C175.206 254.318 167.097 203.102 167.097 198.897C167.097 192.51 194.831 173.444 200.084 169.005C203.08 166.475 206.417 163.736 206.417 163.736L246.202 173.63Z" fill="#455A64"/>
<path d="M213.928 189.926C210.966 187.528 208.738 184.348 207.495 180.746C207.65 183.096 207.984 185.431 208.496 187.73C209.272 190.772 185.774 206.276 185.774 206.276L213.928 189.926Z" fill="#37474F"/>
<path d="M229.574 85.9147C231.16 79.1508 226.962 72.3825 220.198 70.7973C213.434 69.2121 206.665 73.4102 205.08 80.1741C203.495 86.938 207.693 93.7063 214.457 95.2915C221.221 96.8767 227.989 92.6786 229.574 85.9147Z" fill="#263238"/>
<path d="M243.758 118.03C243.758 118.03 246.862 120.575 246.862 128.614V145.973L246.419 175.166C240.211 181.925 212.275 179.365 205.361 164.621C205.361 164.621 205.416 133.806 205.416 126.899C205.416 119.993 209.296 111.03 219.849 110.409L233.522 113.591L243.758 118.03Z" fill="#263238"/>
<path d="M239.07 91.987C239.07 91.987 237.029 101.563 236.214 103.138C235.671 104.109 234.773 104.832 233.708 105.156L233.848 98.4201L239.07 91.987Z" fill="#263238"/>
<path d="M236.51 78.2674C237.218 78.1877 237.936 78.27 238.608 78.5079C239.28 78.7458 239.889 79.1332 240.39 79.6409C242.066 81.3558 241.127 86.7258 239.039 91.987L235.198 92.4294L236.51 78.2674Z" fill="#263238"/>
<path d="M234.081 92.4294C234.857 92.8872 235.951 91.4128 236.897 90.4195C237.844 89.4262 240.948 88.0915 242.492 91.3274C244.037 94.5634 241.127 99.0331 238.69 99.8014C234.484 101.121 233.848 98.4201 233.848 98.4201L233.53 113.591C229.906 117.642 217.513 116.695 219.849 113.187V108.531C219.849 108.531 216.039 109.113 214.184 108.826C211.08 108.345 209.14 105.908 208.201 102.556C206.695 97.1785 206.121 92.8406 207.425 82.2638C208.829 70.6703 222.309 70.5539 229.587 75.1323C236.866 79.7107 234.081 92.4294 234.081 92.4294Z" fill="#FFA8A7"/>
<path d="M223.364 95.0833H222.712C221.574 95.0833 220.483 94.6312 219.678 93.8264C218.873 93.0216 218.421 91.9301 218.421 90.792C218.421 89.6539 218.873 88.5624 219.678 87.7576C220.483 86.9528 221.574 86.5007 222.712 86.5007H223.372C224.51 86.5007 225.601 86.9528 226.406 87.7576C227.211 88.5624 227.663 89.6539 227.663 90.792C227.663 91.9301 227.211 93.0216 226.406 93.8264C225.601 94.6312 224.51 95.0833 223.372 95.0833H223.364ZM222.712 87.2224C221.765 87.2224 220.858 87.5985 220.188 88.2679C219.519 88.9373 219.143 89.8453 219.143 90.792C219.143 91.7387 219.519 92.6467 220.188 93.3161C220.858 93.9855 221.765 94.3616 222.712 94.3616H223.372C224.318 94.3616 225.226 93.9855 225.896 93.3161C226.565 92.6467 226.941 91.7387 226.941 90.792C226.941 89.8453 226.565 88.9373 225.896 88.2679C225.226 87.5985 224.318 87.2224 223.372 87.2224H222.712Z" fill="#263238"/>
<path d="M210.297 95.0833H209.637C208.499 95.0833 207.407 94.6312 206.603 93.8264C205.798 93.0216 205.346 91.9301 205.346 90.792C205.346 89.6539 205.798 88.5624 206.603 87.7576C207.407 86.9528 208.499 86.5007 209.637 86.5007H210.297C211.435 86.5007 212.526 86.9528 213.331 87.7576C214.136 88.5624 214.588 89.6539 214.588 90.792C214.588 91.9301 214.136 93.0216 213.331 93.8264C212.526 94.6312 211.435 95.0833 210.297 95.0833ZM209.637 87.2224C208.69 87.2224 207.782 87.5985 207.113 88.2679C206.443 88.9373 206.067 89.8453 206.067 90.792C206.067 91.7387 206.443 92.6467 207.113 93.3161C207.782 93.9855 208.69 94.3616 209.637 94.3616H210.297C211.243 94.3616 212.151 93.9855 212.821 93.3161C213.49 92.6467 213.866 91.7387 213.866 90.792C213.866 89.8453 213.49 88.9373 212.821 88.2679C212.151 87.5985 211.243 87.2224 210.297 87.2224H209.637Z" fill="#263238"/>
<path d="M218.467 89.9462C218.206 89.5905 217.864 89.3009 217.471 89.1002C217.078 88.8994 216.643 88.7932 216.201 88.7899C215.834 88.7529 215.462 88.804 215.118 88.9389C214.774 89.0738 214.467 89.2888 214.223 89.5659L213.648 89.1314C213.963 88.7598 214.363 88.4713 214.815 88.2914C215.267 88.1114 215.757 88.0454 216.24 88.0993C216.8 88.1048 217.35 88.2435 217.845 88.504C218.34 88.7644 218.767 89.1391 219.088 89.597L218.467 89.9462Z" fill="#263238"/>
<path d="M236.386 89.9151H227.26V90.6368H236.386V89.9151Z" fill="#263238"/>
<path d="M234.08 93.7253C234.468 93.7253 235.935 91.2886 236.897 90.4195C238.224 89.209 236.509 78.2674 236.509 78.2674C236.509 78.2674 237.79 75.5436 235.229 72.7345C233.413 70.7324 230.371 70.5074 225.18 69.6926C222.456 69.2658 218.327 68.4975 215.604 67.9931C212.36 67.3878 209.667 66.7515 207.378 68.7691C206.479 69.5481 205.844 70.5862 205.559 71.7409C205.274 72.8956 205.354 74.1101 205.787 75.2177C206.445 76.599 207.613 77.6704 209.047 78.2053C209.047 78.2053 210.459 79.4624 215.386 80.0599C220.314 80.6574 227.989 79.9513 229.036 79.8038C230.464 79.6098 230.767 80.9911 231.543 84.778C232.218 88.076 232.8 93.702 234.08 93.7253Z" fill="#263238"/>
<path d="M236.502 79.152L241.158 76.6455C241.009 76.3326 240.798 76.053 240.538 75.8237C240.278 75.5944 239.974 75.4202 239.645 75.3114C239.315 75.2027 238.968 75.1617 238.622 75.1909C238.277 75.2201 237.941 75.319 237.635 75.4815C237.012 75.8324 236.548 76.4084 236.337 77.0911C236.126 77.7739 236.185 78.5114 236.502 79.152Z" fill="#263238"/>
<path d="M219.856 108.57C219.856 108.57 226.763 107.181 229.168 105.901C230.588 105.159 231.751 104.007 232.505 102.595C232.14 104.002 231.496 105.321 230.612 106.475C228.842 108.733 219.849 110.394 219.849 110.394L219.856 108.57Z" fill="#F28F8F"/>
<path d="M221.517 90.7066C221.528 90.9791 221.618 91.2424 221.778 91.4638C221.937 91.6851 222.158 91.8546 222.413 91.9512C222.668 92.0479 222.946 92.0673 223.212 92.0071C223.478 91.9469 223.72 91.8097 223.908 91.6127C224.097 91.4157 224.223 91.1675 224.272 90.8992C224.32 90.6308 224.289 90.3541 224.181 90.1036C224.073 89.8531 223.894 89.6398 223.666 89.4904C223.438 89.3409 223.171 89.262 222.898 89.2633C222.713 89.2673 222.53 89.3078 222.36 89.3826C222.19 89.4573 222.037 89.5647 221.909 89.6988C221.78 89.8328 221.68 89.9908 221.612 90.1638C221.545 90.3367 221.513 90.5212 221.517 90.7066Z" fill="#263238"/>
<path d="M223.736 84.9798L226.701 86.6094C226.9 86.2058 226.94 85.7416 226.812 85.3098C226.684 84.8781 226.398 84.5107 226.01 84.2814C225.816 84.174 225.602 84.1068 225.381 84.0838C225.16 84.0609 224.937 84.0827 224.725 84.1478C224.513 84.213 224.316 84.3203 224.146 84.4632C223.976 84.6061 223.837 84.7818 223.736 84.9798Z" fill="#263238"/>
<path d="M220.485 100.259L217.327 101.446C217.395 101.659 217.505 101.855 217.651 102.023C217.797 102.191 217.975 102.329 218.175 102.427C218.375 102.524 218.593 102.581 218.815 102.592C219.037 102.604 219.26 102.571 219.469 102.494C219.895 102.325 220.238 101.998 220.428 101.582C220.618 101.165 220.638 100.691 220.485 100.259Z" fill="#F28F8F"/>
<path d="M208.821 86.1903L211.522 84.1184C211.396 83.9375 211.235 83.784 211.049 83.6671C210.862 83.5503 210.654 83.4724 210.436 83.4383C210.218 83.4042 209.996 83.4146 209.783 83.4688C209.569 83.523 209.369 83.6199 209.194 83.7537C208.83 84.034 208.589 84.4436 208.52 84.8974C208.45 85.3512 208.558 85.8142 208.821 86.1903Z" fill="#263238"/>
<path d="M210.009 90.3109C210.02 90.5834 210.11 90.8467 210.27 91.068C210.429 91.2893 210.65 91.4589 210.905 91.5555C211.16 91.6521 211.438 91.6715 211.704 91.6113C211.97 91.5511 212.212 91.4139 212.401 91.2169C212.589 91.0199 212.716 90.7717 212.764 90.5034C212.813 90.235 212.781 89.9583 212.673 89.7078C212.565 89.4573 212.386 89.244 212.158 89.0946C211.93 88.9452 211.663 88.8662 211.39 88.8675C211.205 88.8715 211.022 88.9121 210.852 88.9868C210.682 89.0615 210.529 89.169 210.401 89.303C210.272 89.4371 210.172 89.5951 210.105 89.768C210.037 89.9409 210.005 90.1254 210.009 90.3109Z" fill="#263238"/>
<path d="M216.845 89.2012L216.69 97.5898L211.731 96.4956L216.845 89.2012Z" fill="#F28F8F"/>
<path d="M208.372 158.94V159.716C208.371 160.113 208.266 160.503 208.067 160.846C207.868 161.189 207.583 161.474 207.239 161.672L185.689 174.088C185.346 174.286 184.956 174.39 184.56 174.39C184.164 174.39 183.774 174.286 183.431 174.088L143.894 151.266C143.55 151.068 143.264 150.783 143.065 150.44C142.866 150.097 142.761 149.707 142.761 149.31V148.759L184.556 172.885L208.372 158.94Z" fill="#407BFF"/>
<path opacity="0.6" d="M208.372 158.94V159.716C208.371 160.113 208.266 160.503 208.067 160.846C207.868 161.189 207.583 161.474 207.239 161.672L185.689 174.088C185.346 174.286 184.956 174.39 184.56 174.39C184.164 174.39 183.774 174.286 183.431 174.088L143.894 151.266C143.55 151.068 143.264 150.783 143.065 150.44C142.866 150.097 142.761 149.707 142.761 149.31V148.759L184.556 172.885L208.372 158.94Z" fill="black"/>
<path d="M142.784 148.767L166.227 135.234C166.432 135.115 166.665 135.053 166.902 135.053C167.139 135.053 167.372 135.115 167.577 135.234L208.24 158.715C208.285 158.742 208.322 158.78 208.348 158.826C208.374 158.871 208.387 158.923 208.387 158.975C208.387 159.028 208.374 159.079 208.348 159.125C208.322 159.17 208.285 159.208 208.24 159.235L184.58 172.893L142.784 148.767Z" fill="#407BFF"/>
<path opacity="0.5" d="M142.784 148.767L166.227 135.234C166.432 135.115 166.665 135.053 166.902 135.053C167.139 135.053 167.372 135.115 167.577 135.234L208.24 158.715C208.285 158.742 208.322 158.78 208.348 158.826C208.374 158.871 208.387 158.923 208.387 158.975C208.387 159.028 208.374 159.079 208.348 159.125C208.322 159.17 208.285 159.208 208.24 159.235L184.58 172.893L142.784 148.767Z" fill="black"/>
<path d="M184.774 170.906L197.415 163.612L160.446 142.272L147.735 149.527L184.774 170.906Z" fill="#263238"/>
<path d="M190.99 150.622L190.757 150.754L184.557 154.331L173.538 147.968L173.312 147.836L179.738 144.126L190.99 150.622Z" fill="#263238"/>
<path d="M190.757 150.754L184.556 154.331L173.537 147.968L179.737 144.39L190.757 150.754Z" fill="#263238"/>
<path opacity="0.7" d="M184.556 172.893V174.398C184.161 174.398 183.773 174.294 183.431 174.096L143.894 151.273C143.55 151.076 143.264 150.791 143.065 150.448C142.866 150.104 142.761 149.715 142.761 149.318V148.767L184.556 172.893Z" fill="black"/>
<path d="M183.912 173.226C183.536 173.376 183.131 173.438 182.728 173.407C182.324 173.376 181.933 173.253 181.584 173.048L142.226 150.327C141.884 150.131 141.589 149.861 141.364 149.538C141.139 149.214 140.988 148.845 140.922 148.457L136.615 122.755C136.591 122.612 136.578 122.467 136.576 122.321C136.572 121.607 136.851 120.92 137.352 120.412L178.255 144.033C178.515 144.176 178.739 144.375 178.912 144.615C179.086 144.855 179.203 145.131 179.256 145.422L183.912 173.226Z" fill="#407BFF"/>
<path opacity="0.5" d="M183.912 173.226C183.536 173.376 183.131 173.438 182.728 173.407C182.324 173.376 181.933 173.253 181.584 173.048L142.226 150.327C141.884 150.131 141.589 149.861 141.364 149.538C141.139 149.214 140.988 148.845 140.922 148.457L136.615 122.755C136.591 122.612 136.578 122.467 136.576 122.321C136.572 121.607 136.851 120.92 137.352 120.412L178.255 144.033C178.515 144.176 178.739 144.375 178.912 144.615C179.086 144.855 179.203 145.131 179.256 145.422L183.912 173.226Z" fill="black"/>
<path d="M184.556 172.893L184.292 173.048C184.173 173.117 184.048 173.177 183.92 173.226L179.264 145.422C179.215 145.135 179.103 144.861 178.937 144.621C178.771 144.381 178.554 144.18 178.301 144.033L137.398 120.412C137.561 120.252 137.744 120.114 137.942 120.001L178.93 143.661C179.182 143.808 179.399 144.008 179.565 144.248C179.732 144.488 179.843 144.762 179.892 145.05L184.556 172.893Z" fill="#E0E0E0"/>
<path d="M161.75 149.504C161.463 147.789 159.686 145.5 157.784 144.406C155.883 143.312 154.572 143.808 154.867 145.531C155.161 147.254 156.931 149.535 158.832 150.637C160.733 151.739 162.045 151.227 161.75 149.504Z" fill="#407BFF"/>
<path d="M169.813 166.235C169.731 165.121 169.514 164.022 169.169 162.96C168.563 161.059 166.763 153.733 162.65 152.631C162.161 152.484 161.642 152.468 161.145 152.585C160.004 152.895 159.484 154.083 159.259 155.146C159.05 156.717 159.05 158.308 159.259 159.879C158.627 159.156 157.886 158.536 157.063 158.04C156.333 157.491 155.454 157.177 154.541 157.14C154.414 157.134 154.287 157.159 154.172 157.213C154.057 157.267 153.957 157.349 153.881 157.45C153.734 157.722 153.881 158.063 154.114 158.304C154.525 158.801 155.03 159.22 155.441 159.716C155.763 160.149 156.061 160.6 156.334 161.067C156.853 161.905 157.435 162.696 158.017 163.495C159.136 165.156 160.538 166.606 162.161 167.779C164.028 169.042 166.146 169.887 168.369 170.254C171.372 170.627 174.29 170.58 176.184 169.921L169.813 166.235Z" fill="#FFA8A7"/>
<path d="M242.934 118.255C240.164 116.827 236.113 122.484 237.402 128.397C238.69 134.31 245.037 155.099 245.037 155.099C245.037 155.099 216.364 157.66 213.928 157.963C212.228 158.164 210.327 157.303 208.752 156.783C206.61 156.069 204.445 155.572 202.334 154.796C201.967 154.628 201.567 154.543 201.162 154.548C200.959 154.557 200.765 154.632 200.609 154.763C200.454 154.893 200.345 155.072 200.301 155.27C200.291 155.513 200.353 155.753 200.479 155.96C201.156 157.341 202.174 158.527 203.436 159.406C204.048 159.767 204.629 160.177 205.174 160.632C205.508 160.966 206.245 161.889 205.95 162.394L194.559 168.951C194.559 168.951 197.181 171.232 206.68 168.57C210.104 167.675 213.445 166.488 216.667 165.024C216.667 165.024 250.454 166.429 256.561 164.582C258.718 163.922 259.494 162.394 258.035 155.441C256.367 147.386 251.579 132.696 250.493 128.816C248.11 120.412 247.544 120.606 242.934 118.255Z" fill="#FFA8A7"/>
<path d="M241.507 117.052C241.507 117.052 246.086 118.34 248.057 120.932C250.028 123.524 257.633 148.596 257.633 148.596C255.645 150.254 253.32 151.46 250.82 152.13C248.319 152.8 245.703 152.918 243.152 152.476C243.152 152.476 237.038 135.133 236.386 130.5C235.23 123.322 238.737 117.673 241.507 117.052Z" fill="#407BFF"/>
<path d="M216.799 133.876C216.426 131.936 217.637 130.888 219.507 131.548C220.497 131.954 221.377 132.587 222.078 133.396C222.779 134.204 223.28 135.166 223.542 136.204C223.915 138.167 217.163 135.8 216.799 133.876Z" fill="#407BFF"/>
<path d="M229.596 139.921L224.094 136.421C224.373 137.911 222.363 137.701 220.555 137.073C218.747 136.444 216.536 135.171 216.249 133.682L211.453 133.619C211.011 133.619 211.003 134.194 211.453 134.667C212.64 135.994 215.403 138.345 221.207 140.371C227.012 142.396 229.239 141.767 230.077 141.147C230.348 140.914 230.1 140.239 229.596 139.921Z" fill="#407BFF"/>
</svg>
