<svg width="21" height="21" viewBox="0 0 21 21" fill="none" xmlns="http://www.w3.org/2000/svg">
<path d="M16.5 17.2023C16.5 14.1706 13 13.5 10.5 13.5C8 13.5 4.5 14.1706 4.5 17.2023M19.5 10.5C19.5 15.4706 15.4706 19.5 10.5 19.5C5.52944 19.5 1.5 15.4706 1.5 10.5C1.5 5.52944 5.52944 1.5 10.5 1.5C15.4706 1.5 19.5 5.52944 19.5 10.5ZM13.5 7.5C13.5 9.15685 12.1569 10.5 10.5 10.5C8.84315 10.5 7.5 9.15685 7.5 7.5C7.5 5.84315 8.84315 4.5 10.5 4.5C12.1569 4.5 13.5 5.84315 13.5 7.5Z" stroke="#8A8A8A" stroke-width="1.5" stroke-linecap="round" stroke-linejoin="round"/>
</svg>
