<svg width="21" height="21" viewBox="0 0 21 21" fill="none" xmlns="http://www.w3.org/2000/svg">
<path d="M9.5 1.5H11.5C12.0523 1.5 12.5 1.94772 12.5 2.5V3.06879C12.5 3.49659 12.7871 3.86825 13.1822 4.03228C13.5775 4.19638 14.0377 4.13384 14.3403 3.83123L14.7426 3.42891C15.1331 3.03838 15.7663 3.03838 16.1568 3.42891L17.571 4.84312C17.9616 5.23365 17.9615 5.86681 17.571 6.25734L17.1688 6.6596C16.8661 6.96223 16.8036 7.42247 16.9677 7.81774C17.1317 8.21287 17.5034 8.5 17.9313 8.5L18.5 8.5C19.0523 8.5 19.5 8.94771 19.5 9.5V11.5C19.5 12.0523 19.0523 12.5 18.5 12.5H17.9312C17.5034 12.5 17.1318 12.7871 16.9677 13.1822C16.8036 13.5775 16.8661 14.0377 17.1688 14.3403L17.571 14.7426C17.9616 15.1331 17.9616 15.7663 17.571 16.1568L16.1568 17.571C15.7663 17.9616 15.1331 17.9616 14.7426 17.571L14.3403 17.1688C14.0377 16.8661 13.5775 16.8036 13.1822 16.9677C12.7871 17.1318 12.5 17.5034 12.5 17.9312V18.5C12.5 19.0523 12.0523 19.5 11.5 19.5H9.5C8.94772 19.5 8.5 19.0523 8.5 18.5V17.9313C8.5 17.5034 8.21287 17.1317 7.81774 16.9677C7.42247 16.8036 6.96223 16.8661 6.6596 17.1688L6.25732 17.571C5.86679 17.9616 5.23363 17.9616 4.84311 17.571L3.42889 16.1568C3.03837 15.7663 3.03837 15.1331 3.42889 14.7426L3.83123 14.3403C4.13384 14.0377 4.19638 13.5775 4.03228 13.1822C3.86825 12.7871 3.49659 12.5 3.06879 12.5H2.5C1.94772 12.5 1.5 12.0523 1.5 11.5V9.5C1.5 8.94772 1.94772 8.5 2.5 8.5L3.06877 8.5C3.49658 8.5 3.86825 8.21288 4.03229 7.81776C4.1964 7.4225 4.13386 6.96229 3.83123 6.65966L3.42891 6.25734C3.03838 5.86681 3.03838 5.23365 3.42891 4.84313L4.84312 3.42891C5.23365 3.03839 5.86681 3.03839 6.25734 3.42891L6.65966 3.83123C6.96228 4.13386 7.4225 4.1964 7.81776 4.03229C8.21288 3.86825 8.5 3.49658 8.5 3.06876V2.5C8.5 1.94772 8.94772 1.5 9.5 1.5Z" stroke="#8A8A8A" stroke-width="1.5"/>
<path d="M12.5 10.5C12.5 11.6046 11.6046 12.5 10.5 12.5C9.39543 12.5 8.5 11.6046 8.5 10.5C8.5 9.39543 9.39543 8.5 10.5 8.5C11.6046 8.5 12.5 9.39543 12.5 10.5Z" stroke="#8A8A8A" stroke-width="1.5"/>
</svg>
